<svg xmlns="http://www.w3.org/2000/svg" xmlns:xlink="http://www.w3.org/1999/xlink" viewBox="0 0 1045 697"><defs><style>.cls-1,.cls-4,.cls-5,.cls-7{fill:none;}.cls-2{fill:#fefcf7;}.cls-3{fill:#231f20;}.cls-4,.cls-5,.cls-7{stroke:#231f20;}.cls-4{stroke-width:2.25px;}.cls-5{stroke-width:2.28px;}.cls-6{clip-path:url(#clip-path);}.cls-7{stroke-width:2.15px;}</style><clipPath id="clip-path"><rect class="cls-1" x="-34" y="-22.5" width="1113" height="742"/></clipPath></defs><title>Artboard 1</title><g id="Layer_1" data-name="Layer 1"><rect class="cls-2" x="0.5" y="0.5" width="1045" height="697"/></g><g id="Layer_2" data-name="Layer 2"><path class="cls-3" d="M344.13,28.94h-3.55V23.16h-6.81v5.78h-3.54v-14h3.54v5.59h6.81V14.92h3.55Z"/><path class="cls-3" d="M346.29,24c0-3.34,2.57-5.22,6.16-5.22s6.18,1.88,6.18,5.22-2.59,5.25-6.18,5.25S346.29,27.32,346.29,24Zm8.91,0c0-1.94-1.07-2.94-2.75-2.94s-2.74,1-2.74,2.94,1.06,3,2.74,3S355.2,25.92,355.2,24Z"/><path class="cls-3" d="M359.15,19.07h3.28l1.69,6.08c.06.28.12.59.18,1h0a5.9,5.9,0,0,1,.2-1l2-6.08h3.08l2,6.08a5.9,5.9,0,0,1,.2,1h0a6.88,6.88,0,0,1,.17-1l1.68-6.08H377l-3.26,9.87h-3.45l-2-5.82a3.65,3.65,0,0,1-.22-.93H368a3.5,3.5,0,0,1-.19.93l-2,5.82h-3.45Z"/><path class="cls-3" d="M384.65,14.92h5.05l3.1,8.59a9.24,9.24,0,0,1,.4,1.62h0a9.54,9.54,0,0,1,.41-1.64l3-8.57h5.14v14h-3.24V19.56c0-.59,0-1.24.1-1.83h-.06a13.53,13.53,0,0,1-.5,1.62l-3.43,9.59h-3.12l-3.46-9.59a11.28,11.28,0,0,1-.45-1.6h-.08a12.48,12.48,0,0,1,.1,1.81v9.38h-3Z"/><path class="cls-3" d="M404.1,26.24a2.54,2.54,0,0,1,1.07-2.15,7.22,7.22,0,0,1,3.44-.95l3.67-.34v-.29c0-1.11-.75-1.64-2.09-1.64s-2.18.53-2.31,1.52h-3.46c.26-2.25,2.45-3.62,5.79-3.62,3.75,0,5.47,1.37,5.47,4.23v3.06a13.34,13.34,0,0,0,.23,2.88h-3.33a10.42,10.42,0,0,1-.14-1.67c-.65,1.24-2.19,2-4.29,2C405.66,29.24,404.1,28.09,404.1,26.24ZM412.36,25V24.4l-2.73.28c-1.5.18-2.07.57-2.07,1.34s.71,1.17,1.88,1.17C411.17,27.19,412.36,26.34,412.36,25Z"/><path class="cls-3" d="M418.4,19.07h3.28v2.07a4.25,4.25,0,0,1,4.13-2.37c2.76,0,4.21,1.58,4.21,4.65v5.52h-3.38v-5c0-1.78-.73-2.65-2.27-2.65s-2.59,1-2.59,2.81v4.85H418.4Z"/><path class="cls-3" d="M431.54,32.85v-2.5a8,8,0,0,0,1.34.11,2.5,2.5,0,0,0,2.47-1.24l.08-.3-4.7-9.85h3.73l2.37,6a4.93,4.93,0,0,1,.32,1.11h.06a7.5,7.5,0,0,1,.29-1.09l2.27-6.06h3.5L438.81,29.4C437.7,32,436.06,33,433.22,33A10.45,10.45,0,0,1,431.54,32.85Z"/><path class="cls-3" d="M456.84,23.71h-3v5.23H450.3v-14h7.63c3.89,0,5.37,2,5.37,4.35a4,4,0,0,1-2.95,4l3.36,5.7H459.8Zm-3-2.37h3.32c1.75,0,2.42-.87,2.42-2s-.67-1.94-2.42-1.94h-3.32Z"/><path class="cls-3" d="M476.29,24.76h-8.64c.1,1.36,1.22,2.17,3,2.17a3.23,3.23,0,0,0,2.9-1.44l2.53,1.14c-1,1.66-3,2.61-5.51,2.61-3.85,0-6.18-1.92-6.18-5.15s2.35-5.32,6-5.32,5.9,1.94,5.9,5.2ZM473,22.88c0-1.36-1.05-2.17-2.63-2.17s-2.62.83-2.72,2.21H473Z"/><path class="cls-3" d="M485.64,21.28h-3.16v7.66H479.1V21.28h-2.17V19.07h2.17V18.4c0-2.61,1.54-3.93,4.58-3.93a8.65,8.65,0,0,1,2,.22v2.37a7.38,7.38,0,0,0-1.44-.14c-1.21,0-1.72.45-1.72,1.52v.63h3.16Z"/><path class="cls-3" d="M487.2,25V19.07h3.38v5.27c0,1.74.89,2.41,2.13,2.41a2.42,2.42,0,0,0,2.57-2.6V19.07h3.37v9.87H495.4v-2a4.18,4.18,0,0,1-4,2.33C488.58,29.24,487.2,27.72,487.2,25Z"/><path class="cls-3" d="M512.16,19.47a2.47,2.47,0,0,0-1.36.33,2.75,2.75,0,0,1,1.25,2.33c0,2.07-2.06,3.42-5.39,3.42a9.43,9.43,0,0,1-2.63-.34.63.63,0,0,0-.4.55c0,.5.42.77,1.33.77h4.24c2.61,0,3.89,1,3.89,2.91,0,2.39-2.23,3.65-6.75,3.65-3.85,0-5.69-.87-5.69-2.37,0-.83.58-1.44,1.74-1.78A2,2,0,0,1,501,27.09c0-1.11.75-1.9,2.07-2.27a3,3,0,0,1-1.77-2.69c0-2.09,2-3.36,5.41-3.36a9.49,9.49,0,0,1,2.88.4c.33-1.19,1.4-1.84,3-1.84a3.15,3.15,0,0,1,.61.06v2.19A4.74,4.74,0,0,0,512.16,19.47Zm-7.91,9.77c-.24,0-.46,0-.67,0a1.11,1.11,0,0,0-.42.89c0,.91,1.17,1.28,3.38,1.28,2.72,0,3.71-.39,3.71-1.2,0-.61-.44-.91-1.4-.91Zm4.5-7.11c0-1.05-.79-1.68-2.09-1.68s-2.12.63-2.12,1.68.81,1.72,2.12,1.72S508.75,23.18,508.75,22.13Z"/><path class="cls-3" d="M525.46,24.76h-8.65c.1,1.36,1.22,2.17,3,2.17a3.23,3.23,0,0,0,2.9-1.44l2.53,1.14c-1,1.66-3,2.61-5.51,2.61-3.85,0-6.18-1.92-6.18-5.15s2.35-5.32,6-5.32,5.91,1.94,5.91,5.2Zm-3.32-1.88c0-1.36-1-2.17-2.63-2.17s-2.62.83-2.72,2.21h5.35Z"/><path class="cls-3" d="M538.81,24.76h-8.65c.1,1.36,1.23,2.17,3,2.17a3.22,3.22,0,0,0,2.9-1.44l2.53,1.14c-1,1.66-3,2.61-5.51,2.61-3.85,0-6.18-1.92-6.18-5.15s2.35-5.32,6-5.32,5.9,1.94,5.9,5.2Zm-3.32-1.88c0-1.36-1-2.17-2.62-2.17s-2.63.83-2.73,2.21h5.35Z"/><path class="cls-3" d="M539.7,26.89l1.82-1.54a5.33,5.33,0,0,0,4.38,1.7c1.39,0,2-.3,2-.91s-.3-.77-1.42-.89L543.85,25c-2.41-.29-3.56-1.3-3.56-3,0-2,1.86-3.18,5.18-3.18a7.31,7.31,0,0,1,5.43,1.88l-1.58,1.62a5.61,5.61,0,0,0-4-1.34c-1.3,0-1.91.25-1.91.83s.35.71,1.26.81l2.9.29c2.43.28,3.4,1.29,3.4,3,0,2.1-1.76,3.36-5.2,3.36C543,29.24,540.93,28.43,539.7,26.89Z"/><path class="cls-3" d="M570.89,26.36v2.58H559.26v-14h11.49v2.57h-8v3.06h7.62V23h-7.62v3.32Z"/><path class="cls-3" d="M573.44,19.07h3.28v2.07a4.25,4.25,0,0,1,4.12-2.37c2.77,0,4.21,1.58,4.21,4.65v5.52h-3.38v-5c0-1.78-.73-2.65-2.27-2.65s-2.58,1-2.58,2.81v4.85h-3.38Z"/><path class="cls-3" d="M586.06,19.07h2.23V16.72l3.38-1.26v3.61h3.26v2.21h-3.26v3.46c0,1.16.61,1.74,1.86,1.74a6.51,6.51,0,0,0,1.4-.16v2.56a8.86,8.86,0,0,1-2.29.28c-3,0-4.35-1.28-4.35-3.67V21.28h-2.23Z"/><path class="cls-3" d="M607.71,24.76h-8.65c.1,1.36,1.22,2.17,3,2.17a3.23,3.23,0,0,0,2.9-1.44l2.53,1.14c-1,1.66-3,2.61-5.51,2.61-3.85,0-6.18-1.92-6.18-5.15s2.35-5.32,6-5.32,5.91,1.94,5.91,5.2Zm-3.32-1.88c0-1.36-1-2.17-2.63-2.17s-2.62.83-2.72,2.21h5.35Z"/><path class="cls-3" d="M616.69,18.81a3,3,0,0,1,.66.06V22a5.51,5.51,0,0,0-1-.08,3.14,3.14,0,0,0-2.27.75,3.45,3.45,0,0,0-.89,2.61v3.71H609.8V19.07h3.08V21.8A3.8,3.8,0,0,1,616.69,18.81Z"/><path class="cls-3" d="M630,24.76H621.3c.1,1.36,1.22,2.17,3,2.17a3.23,3.23,0,0,0,2.9-1.44l2.53,1.14c-1,1.66-3,2.61-5.51,2.61-3.85,0-6.18-1.92-6.18-5.15s2.35-5.32,6-5.32S630,20.71,630,24Zm-3.32-1.88c0-1.36-1-2.17-2.63-2.17s-2.62.83-2.72,2.21h5.35Z"/><path class="cls-3" d="M631.43,24a4.89,4.89,0,0,1,5.08-5.24,4.3,4.3,0,0,1,3.77,1.7V14.63h3.37V28.94h-3.23V27.15a4.48,4.48,0,0,1-4.07,2.09C633.45,29.24,631.43,27.13,631.43,24Zm8.91.35v-.65a2.52,2.52,0,0,0-2.75-2.66c-1.68,0-2.66,1.06-2.66,2.92s1,3,2.72,3A2.51,2.51,0,0,0,640.34,24.36Z"/><path class="cls-3" d="M653,14.92h3.87l5.83,8a10.43,10.43,0,0,1,.94,1.7h0V14.92h3.24v14h-3.67l-6-8.13a12.84,12.84,0,0,1-.93-1.64h-.06c0,.59,0,1.2,0,1.88v7.89H653Z"/><path class="cls-3" d="M674.12,24l-5.67-9.11h3.89l3.18,5.43a3.51,3.51,0,0,1,.37.93h0a3.26,3.26,0,0,1,.38-.93l3.25-5.43h3.8L677.67,24v4.91h-3.55Z"/><path class="cls-3" d="M682.53,22c0-4.46,3.14-7.44,7.94-7.44,4,0,6.67,2,7.28,5.15l-3.63.63a3.46,3.46,0,0,0-3.73-3c-2.61,0-4.19,1.78-4.19,4.62s1.62,4.6,4.27,4.6a3.47,3.47,0,0,0,3.71-2.88l3.61.77c-.88,3.08-3.49,4.92-7.4,4.92C685.45,29.34,682.53,26.46,682.53,22Z"/><path class="cls-3" d="M708.9,24a2.64,2.64,0,0,1,1.58-2.47l1.34-.73a2.23,2.23,0,0,0,1.42-2.07c0-1.09-.87-1.9-2.43-1.9s-2.7.79-2.7,2.25a3.15,3.15,0,0,0,.12,1l-3.36-.28a4.2,4.2,0,0,1-.12-1.06c0-2.59,2.29-4.31,6.06-4.31s5.91,1.54,5.91,4A4.07,4.07,0,0,1,714.45,22l-1.25.71a1.65,1.65,0,0,0-1,1.58v.54H708.9Zm-.2,1.91h3.71v3H708.7Z"/><path class="cls-3" d="M26.63,439.78v-2.56l7.64-5.55a7.24,7.24,0,0,1,1.37-.78v0h-9v-2H38.22v2.43l-7.7,5.68a8.37,8.37,0,0,1-1.36.77v0c.46,0,.92,0,1.5,0h7.56v2.06Z"/><path class="cls-3" d="M34.9,426.14H30.06V424h4.49c1.66,0,2.3-.9,2.3-2.07a2.49,2.49,0,0,0-2.7-2.59H30.06v-2.11h8.16v2H36.49a3.46,3.46,0,0,1,2,3.33C38.46,425,37.17,426.14,34.9,426.14Z"/><path class="cls-3" d="M30.06,412.42h1.61a3,3,0,0,1-1.87-3,2.84,2.84,0,0,1,1.89-2.9,3.36,3.36,0,0,1-1.89-3.15c0-2,1.29-3.18,3.59-3.18h4.83v2.1H33.67c-1.46,0-2.21.64-2.21,1.85s.88,2.12,2.38,2.12h4.38v2.1H33.65c-1.44,0-2.19.62-2.19,1.83s.93,2.12,2.47,2.12h4.29v2.1H30.06Z"/><path class="cls-3" d="M36.81,395.58l1.41.21v1.81H26.39v-2.11h5.06a3.8,3.8,0,0,1-1.63-3.36,4,4,0,0,1,4.3-4.09,4.06,4.06,0,0,1,4.34,4.21A3.72,3.72,0,0,1,36.81,395.58Zm-2.69-5.34a2.66,2.66,0,1,0-.19,5.32h.4a2.46,2.46,0,0,0,2.58-2.66A2.53,2.53,0,0,0,34.12,390.24Z"/><path class="cls-3" d="M34.66,377.3v7.29c1.37-.08,2.25-1.14,2.25-2.84a2.86,2.86,0,0,0-1.42-2.67l.75-1.65a4.72,4.72,0,0,1,2.22,4.41c0,3-1.55,4.81-4.24,4.81s-4.4-1.84-4.4-4.73,1.48-4.62,4.09-4.62Zm-1.4,2.09c-1.34,0-2.11,1-2.11,2.56a2.33,2.33,0,0,0,2.19,2.64v-5.2Z"/><path class="cls-3" d="M29.85,370.27a2.76,2.76,0,0,1,0-.59h1.94a4.37,4.37,0,0,0-.05.64,2.65,2.65,0,0,0,.68,2,3.46,3.46,0,0,0,2.57.8h3.18v2.11H30.06V373.3H32.2A3.07,3.07,0,0,1,29.85,370.27Z"/><path class="cls-3" d="M32.43,364.33c-3.76,0-6.12-2.53-6.12-6.4s2.36-6.39,6.12-6.39,6.11,2.53,6.11,6.39S36.14,364.33,32.43,364.33Zm0-10.43c-2.66,0-4.34,1.55-4.34,4s1.68,4,4.34,4,4.33-1.55,4.33-4S35.08,353.9,32.43,353.9Z"/><path class="cls-3" d="M31.54,344v2.69h6.68v2.12H31.54v1.88H30.06v-1.88h-.82c-1.92,0-3-1.16-3-3.34a6.49,6.49,0,0,1,.16-1.47H28a6.29,6.29,0,0,0-.11,1.22c0,1,.42,1.47,1.44,1.47h.73V344Z"/><path class="cls-3" d="M33.68,331.83v2.92h4.54V337H26.63v-5.92c0-3.19,1.72-4.19,3.51-4.19a3.24,3.24,0,0,1,3.25,2.59l4.83-3v2.54Zm-1.63,2.92v-3.23c0-1.68-.86-2.25-1.89-2.25s-1.85.55-1.85,2.25v3.23Z"/><path class="cls-3" d="M34.66,316.31v7.29c1.37-.08,2.25-1.14,2.25-2.84a2.84,2.84,0,0,0-1.42-2.67l.75-1.65a4.71,4.71,0,0,1,2.22,4.4c0,3-1.55,4.82-4.24,4.82s-4.4-1.85-4.4-4.73,1.48-4.62,4.09-4.62Zm-1.4,2.09c-1.34,0-2.11,1-2.11,2.56a2.33,2.33,0,0,0,2.19,2.64v-5.2Z"/><path class="cls-3" d="M31.54,308.93v2.7h6.68v2.12H31.54v1.87H30.06v-1.87h-.82c-1.92,0-3-1.16-3-3.35a6.55,6.55,0,0,1,.16-1.47H28a6.39,6.39,0,0,0-.11,1.23c0,1,.42,1.47,1.44,1.47h.73v-2.7Z"/><path class="cls-3" d="M34.9,307.46H30.06v-2.1h4.49c1.66,0,2.3-.9,2.3-2.07a2.5,2.5,0,0,0-2.7-2.6H30.06v-2.1h8.16v2H36.49a3.46,3.46,0,0,1,2,3.33C38.46,306.34,37.17,307.46,34.9,307.46Z"/><path class="cls-3" d="M30.65,288.83a2.41,2.41,0,0,1,2-1c1.68,0,2.84,1.54,2.84,4.08a6.29,6.29,0,0,1-.32,2.11.71.71,0,0,0,.65.53c.44,0,.72-.36.72-1.24V290c0-2.05.81-3.07,2.33-3.07,1.81,0,2.82,1.62,2.82,5.17,0,3.25-.85,4.56-2.12,4.56A1.62,1.62,0,0,1,38,295.26a1.58,1.58,0,0,1-1.47,1.08,1.85,1.85,0,0,1-1.76-1.52A2.5,2.5,0,0,1,32.6,296c-1.69,0-2.78-1.52-2.78-4.08a6.52,6.52,0,0,1,.35-2.23,2.14,2.14,0,0,1-1.5-2.29,3.77,3.77,0,0,1,0-.57h1.52a3.36,3.36,0,0,0-.08.74A1.43,1.43,0,0,0,30.65,288.83Zm2,1.09c-.94,0-1.56.77-1.56,2s.6,2,1.56,2,1.6-.76,1.6-2S33.57,289.92,32.6,289.92Zm5.62,3.72a6.71,6.71,0,0,1,0,.67,1.08,1.08,0,0,0,1,.61c.89,0,1.22-1.06,1.22-3,0-2.37-.44-3.13-1.21-3.13s-.94.45-.94,1.46Z"/><path class="cls-3" d="M34.66,277v7.3c1.37-.09,2.25-1.15,2.25-2.84a2.87,2.87,0,0,0-1.42-2.68l.75-1.65a4.72,4.72,0,0,1,2.22,4.41c0,3-1.55,4.81-4.24,4.81s-4.4-1.84-4.4-4.73S31.3,277,33.91,277ZM33.26,279c-1.34,0-2.11,1-2.11,2.56a2.34,2.34,0,0,0,2.19,2.65V279Z"/><path class="cls-3" d="M34.66,266.14v7.29c1.37-.08,2.25-1.14,2.25-2.84a2.87,2.87,0,0,0-1.42-2.68l.75-1.64a4.7,4.7,0,0,1,2.22,4.4c0,3-1.55,4.81-4.24,4.81s-4.4-1.84-4.4-4.73,1.48-4.61,4.09-4.61Zm-1.4,2.08c-1.34,0-2.11,1-2.11,2.56s.83,2.57,2.19,2.65v-5.21Z"/><path class="cls-3" d="M36.13,265l-.8-1.43c1.08-.59,1.66-1.7,1.66-3.43,0-1.29-.36-1.92-1-1.92s-.88.34-1,1.3l-.2,2.27c-.19,1.89-1,2.8-2.41,2.8-1.61,0-2.54-1.47-2.54-4,0-2.12.75-3.66,2-4.31l.84,1.34a3.39,3.39,0,0,0-1.4,3.08c0,1.24.34,1.91,1,1.91s.84-.41.94-1.32l.21-2.37c.18-1.92,1-2.67,2.39-2.67,1.66,0,2.67,1.33,2.67,4C38.46,262.63,37.65,264.21,36.13,265Z"/><path class="cls-3" d="M134.23,347.07h3.09c2.16,0,3.58,1.24,3.58,3.29a3.32,3.32,0,0,1-3.59,3.41h-3.08Zm3,5.72a2.21,2.21,0,0,0,2.31-2.42,2.16,2.16,0,0,0-2.33-2.32h-1.66v4.74Z"/><path class="cls-3" d="M144.89,348.93a1.72,1.72,0,0,1,.34,0v1.12a2.13,2.13,0,0,0-.37,0,1.54,1.54,0,0,0-1.16.4,2,2,0,0,0-.46,1.48v1.84H142v-4.72h1.12v1.24A1.77,1.77,0,0,1,144.89,348.93Z"/><path class="cls-3" d="M145.68,352.5a1.22,1.22,0,0,1,.57-1.07A3.71,3.71,0,0,1,148,351l1.69-.15v-.1c0-.69-.42-1-1.21-1s-1.25.3-1.33.86h-1.27c.11-1,1.1-1.69,2.6-1.69,1.67,0,2.44.64,2.44,2v1.33a6.5,6.5,0,0,0,.13,1.52h-1.23a5.47,5.47,0,0,1-.08-.86,2.17,2.17,0,0,1-2.09,1C146.42,353.91,145.68,353.38,145.68,352.5Zm4-.72v-.25l-1.59.16c-.82.09-1.13.31-1.13.74s.39.67,1.06.67C149,353.1,149.66,352.58,149.66,351.78Z"/><path class="cls-3" d="M151.55,349.05h1.23l1,3.19a3.26,3.26,0,0,1,.1.49h0a5,5,0,0,1,.12-.49l1.07-3.19h1.22l1.06,3.19a3.17,3.17,0,0,1,.13.49h0a3.26,3.26,0,0,1,.1-.49l1-3.19h1.22l-1.61,4.72h-1.3l-1.08-3.13a2.68,2.68,0,0,1-.11-.48h0a2.58,2.58,0,0,1-.1.48l-1.08,3.13h-1.31Z"/><path class="cls-3" d="M165,348.08v1.81h3.8v1H165v2.88h-1.31v-6.7H169v1Z"/><path class="cls-3" d="M173,348.93a1.87,1.87,0,0,1,.34,0v1.12a2.31,2.31,0,0,0-.37,0,1.51,1.51,0,0,0-1.16.4,2,2,0,0,0-.47,1.48v1.84h-1.22v-4.72h1.12v1.24A1.77,1.77,0,0,1,173,348.93Z"/><path class="cls-3" d="M173.74,351.41c0-1.56,1.15-2.5,2.83-2.5s2.81.94,2.81,2.5a2.5,2.5,0,0,1-2.81,2.5C174.89,353.91,173.74,353,173.74,351.41Zm4.38,0a1.56,1.56,0,1,0-1.55,1.61A1.44,1.44,0,0,0,178.12,351.41Z"/><path class="cls-3" d="M181.71,349.05V350a1.7,1.7,0,0,1,1.71-1.09A1.65,1.65,0,0,1,185.1,350a2,2,0,0,1,1.82-1.09c1.18,0,1.84.74,1.84,2.08v2.79h-1.22v-2.63c0-.84-.36-1.28-1.06-1.28s-1.23.51-1.23,1.38v2.53H184v-2.64c0-.83-.36-1.27-1.06-1.27s-1.23.54-1.23,1.43v2.48h-1.21v-4.72Z"/><path class="cls-3" d="M141.89,359.45h-2.42v5.66h-1.32v-5.66h-2.42V358.4h6.16Z"/><path class="cls-3" d="M142.84,358.26h1.22v3.08a2,2,0,0,1,1.94-1.11c1.34,0,2.05.8,2.05,2.3v2.58h-1.22v-2.46c0-1-.44-1.46-1.3-1.46a1.42,1.42,0,0,0-1.47,1.61v2.31h-1.22Z"/><path class="cls-3" d="M149.48,358.38h1.33v1.22h-1.33Zm.06,2h1.21v4.72h-1.21Z"/><path class="cls-3" d="M151.85,363.9l.83-.46a2.05,2.05,0,0,0,2,1c.74,0,1.11-.21,1.11-.6s-.2-.51-.76-.57l-1.31-.11c-1.09-.12-1.62-.61-1.62-1.4,0-.94.85-1.48,2.31-1.48a2.63,2.63,0,0,1,2.49,1.16l-.77.49a2,2,0,0,0-1.79-.81c-.71,0-1.1.19-1.1.57s.24.49.76.55l1.37.12c1.12.11,1.55.59,1.55,1.38,0,1-.77,1.55-2.33,1.55A2.79,2.79,0,0,1,151.85,363.9Z"/><path class="cls-3" d="M167.06,360.49c0,1.31-1,2.14-2.52,2.14h-2v2.48h-1.31V358.4h3.38C166.1,358.4,167.06,359.21,167.06,360.49Zm-1.37,0c0-.71-.51-1.14-1.36-1.14h-1.81v2.29h1.81C165.17,361.67,165.69,361.23,165.69,360.52Z"/><path class="cls-3" d="M167.39,362.75c0-1.56,1.14-2.51,2.82-2.51s2.82.95,2.82,2.51-1.14,2.5-2.82,2.5S167.39,364.3,167.39,362.75Zm4.37,0a1.55,1.55,0,1,0-1.55,1.6A1.44,1.44,0,0,0,171.76,362.75Z"/><path class="cls-3" d="M174.12,358.38h1.33v1.22h-1.33Zm0,2h1.22v4.72h-1.22Z"/><path class="cls-3" d="M177,360.39h1.18v1a2,2,0,0,1,2-1.17c1.33,0,2,.77,2,2.22v2.66H181v-2.49c0-.95-.41-1.42-1.28-1.42a1.43,1.43,0,0,0-1.5,1.61v2.3H177Z"/><path class="cls-3" d="M182.84,360.39h1.09v-1.18l1.22-.48v1.66h1.61v.86h-1.61v2.06c0,.61.29.88.91.88a3.46,3.46,0,0,0,.7-.08v1a3.54,3.54,0,0,1-1,.13c-1.35,0-1.82-.67-1.82-1.71v-2.25h-1.09Z"/><path class="cls-3" d="M508.19,675.72l-4.75-7.31H506l3,4.85a2.71,2.71,0,0,1,.31.68h0a2.47,2.47,0,0,1,.32-.68l3.05-4.85h2.5l-4.76,7.31V680h-2.27Z"/><path class="cls-3" d="M523.41,676.44h-7.29c.08,1.37,1.14,2.25,2.84,2.25a2.86,2.86,0,0,0,2.67-1.42l1.65.75a4.71,4.71,0,0,1-4.4,2.22c-3,0-4.82-1.55-4.82-4.24s1.85-4.41,4.73-4.41,4.62,1.49,4.62,4.1Zm-2.09-1.4c0-1.34-1-2.11-2.56-2.11a2.33,2.33,0,0,0-2.64,2.19h5.2Z"/><path class="cls-3" d="M524.82,677.79a2.09,2.09,0,0,1,1-1.84,6.49,6.49,0,0,1,2.94-.75l2.92-.24v-.18c0-1.2-.74-1.75-2.11-1.75s-2.15.52-2.28,1.48h-2.2c.19-1.77,1.91-2.92,4.48-2.92,2.89,0,4.23,1.11,4.23,3.48v2.3A11.76,11.76,0,0,0,534,680h-2.12a9.61,9.61,0,0,1-.13-1.49c-.56,1.09-1.83,1.73-3.62,1.73C526.1,680.24,524.82,679.31,524.82,677.79Zm6.88-1.24v-.42l-2.76.28c-1.42.14-1.94.52-1.94,1.27s.67,1.16,1.83,1.16C530.52,678.84,531.7,677.94,531.7,676.55Z"/><path class="cls-3" d="M541.36,671.63a2.76,2.76,0,0,1,.59,0v1.94a3.39,3.39,0,0,0-.64,0,2.68,2.68,0,0,0-2,.68,3.49,3.49,0,0,0-.8,2.56V680h-2.1v-8.16h1.93V674A3.07,3.07,0,0,1,541.36,671.63Z"/><line class="cls-4" x1="105.19" y1="59.41" x2="105.19" y2="618.8"/><line class="cls-5" x1="983.16" y1="618.74" x2="104.05" y2="618.74"/><g class="cls-6"><path class="cls-3" d="M91.38,484.72c-1.89,0-2.8-1.75-2.8-4.53s.91-4.54,2.8-4.54,2.81,1.75,2.81,4.54-.91,4.53-2.81,4.53m0,1.18c2.78,0,4.23-2.21,4.23-5.71s-1.45-5.73-4.23-5.73-4.22,2.21-4.22,5.73,1.45,5.71,4.22,5.71m-10-1.18c-1.89,0-2.81-1.75-2.81-4.53s.92-4.54,2.81-4.54,2.81,1.75,2.81,4.54-.92,4.53-2.81,4.53m0,1.18c2.78,0,4.23-2.21,4.23-5.71s-1.45-5.73-4.23-5.73-4.23,2.21-4.23,5.73,1.45,5.71,4.23,5.71m-9.53,0a3.62,3.62,0,0,0,3.8-3.88c0-2.37-1.26-3.83-3.34-3.83a2.76,2.76,0,0,0-2.59,1.46l.41-3.72h5V474.7H69l-.65,6.36,1.36.14a2.16,2.16,0,0,1,2.19-1.83c1.52,0,2.28,1.09,2.28,2.73s-.86,2.59-2.31,2.59a2.14,2.14,0,0,1-2.22-1.88l-1.47.17a3.41,3.41,0,0,0,3.61,2.92"/><path class="cls-3" d="M91.38,457.44c-1.89,0-2.8-1.75-2.8-4.53s.91-4.54,2.8-4.54,2.81,1.75,2.81,4.54-.91,4.53-2.81,4.53m0,1.18c2.78,0,4.23-2.21,4.23-5.71s-1.45-5.73-4.23-5.73-4.22,2.21-4.22,5.73,1.45,5.71,4.22,5.71m-10-1.18c-1.89,0-2.81-1.75-2.81-4.53s.92-4.54,2.81-4.54,2.81,1.75,2.81,4.54-.92,4.53-2.81,4.53m0,1.18c2.78,0,4.23-2.21,4.23-5.71s-1.45-5.73-4.23-5.73-4.23,2.21-4.23,5.73,1.45,5.71,4.23,5.71m-9.24-1.18c-1.39,0-2.37-1.15-2.53-3A2.56,2.56,0,0,1,72,452.25c1.38,0,2.24,1,2.24,2.57s-.85,2.62-2.17,2.62m.2-6.38a3,3,0,0,0-2.77,1.6c.06-2.84,1-4.29,2.68-4.29,1,0,1.69.6,1.94,1.84l1.42-.31a3.12,3.12,0,0,0-3.35-2.72c-2.62,0-4.08,2.13-4.08,6,0,3.61,1.34,5.47,3.94,5.47a3.53,3.53,0,0,0,3.61-3.82c0-2.27-1.34-3.74-3.39-3.74"/><path class="cls-3" d="M91.38,430.15c-1.89,0-2.8-1.75-2.8-4.52s.91-4.55,2.8-4.55,2.81,1.75,2.81,4.55-.91,4.52-2.81,4.52m0,1.19c2.78,0,4.23-2.21,4.23-5.71s-1.45-5.73-4.23-5.73-4.22,2.21-4.22,5.73,1.45,5.71,4.22,5.71m-10-1.19c-1.89,0-2.81-1.75-2.81-4.52s.92-4.55,2.81-4.55,2.81,1.75,2.81,4.55-.92,4.52-2.81,4.52m0,1.19c2.78,0,4.23-2.21,4.23-5.71s-1.45-5.73-4.23-5.73-4.23,2.21-4.23,5.73,1.45,5.71,4.23,5.71m-10.06-.24h1.56v-.27a14.48,14.48,0,0,1,3.88-9.59v-1.1h-7.1v1.31h5.49c-2.43,3-3.83,6.23-3.83,9.49Z"/><path class="cls-3" d="M91.38,402.87c-1.89,0-2.8-1.75-2.8-4.53s.91-4.54,2.8-4.54,2.81,1.75,2.81,4.54-.91,4.53-2.81,4.53m0,1.19c2.78,0,4.23-2.21,4.23-5.72s-1.45-5.72-4.23-5.72-4.22,2.21-4.22,5.72,1.45,5.72,4.22,5.72m-10-1.19c-1.89,0-2.81-1.75-2.81-4.53s.92-4.54,2.81-4.54,2.81,1.75,2.81,4.54-.92,4.53-2.81,4.53m0,1.19c2.78,0,4.23-2.21,4.23-5.72s-1.45-5.72-4.23-5.72-4.23,2.21-4.23,5.72,1.45,5.72,4.23,5.72m-9.53-1.14c-1.53,0-2.54-.85-2.54-2.15,0-1.12.57-1.78,2-2.28l1,.33c1.36.44,1.94,1.06,1.94,2.06,0,1.28-.91,2-2.46,2m-.08-9.23c1.34,0,2.13.66,2.13,1.78s-.45,1.55-1.78,2l-.55-.17c-1.31-.39-1.86-1-1.86-1.91s.79-1.75,2.06-1.75m1.66,4.24a2.48,2.48,0,0,0,1.89-2.52c0-1.7-1.37-2.79-3.5-2.79s-3.53,1.13-3.53,2.82a2.64,2.64,0,0,0,1.81,2.62A2.83,2.83,0,0,0,67.85,401c0,1.86,1.58,3.08,4,3.08s3.88-1.27,3.88-3.18c0-1.46-.67-2.35-2.3-2.95"/><path class="cls-3" d="M91.38,375.59c-1.89,0-2.8-1.75-2.8-4.53s.91-4.54,2.8-4.54,2.81,1.75,2.81,4.54-.91,4.53-2.81,4.53m0,1.18c2.78,0,4.23-2.21,4.23-5.71s-1.45-5.72-4.23-5.72-4.22,2.2-4.22,5.72,1.45,5.71,4.22,5.71m-10-1.18c-1.89,0-2.81-1.75-2.81-4.53s.92-4.54,2.81-4.54,2.81,1.75,2.81,4.54-.92,4.53-2.81,4.53m0,1.18c2.78,0,4.23-2.21,4.23-5.71s-1.45-5.72-4.23-5.72-4.23,2.2-4.23,5.72,1.45,5.71,4.23,5.71m-9.65-5.5a2.38,2.38,0,0,1,0-4.75c1.75,0,2.35,1.37,2.49,2.68a2.6,2.6,0,0,1-2.47,2.07m0-5.93A3.46,3.46,0,0,0,68,368.93a3.27,3.27,0,0,0,3.51,3.52,2.89,2.89,0,0,0,2.65-1.4c0,2.74-.69,4.54-2.46,4.54-1.35,0-1.94-.8-2.16-2l-1.42.31a3.28,3.28,0,0,0,3.57,2.87c2.81,0,3.89-2.58,3.89-5.93,0-3.61-1.26-5.5-3.92-5.5"/><path class="cls-3" d="M91.38,348.31c-1.89,0-2.8-1.75-2.8-4.53s.91-4.54,2.8-4.54,2.81,1.75,2.81,4.54-.91,4.53-2.81,4.53m0,1.18c2.78,0,4.23-2.21,4.23-5.71s-1.45-5.73-4.23-5.73-4.22,2.21-4.22,5.73,1.45,5.71,4.22,5.71m-10-1.18c-1.89,0-2.81-1.75-2.81-4.53s.92-4.54,2.81-4.54,2.81,1.75,2.81,4.54-.92,4.53-2.81,4.53m0,1.18c2.78,0,4.23-2.21,4.23-5.71s-1.45-5.73-4.23-5.73-4.23,2.21-4.23,5.73,1.45,5.71,4.23,5.71m-10-1.18c-1.9,0-2.81-1.75-2.81-4.53s.91-4.54,2.81-4.54,2.81,1.75,2.81,4.54-.92,4.53-2.81,4.53m0,1.18c2.77,0,4.23-2.21,4.23-5.71s-1.46-5.73-4.23-5.73-4.23,2.21-4.23,5.73,1.45,5.71,4.23,5.71M63,349.25h1.42v-11h-1.2A2.21,2.21,0,0,1,61,340.07h-.34v1.28h.57a2.44,2.44,0,0,0,1.78-.69Z"/><path class="cls-3" d="M91.38,321c-1.89,0-2.8-1.75-2.8-4.53s.91-4.54,2.8-4.54,2.81,1.75,2.81,4.54S93.28,321,91.38,321m0,1.18c2.78,0,4.23-2.21,4.23-5.71s-1.45-5.73-4.23-5.73-4.22,2.21-4.22,5.73,1.45,5.71,4.22,5.71m-10-1.18c-1.89,0-2.81-1.75-2.81-4.53s.92-4.54,2.81-4.54,2.81,1.75,2.81,4.54S83.24,321,81.35,321m0,1.18c2.78,0,4.23-2.21,4.23-5.71s-1.45-5.73-4.23-5.73-4.23,2.21-4.23,5.73,1.45,5.71,4.23,5.71M73,322h1.42V311h-1.2A2.2,2.2,0,0,1,71,312.79h-.35v1.28h.57a2.41,2.41,0,0,0,1.78-.7Zm-6.21,0h1.42V311H67a2.21,2.21,0,0,1-2.23,1.78h-.34v1.28H65a2.45,2.45,0,0,0,1.79-.7Z"/><path class="cls-3" d="M91.38,293.74c-1.89,0-2.8-1.75-2.8-4.52s.91-4.55,2.8-4.55,2.81,1.75,2.81,4.55-.91,4.52-2.81,4.52m0,1.19c2.78,0,4.23-2.21,4.23-5.71s-1.45-5.73-4.23-5.73-4.22,2.21-4.22,5.73,1.45,5.71,4.22,5.71m-10-1.19c-1.89,0-2.81-1.75-2.81-4.52s.92-4.55,2.81-4.55,2.81,1.75,2.81,4.55-.92,4.52-2.81,4.52m0,1.19c2.78,0,4.23-2.21,4.23-5.71s-1.45-5.73-4.23-5.73-4.23,2.21-4.23,5.73,1.45,5.71,4.23,5.71m-12.52-.24H76v-1.28H70.73a21.82,21.82,0,0,0,2.7-2.16c1.69-1.56,2.46-2.9,2.46-4.45a3.06,3.06,0,0,0-3.4-3.31c-2.21,0-3.54,1.25-3.54,3.19a3.53,3.53,0,0,0,.11.88l1.42.14a5.08,5.08,0,0,1-.12-1,2,2,0,1,1,4,.13c0,1.31-.47,2.22-1.86,3.56a42.2,42.2,0,0,1-3.72,3.14Zm-3.87,0h1.42v-11h-1.2A2.21,2.21,0,0,1,63,285.51h-.35v1.28h.57a2.41,2.41,0,0,0,1.78-.7Z"/><path class="cls-3" d="M91.38,266.46c-1.89,0-2.8-1.75-2.8-4.53s.91-4.54,2.8-4.54,2.81,1.75,2.81,4.54-.91,4.53-2.81,4.53m0,1.18c2.78,0,4.23-2.2,4.23-5.71s-1.45-5.72-4.23-5.72-4.22,2.21-4.22,5.72,1.45,5.71,4.22,5.71m-10-1.18c-1.89,0-2.81-1.75-2.81-4.53s.92-4.54,2.81-4.54,2.81,1.75,2.81,4.54-.92,4.53-2.81,4.53m0,1.18c2.78,0,4.23-2.2,4.23-5.71s-1.45-5.72-4.23-5.72-4.23,2.21-4.23,5.72,1.45,5.71,4.23,5.71m-9.53,0c2.29,0,3.73-1.24,3.73-3.34a2.53,2.53,0,0,0-2.37-2.7,2.5,2.5,0,0,0,2-2.52c0-1.78-1.25-2.87-3.39-2.87s-3.63,1.29-3.63,3.41l1.32.28c0-1.63.81-2.51,2.23-2.51s2,.68,2,1.85-.68,1.89-2.15,1.89h-.55v1.17h.61c1.65,0,2.47.72,2.47,2s-.78,2.13-2.26,2.13a2.32,2.32,0,0,1-2.54-2.35l-1.39.17c.07,2.06,1.6,3.36,3.88,3.36m-7.74-.23H65.5v-11H64.3a2.21,2.21,0,0,1-2.23,1.79h-.34v1.27h.56a2.43,2.43,0,0,0,1.79-.69Z"/><path class="cls-3" d="M91.38,239.18c-1.89,0-2.8-1.75-2.8-4.53s.91-4.54,2.8-4.54,2.81,1.75,2.81,4.54-.91,4.53-2.81,4.53m0,1.18c2.78,0,4.23-2.21,4.23-5.71s-1.45-5.72-4.23-5.72-4.22,2.2-4.22,5.72,1.45,5.71,4.22,5.71m-10-1.18c-1.89,0-2.81-1.75-2.81-4.53s.92-4.54,2.81-4.54,2.81,1.75,2.81,4.54-.92,4.53-2.81,4.53m0,1.18c2.78,0,4.23-2.21,4.23-5.71s-1.45-5.72-4.23-5.72-4.23,2.2-4.23,5.72,1.45,5.71,4.23,5.71M73,232.22v4H69.25a12.45,12.45,0,0,0,1-1.44L72.17,232a7.19,7.19,0,0,0,.79-1.44h0c0,.57,0,.79,0,1.67m3.14,5.13v-1.1H74.3v-7.09H72.72l-4.9,7.23v1H73v2.78H74.3v-2.78Zm-11.75,2.78h1.42v-11h-1.2a2.21,2.21,0,0,1-2.23,1.78H62v1.28h.57a2.44,2.44,0,0,0,1.79-.69Z"/><path class="cls-3" d="M91.38,211.9c-1.89,0-2.8-1.75-2.8-4.53s.91-4.54,2.8-4.54,2.81,1.75,2.81,4.54-.91,4.53-2.81,4.53m0,1.18c2.78,0,4.23-2.21,4.23-5.71s-1.45-5.73-4.23-5.73-4.22,2.21-4.22,5.73,1.45,5.71,4.22,5.71m-10-1.18c-1.89,0-2.81-1.75-2.81-4.53s.92-4.54,2.81-4.54,2.81,1.75,2.81,4.54-.92,4.53-2.81,4.53m0,1.18c2.78,0,4.23-2.21,4.23-5.71s-1.45-5.73-4.23-5.73-4.23,2.21-4.23,5.73,1.45,5.71,4.23,5.71m-9.53,0a3.62,3.62,0,0,0,3.8-3.88c0-2.37-1.26-3.83-3.34-3.83a2.76,2.76,0,0,0-2.59,1.46l.41-3.72h5v-1.23H69l-.65,6.36,1.36.14a2.16,2.16,0,0,1,2.19-1.83c1.52,0,2.28,1.09,2.28,2.73s-.86,2.59-2.31,2.59A2.14,2.14,0,0,1,69.68,210l-1.47.17a3.41,3.41,0,0,0,3.61,2.92m-7.71-.24h1.42v-11h-1.2a2.21,2.21,0,0,1-2.22,1.78h-.35v1.28h.57a2.44,2.44,0,0,0,1.78-.69Z"/><path class="cls-3" d="M91.38,185.67c-1.89,0-2.8-1.75-2.8-4.52s.91-4.55,2.8-4.55,2.81,1.75,2.81,4.55-.91,4.52-2.81,4.52m0,1.19c2.78,0,4.23-2.21,4.23-5.71s-1.45-5.73-4.23-5.73-4.22,2.21-4.22,5.73,1.45,5.71,4.22,5.71m-10-1.19c-1.89,0-2.81-1.75-2.81-4.52s.92-4.55,2.81-4.55,2.81,1.75,2.81,4.55-.92,4.52-2.81,4.52m0,1.19c2.78,0,4.23-2.21,4.23-5.71s-1.45-5.73-4.23-5.73-4.23,2.21-4.23,5.73,1.45,5.71,4.23,5.71m-9.24-1.19c-1.39,0-2.37-1.15-2.53-3A2.57,2.57,0,0,1,72,180.48c1.38,0,2.24,1,2.24,2.57s-.85,2.62-2.17,2.62m.2-6.37a2.94,2.94,0,0,0-2.77,1.59c.06-2.84,1-4.29,2.68-4.29,1,0,1.69.6,1.94,1.85l1.42-.32a3.12,3.12,0,0,0-3.35-2.71c-2.62,0-4.08,2.13-4.08,6,0,3.62,1.34,5.48,3.94,5.48A3.53,3.53,0,0,0,75.7,183c0-2.27-1.34-3.74-3.39-3.74m-8.19,7.32h1.42v-11h-1.2a2.19,2.19,0,0,1-2.22,1.78h-.35v1.28h.57a2.41,2.41,0,0,0,1.78-.7Z"/><path class="cls-3" d="M91.38,158.39c-1.89,0-2.8-1.75-2.8-4.53s.91-4.54,2.8-4.54,2.81,1.75,2.81,4.54-.91,4.53-2.81,4.53m0,1.18c2.78,0,4.23-2.2,4.23-5.71s-1.45-5.72-4.23-5.72-4.22,2.21-4.22,5.72,1.45,5.71,4.22,5.71m-10-1.18c-1.89,0-2.81-1.75-2.81-4.53s.92-4.54,2.81-4.54,2.81,1.75,2.81,4.54-.92,4.53-2.81,4.53m0,1.18c2.78,0,4.23-2.2,4.23-5.71s-1.45-5.72-4.23-5.72-4.23,2.21-4.23,5.72,1.45,5.71,4.23,5.71m-10.06-.23h1.56v-.27a14.48,14.48,0,0,1,3.88-9.59v-1.11h-7.1v1.31h5.49c-2.43,3-3.83,6.23-3.83,9.5Zm-5.37,0h1.42v-11h-1.2a2.19,2.19,0,0,1-2.22,1.79h-.35v1.27h.57a2.4,2.4,0,0,0,1.78-.69Z"/><path class="cls-3" d="M91.38,131.11c-1.89,0-2.8-1.75-2.8-4.53s.91-4.54,2.8-4.54,2.81,1.75,2.81,4.54-.91,4.53-2.81,4.53m0,1.18c2.78,0,4.23-2.21,4.23-5.71s-1.45-5.73-4.23-5.73-4.22,2.21-4.22,5.73,1.45,5.71,4.22,5.71m-10-1.18c-1.89,0-2.81-1.75-2.81-4.53s.92-4.54,2.81-4.54,2.81,1.75,2.81,4.54-.92,4.53-2.81,4.53m0,1.18c2.78,0,4.23-2.21,4.23-5.71s-1.45-5.73-4.23-5.73-4.23,2.21-4.23,5.73,1.45,5.71,4.23,5.71m-9.53-1.13c-1.53,0-2.54-.86-2.54-2.15,0-1.12.57-1.78,2-2.29l1,.33c1.36.45,1.94,1.06,1.94,2.07,0,1.28-.91,2-2.46,2m-.08-9.23c1.34,0,2.13.66,2.13,1.78s-.45,1.55-1.78,2.05l-.55-.17c-1.31-.4-1.86-1-1.86-1.91s.79-1.75,2.06-1.75m1.66,4.24a2.48,2.48,0,0,0,1.89-2.52c0-1.71-1.37-2.8-3.5-2.8s-3.53,1.14-3.53,2.83a2.64,2.64,0,0,0,1.81,2.62,2.83,2.83,0,0,0-2.22,2.92c0,1.86,1.58,3.07,4,3.07s3.88-1.26,3.88-3.17c0-1.47-.67-2.35-2.3-3m-9.5,5.89h1.42v-11h-1.2a2.19,2.19,0,0,1-2.22,1.78h-.35v1.28h.57a2.4,2.4,0,0,0,1.78-.69Z"/><path class="cls-3" d="M91.38,103.83c-1.89,0-2.8-1.75-2.8-4.53s.91-4.54,2.8-4.54,2.81,1.75,2.81,4.54-.91,4.53-2.81,4.53m0,1.18c2.78,0,4.23-2.21,4.23-5.71s-1.45-5.73-4.23-5.73-4.22,2.21-4.22,5.73S88.61,105,91.38,105m-10-1.18c-1.89,0-2.81-1.75-2.81-4.53s.92-4.54,2.81-4.54,2.81,1.75,2.81,4.54-.92,4.53-2.81,4.53m0,1.18c2.78,0,4.23-2.21,4.23-5.71s-1.45-5.73-4.23-5.73-4.23,2.21-4.23,5.73S78.57,105,81.35,105M71.7,99.5a2.16,2.16,0,0,1-2.24-2.35,2.18,2.18,0,0,1,2.22-2.39c1.75,0,2.35,1.37,2.49,2.68A2.59,2.59,0,0,1,71.7,99.5m0-5.93A3.46,3.46,0,0,0,68,97.17a3.28,3.28,0,0,0,3.51,3.52,2.91,2.91,0,0,0,2.66-1.41c0,2.75-.7,4.55-2.47,4.55-1.35,0-1.94-.81-2.16-2l-1.42.32A3.29,3.29,0,0,0,71.73,105c2.81,0,3.89-2.59,3.89-5.93,0-3.61-1.26-5.51-3.92-5.51m-7.61,11.2h1.42v-11h-1.2a2.19,2.19,0,0,1-2.22,1.78h-.35v1.28h.57a2.44,2.44,0,0,0,1.78-.69Z"/><path class="cls-3" d="M91.38,76.54c-1.89,0-2.8-1.75-2.8-4.52s.91-4.55,2.8-4.55,2.81,1.75,2.81,4.55-.91,4.52-2.81,4.52m0,1.19c2.78,0,4.23-2.21,4.23-5.71s-1.45-5.73-4.23-5.73S87.16,68.5,87.16,72s1.45,5.71,4.22,5.71m-10-1.19c-1.89,0-2.81-1.75-2.81-4.52s.92-4.55,2.81-4.55,2.81,1.75,2.81,4.55-.92,4.52-2.81,4.52m0,1.19c2.78,0,4.23-2.21,4.23-5.71s-1.45-5.73-4.23-5.73S77.12,68.5,77.12,72s1.45,5.71,4.23,5.71m-10-1.19c-1.89,0-2.81-1.75-2.81-4.52s.92-4.55,2.81-4.55,2.81,1.75,2.81,4.55-.92,4.52-2.81,4.52m0,1.19c2.77,0,4.23-2.21,4.23-5.71s-1.46-5.73-4.23-5.73S67.09,68.5,67.09,72s1.45,5.71,4.23,5.71m-12.53-.24H66V76.21H60.7a22.59,22.59,0,0,0,2.7-2.16c1.69-1.56,2.46-2.9,2.46-4.45a3.06,3.06,0,0,0-3.41-3.31c-2.21,0-3.53,1.25-3.53,3.19a3.48,3.48,0,0,0,.11.88l1.42.14a5.17,5.17,0,0,1-.13-1,2,2,0,1,1,4.06.13c0,1.31-.48,2.22-1.86,3.56a39.12,39.12,0,0,1-3.73,3.14Z"/><path class="cls-3" d="M91.38,512c-1.89,0-2.8-1.75-2.8-4.53s.91-4.54,2.8-4.54,2.81,1.75,2.81,4.54S93.28,512,91.38,512m0,1.18c2.78,0,4.23-2.2,4.23-5.71s-1.45-5.72-4.23-5.72-4.22,2.21-4.22,5.72,1.45,5.71,4.22,5.71m-10-1.18c-1.89,0-2.81-1.75-2.81-4.53s.92-4.54,2.81-4.54,2.81,1.75,2.81,4.54S83.24,512,81.35,512m0,1.18c2.78,0,4.23-2.2,4.23-5.71s-1.45-5.72-4.23-5.72-4.23,2.21-4.23,5.72,1.45,5.71,4.23,5.71M73,505v4H69.25a12.45,12.45,0,0,0,1-1.44l1.88-2.82a7.19,7.19,0,0,0,.79-1.44h0c0,.57,0,.79,0,1.67m3.14,5.13v-1.1H74.3V502H72.72l-4.9,7.23v1H73V513H74.3v-2.78Z"/><path class="cls-3" d="M91.38,539.28c-1.89,0-2.8-1.75-2.8-4.52s.91-4.55,2.8-4.55,2.81,1.75,2.81,4.55-.91,4.52-2.81,4.52m0,1.19c2.78,0,4.23-2.21,4.23-5.71S94.16,529,91.38,529s-4.22,2.21-4.22,5.73,1.45,5.71,4.22,5.71m-10-1.19c-1.89,0-2.81-1.75-2.81-4.52s.92-4.55,2.81-4.55,2.81,1.75,2.81,4.55-.92,4.52-2.81,4.52m0,1.19c2.78,0,4.23-2.21,4.23-5.71S84.13,529,81.35,529s-4.23,2.21-4.23,5.73,1.45,5.71,4.23,5.71m-9.53,0c2.29,0,3.73-1.25,3.73-3.35a2.53,2.53,0,0,0-2.37-2.7,2.5,2.5,0,0,0,2-2.52c0-1.78-1.25-2.87-3.39-2.87s-3.63,1.29-3.63,3.41l1.32.28c0-1.62.81-2.51,2.23-2.51s2,.68,2,1.85S73.07,534,71.6,534h-.55v1.17h.62c1.64,0,2.46.72,2.46,2s-.78,2.13-2.26,2.13a2.31,2.31,0,0,1-2.54-2.35l-1.39.18c.07,2,1.6,3.36,3.88,3.36"/><path class="cls-3" d="M91.38,566.57c-1.89,0-2.8-1.76-2.8-4.53s.91-4.55,2.8-4.55,2.81,1.76,2.81,4.55-.91,4.53-2.81,4.53m0,1.18c2.78,0,4.23-2.21,4.23-5.71s-1.45-5.73-4.23-5.73-4.22,2.21-4.22,5.73,1.45,5.71,4.22,5.71m-10-1.18c-1.89,0-2.81-1.76-2.81-4.53s.92-4.55,2.81-4.55,2.81,1.76,2.81,4.55-.92,4.53-2.81,4.53m0,1.18c2.78,0,4.23-2.21,4.23-5.71s-1.45-5.73-4.23-5.73-4.23,2.21-4.23,5.73,1.45,5.71,4.23,5.71m-12.52-.24H76v-1.28H70.73a21.82,21.82,0,0,0,2.7-2.16c1.69-1.56,2.46-2.9,2.46-4.45a3.06,3.06,0,0,0-3.4-3.31c-2.21,0-3.54,1.25-3.54,3.19a3.48,3.48,0,0,0,.11.88l1.42.14a5.08,5.08,0,0,1-.12-1,2,2,0,1,1,4,.13c0,1.31-.47,2.22-1.86,3.56a40.52,40.52,0,0,1-3.72,3.14Z"/><path class="cls-3" d="M91.38,593.85c-1.89,0-2.8-1.75-2.8-4.53s.91-4.54,2.8-4.54,2.81,1.75,2.81,4.54-.91,4.53-2.81,4.53m0,1.18c2.78,0,4.23-2.21,4.23-5.71s-1.45-5.73-4.23-5.73-4.22,2.21-4.22,5.73S88.61,595,91.38,595m-10-1.18c-1.89,0-2.81-1.75-2.81-4.53s.92-4.54,2.81-4.54,2.81,1.75,2.81,4.54-.92,4.53-2.81,4.53m0,1.18c2.78,0,4.23-2.21,4.23-5.71s-1.45-5.73-4.23-5.73-4.23,2.21-4.23,5.73S78.57,595,81.35,595M73,594.79h1.42v-11h-1.2A2.2,2.2,0,0,1,71,585.61h-.35v1.28h.57A2.44,2.44,0,0,0,73,586.2Z"/><path class="cls-3" d="M91.38,621.13c-1.89,0-2.8-1.75-2.8-4.53s.91-4.54,2.8-4.54,2.81,1.75,2.81,4.54-.91,4.53-2.81,4.53m0,1.18c2.78,0,4.23-2.21,4.23-5.71s-1.45-5.72-4.23-5.72-4.22,2.2-4.22,5.72,1.45,5.71,4.22,5.71"/><path class="cls-3" d="M154.31,640.36h7v-1.24h-5.12a21.12,21.12,0,0,0,2.61-2.09c1.64-1.52,2.39-2.82,2.39-4.32a3,3,0,0,0-3.3-3.21c-2.15,0-3.43,1.21-3.43,3.09a3.79,3.79,0,0,0,.1.86l1.38.13a5.65,5.65,0,0,1-.12-1,2,2,0,1,1,3.93.12c0,1.27-.46,2.16-1.8,3.46a38.55,38.55,0,0,1-3.62,3Zm-5.19-.91c-1.83,0-2.72-1.7-2.72-4.4s.89-4.4,2.72-4.4,2.73,1.69,2.73,4.4-.89,4.4-2.73,4.4m0,1.14c2.7,0,4.11-2.14,4.11-5.54s-1.41-5.55-4.11-5.55-4.1,2.14-4.1,5.55,1.41,5.54,4.1,5.54m-9.63-1.14c-1.83,0-2.72-1.7-2.72-4.4s.89-4.4,2.72-4.4,2.73,1.69,2.73,4.4-.89,4.4-2.73,4.4m0,1.14c2.7,0,4.1-2.14,4.1-5.54s-1.4-5.55-4.1-5.55-4.1,2.14-4.1,5.55,1.41,5.54,4.1,5.54m-12.29-.23h7v-1.24h-5.13a21.12,21.12,0,0,0,2.61-2.09c1.64-1.52,2.39-2.82,2.39-4.32a3,3,0,0,0-3.3-3.21c-2.15,0-3.43,1.21-3.43,3.09a3.33,3.33,0,0,0,.11.86l1.37.13a5.65,5.65,0,0,1-.12-1,2,2,0,1,1,3.93.12c0,1.27-.46,2.16-1.8,3.46a38.64,38.64,0,0,1-3.61,3Z"/><path class="cls-3" d="M218,640.59c2.21,0,3.61-1.21,3.61-3.24a2.44,2.44,0,0,0-2.3-2.62,2.41,2.41,0,0,0,1.93-2.45c0-1.73-1.21-2.78-3.29-2.78s-3.52,1.25-3.52,3.3l1.29.28c0-1.58.78-2.43,2.15-2.43s2,.65,2,1.79-.66,1.83-2.08,1.83h-.53v1.14h.59c1.59,0,2.39.7,2.39,2s-.75,2.07-2.19,2.07a2.24,2.24,0,0,1-2.46-2.28l-1.35.16c.06,2,1.55,3.26,3.77,3.26m-9-1.14c-1.84,0-2.73-1.7-2.73-4.4s.89-4.4,2.73-4.4,2.72,1.69,2.72,4.4-.89,4.4-2.72,4.4m0,1.14c2.69,0,4.1-2.14,4.1-5.54s-1.41-5.55-4.1-5.55-4.1,2.14-4.1,5.55,1.4,5.54,4.1,5.54m-9.63-1.14c-1.84,0-2.73-1.7-2.73-4.4s.89-4.4,2.73-4.4,2.72,1.69,2.72,4.4-.89,4.4-2.72,4.4m0,1.14c2.69,0,4.1-2.14,4.1-5.54s-1.41-5.55-4.1-5.55-4.1,2.14-4.1,5.55,1.4,5.54,4.1,5.54m-12.3-.23h7v-1.24H189a22,22,0,0,0,2.62-2.09c1.64-1.52,2.39-2.82,2.39-4.32a3,3,0,0,0-3.31-3.21c-2.14,0-3.43,1.21-3.43,3.09a3.33,3.33,0,0,0,.11.86l1.38.13a4.91,4.91,0,0,1-.13-1,2,2,0,1,1,3.94.12c0,1.27-.46,2.16-1.81,3.46a38.64,38.64,0,0,1-3.61,3Z"/><path class="cls-3" d="M279.5,632.7v3.9h-3.6a13.43,13.43,0,0,0,1-1.39l1.83-2.74a7,7,0,0,0,.76-1.4h0c0,.56,0,.77,0,1.63m3.05,5V636.6H280.8v-6.87h-1.53l-4.76,7v.93h5v2.69h1.3v-2.69Zm-13.15,1.78c-1.84,0-2.72-1.7-2.72-4.4s.88-4.4,2.72-4.4,2.73,1.69,2.73,4.4-.89,4.4-2.73,4.4m0,1.14c2.7,0,4.1-2.14,4.1-5.54s-1.4-5.55-4.1-5.55-4.1,2.14-4.1,5.55,1.41,5.54,4.1,5.54m-9.63-1.14c-1.84,0-2.72-1.7-2.72-4.4s.88-4.4,2.72-4.4,2.73,1.69,2.73,4.4-.89,4.4-2.73,4.4m0,1.14c2.69,0,4.1-2.14,4.1-5.54s-1.41-5.55-4.1-5.55-4.1,2.14-4.1,5.55,1.41,5.54,4.1,5.54m-12.3-.23h7v-1.24h-5.12a21.12,21.12,0,0,0,2.61-2.09c1.64-1.52,2.39-2.82,2.39-4.32A3,3,0,0,0,251,629.5c-2.14,0-3.42,1.21-3.42,3.09a3.79,3.79,0,0,0,.1.86l1.38.13a4.81,4.81,0,0,1-.12-1,2,2,0,1,1,3.93.12c0,1.27-.46,2.16-1.8,3.46a38.55,38.55,0,0,1-3.62,3Z"/><path class="cls-3" d="M339.26,640.59a3.51,3.51,0,0,0,3.69-3.76c0-2.3-1.23-3.72-3.25-3.72a2.67,2.67,0,0,0-2.51,1.42l.4-3.61h4.84v-1.19h-5.88l-.63,6.17,1.32.13a2.09,2.09,0,0,1,2.12-1.77c1.47,0,2.21,1,2.21,2.65s-.83,2.51-2.24,2.51a2.08,2.08,0,0,1-2.15-1.83l-1.43.17a3.32,3.32,0,0,0,3.51,2.83m-9-1.14c-1.84,0-2.72-1.7-2.72-4.4s.88-4.4,2.72-4.4,2.72,1.69,2.72,4.4-.88,4.4-2.72,4.4m0,1.14c2.69,0,4.1-2.14,4.1-5.54s-1.41-5.55-4.1-5.55-4.1,2.14-4.1,5.55,1.41,5.54,4.1,5.54m-9.63-1.14c-1.84,0-2.72-1.7-2.72-4.4s.88-4.4,2.72-4.4,2.72,1.69,2.72,4.4-.88,4.4-2.72,4.4m0,1.14c2.69,0,4.1-2.14,4.1-5.54s-1.41-5.55-4.1-5.55-4.1,2.14-4.1,5.55,1.41,5.54,4.1,5.54m-12.3-.23h7v-1.24h-5.13a20.53,20.53,0,0,0,2.62-2.09c1.64-1.52,2.39-2.82,2.39-4.32a3,3,0,0,0-3.31-3.21c-2.14,0-3.42,1.21-3.42,3.09a3.79,3.79,0,0,0,.1.86l1.38.13a4.81,4.81,0,0,1-.12-1,2,2,0,1,1,3.93.12c0,1.27-.46,2.16-1.81,3.46a37.38,37.38,0,0,1-3.61,3Z"/><path class="cls-3" d="M400,639.45c-1.34,0-2.29-1.12-2.44-2.88a2.47,2.47,0,0,1,2.38-2.16,2.2,2.2,0,0,1,2.18,2.5c0,1.54-.83,2.54-2.12,2.54m.2-6.19a2.87,2.87,0,0,0-2.69,1.55c.06-2.76.93-4.16,2.6-4.16,1,0,1.64.58,1.88,1.79l1.38-.31a3,3,0,0,0-3.24-2.63c-2.54,0-4,2.06-4,5.78,0,3.51,1.3,5.31,3.83,5.31a3.42,3.42,0,0,0,3.5-3.7c0-2.2-1.3-3.63-3.29-3.63m-9.53,6.19c-1.84,0-2.72-1.7-2.72-4.4s.88-4.4,2.72-4.4,2.72,1.69,2.72,4.4-.88,4.4-2.72,4.4m0,1.14c2.69,0,4.1-2.14,4.1-5.54s-1.41-5.55-4.1-5.55-4.1,2.14-4.1,5.55,1.41,5.54,4.1,5.54m-9.63-1.14c-1.84,0-2.72-1.7-2.72-4.4s.88-4.4,2.72-4.4,2.72,1.69,2.72,4.4-.88,4.4-2.72,4.4m0,1.14c2.69,0,4.1-2.14,4.1-5.54s-1.41-5.55-4.1-5.55-4.1,2.14-4.1,5.55,1.41,5.54,4.1,5.54m-12.3-.23h7v-1.24h-5.13a21.25,21.25,0,0,0,2.62-2.09c1.64-1.52,2.39-2.82,2.39-4.32a3,3,0,0,0-3.31-3.21c-2.14,0-3.43,1.21-3.43,3.09a3.83,3.83,0,0,0,.11.86l1.38.13a4.81,4.81,0,0,1-.12-1,2,2,0,1,1,3.93.12c0,1.27-.46,2.16-1.81,3.46a37.38,37.38,0,0,1-3.61,3Z"/><path class="cls-3" d="M457.69,640.36h1.52v-.26a14.07,14.07,0,0,1,3.76-9.3v-1.07h-6.88V631h5.32c-2.35,2.94-3.72,6-3.72,9.21Zm-6.41-.91c-1.84,0-2.73-1.7-2.73-4.4s.89-4.4,2.73-4.4,2.72,1.69,2.72,4.4-.89,4.4-2.72,4.4m0,1.14c2.69,0,4.1-2.14,4.1-5.54s-1.41-5.55-4.1-5.55-4.1,2.14-4.1,5.55,1.4,5.54,4.1,5.54m-9.63-1.14c-1.84,0-2.73-1.7-2.73-4.4s.89-4.4,2.73-4.4,2.72,1.69,2.72,4.4-.89,4.4-2.72,4.4m0,1.14c2.69,0,4.1-2.14,4.1-5.54s-1.41-5.55-4.1-5.55-4.1,2.14-4.1,5.55,1.4,5.54,4.1,5.54m-12.3-.23h7v-1.24H431.2a22,22,0,0,0,2.62-2.09c1.64-1.52,2.39-2.82,2.39-4.32a3,3,0,0,0-3.31-3.21c-2.14,0-3.43,1.21-3.43,3.09a3.33,3.33,0,0,0,.11.86l1.38.13a4.91,4.91,0,0,1-.13-1,2,2,0,1,1,3.94.12c0,1.27-.46,2.16-1.81,3.46a38.64,38.64,0,0,1-3.61,3Z"/><path class="cls-3" d="M519.92,639.49c-1.48,0-2.46-.82-2.46-2.08,0-1.09.55-1.73,2-2.22l1,.32c1.31.43,1.88,1,1.88,2,0,1.24-.89,2-2.39,2m-.07-9c1.3,0,2.06.64,2.06,1.73s-.44,1.5-1.73,2l-.53-.17c-1.27-.38-1.81-.93-1.81-1.85s.77-1.7,2-1.7m1.6,4.12a2.42,2.42,0,0,0,1.84-2.45c0-1.66-1.33-2.71-3.4-2.71s-3.43,1.1-3.43,2.74a2.56,2.56,0,0,0,1.76,2.54,2.75,2.75,0,0,0-2.15,2.83c0,1.81,1.53,3,3.85,3s3.77-1.22,3.77-3.07c0-1.43-.66-2.28-2.24-2.86m-10.72,4.79c-1.84,0-2.73-1.7-2.73-4.4s.89-4.4,2.73-4.4,2.72,1.69,2.72,4.4-.89,4.4-2.72,4.4m0,1.14c2.69,0,4.1-2.14,4.1-5.54s-1.41-5.55-4.1-5.55-4.1,2.14-4.1,5.55,1.4,5.54,4.1,5.54m-9.63-1.14c-1.84,0-2.73-1.7-2.73-4.4s.89-4.4,2.73-4.4,2.72,1.69,2.72,4.4-.89,4.4-2.72,4.4m0,1.14c2.69,0,4.1-2.14,4.1-5.54s-1.41-5.55-4.1-5.55-4.11,2.14-4.11,5.55,1.41,5.54,4.11,5.54m-12.3-.23h7v-1.24h-5.13a22,22,0,0,0,2.62-2.09c1.64-1.52,2.39-2.82,2.39-4.32a3,3,0,0,0-3.31-3.21c-2.14,0-3.43,1.21-3.43,3.09a3.33,3.33,0,0,0,.11.86l1.38.13a4.91,4.91,0,0,1-.13-1,2,2,0,1,1,3.94.12c0,1.27-.46,2.16-1.81,3.46a38.64,38.64,0,0,1-3.61,3Z"/><path class="cls-3" d="M580.37,635.25A2.09,2.09,0,0,1,578.2,633a2.11,2.11,0,0,1,2.16-2.32c1.69,0,2.28,1.33,2.41,2.6a2.51,2.51,0,0,1-2.4,2m0-5.75a3.35,3.35,0,0,0-3.55,3.49,3.18,3.18,0,0,0,3.41,3.41A2.79,2.79,0,0,0,582.8,635c0,2.66-.67,4.41-2.38,4.41-1.32,0-1.89-.78-2.1-2l-1.38.31a3.19,3.19,0,0,0,3.46,2.78c2.73,0,3.78-2.51,3.78-5.75,0-3.51-1.22-5.34-3.81-5.34m-8.93,10c-1.84,0-2.72-1.7-2.72-4.4s.88-4.4,2.72-4.4,2.72,1.69,2.72,4.4-.88,4.4-2.72,4.4m0,1.14c2.69,0,4.1-2.14,4.1-5.54s-1.41-5.55-4.1-5.55-4.1,2.14-4.1,5.55,1.41,5.54,4.1,5.54m-9.63-1.14c-1.84,0-2.72-1.7-2.72-4.4s.88-4.4,2.72-4.4,2.72,1.69,2.72,4.4-.88,4.4-2.72,4.4m0,1.14c2.69,0,4.1-2.14,4.1-5.54s-1.41-5.55-4.1-5.55-4.1,2.14-4.1,5.55,1.41,5.54,4.1,5.54m-12.3-.23h7v-1.24h-5.13A20.53,20.53,0,0,0,554,637c1.64-1.52,2.39-2.82,2.39-4.32a3,3,0,0,0-3.31-3.21c-2.14,0-3.42,1.21-3.42,3.09a3.79,3.79,0,0,0,.1.86l1.38.13a4.81,4.81,0,0,1-.12-1,2,2,0,1,1,3.93.12c0,1.27-.46,2.16-1.81,3.46a37.38,37.38,0,0,1-3.61,3Z"/><path class="cls-3" d="M637.43,639.45c-1.84,0-2.73-1.7-2.73-4.4s.89-4.4,2.73-4.4,2.72,1.69,2.72,4.4-.89,4.4-2.72,4.4m0,1.14c2.69,0,4.1-2.14,4.1-5.54s-1.41-5.55-4.1-5.55-4.11,2.14-4.11,5.55,1.41,5.54,4.11,5.54m-7.62-.23h1.38V629.73H630a2.15,2.15,0,0,1-2.16,1.73h-.33v1.24h.55a2.34,2.34,0,0,0,1.73-.68Zm-7.51-.91c-1.83,0-2.72-1.7-2.72-4.4s.89-4.4,2.72-4.4,2.73,1.69,2.73,4.4-.89,4.4-2.73,4.4m0,1.14c2.7,0,4.11-2.14,4.11-5.54s-1.41-5.55-4.11-5.55-4.1,2.14-4.1,5.55,1.41,5.54,4.1,5.54M610,640.36h7v-1.24h-5.13a22,22,0,0,0,2.62-2.09c1.63-1.52,2.38-2.82,2.38-4.32a3,3,0,0,0-3.3-3.21c-2.14,0-3.43,1.21-3.43,3.09a3.33,3.33,0,0,0,.11.86l1.37.13a5.65,5.65,0,0,1-.12-1,2,2,0,1,1,3.94.12c0,1.27-.46,2.16-1.81,3.46a38.64,38.64,0,0,1-3.61,3Z"/><path class="cls-3" d="M692.54,640.36h1.38V629.73h-1.16a2.15,2.15,0,0,1-2.16,1.73h-.34v1.24h.56a2.31,2.31,0,0,0,1.72-.68Zm-5.39,0h1.38V629.73h-1.16a2.15,2.15,0,0,1-2.16,1.73h-.34v1.24h.55a2.32,2.32,0,0,0,1.73-.68Zm-7.5-.91c-1.84,0-2.72-1.7-2.72-4.4s.88-4.4,2.72-4.4,2.72,1.69,2.72,4.4-.88,4.4-2.72,4.4m0,1.14c2.69,0,4.1-2.14,4.1-5.54s-1.41-5.55-4.1-5.55-4.1,2.14-4.1,5.55,1.41,5.54,4.1,5.54m-12.3-.23h7v-1.24H669.2a20.53,20.53,0,0,0,2.62-2.09c1.64-1.52,2.39-2.82,2.39-4.32a3,3,0,0,0-3.31-3.21c-2.14,0-3.42,1.21-3.42,3.09a3.79,3.79,0,0,0,.1.86l1.38.13a4.81,4.81,0,0,1-.12-1,2,2,0,1,1,3.93.12c0,1.27-.46,2.16-1.81,3.46a38.64,38.64,0,0,1-3.61,3Z"/><path class="cls-3" d="M742.81,640.36h7v-1.24h-5.12a21.12,21.12,0,0,0,2.61-2.09c1.64-1.52,2.39-2.82,2.39-4.32a3,3,0,0,0-3.3-3.21c-2.15,0-3.43,1.21-3.43,3.09a3.33,3.33,0,0,0,.11.86l1.37.13a5.65,5.65,0,0,1-.12-1,2,2,0,1,1,3.93.12c0,1.27-.46,2.16-1.8,3.46a38.64,38.64,0,0,1-3.61,3Zm-3.26,0h1.38V629.73h-1.17a2.14,2.14,0,0,1-2.15,1.73h-.34v1.24h.55a2.34,2.34,0,0,0,1.73-.68Zm-7.5-.91c-1.84,0-2.73-1.7-2.73-4.4s.89-4.4,2.73-4.4,2.72,1.69,2.72,4.4-.89,4.4-2.72,4.4m0,1.14c2.69,0,4.1-2.14,4.1-5.54s-1.41-5.55-4.1-5.55-4.11,2.14-4.11,5.55,1.41,5.54,4.11,5.54m-12.3-.23h7v-1.24H721.6a22,22,0,0,0,2.62-2.09c1.64-1.52,2.38-2.82,2.38-4.32a3,3,0,0,0-3.3-3.21c-2.14,0-3.43,1.21-3.43,3.09a3.33,3.33,0,0,0,.11.86l1.38.13a4.91,4.91,0,0,1-.13-1,2,2,0,1,1,3.94.12c0,1.27-.46,2.16-1.81,3.46a38.64,38.64,0,0,1-3.61,3Z"/><path class="cls-3" d="M802.43,640.59c2.22,0,3.61-1.21,3.61-3.24a2.59,2.59,0,0,1-.36-5.07c0-1.73-1.21-2.78-3.29-2.78s-3.52,1.25-3.52,3.3l1.28.28c0-1.58.78-2.43,2.16-2.43s2,.65,2,1.79-.66,1.83-2.08,1.83h-.54v1.14h.6c1.59,0,2.39.7,2.39,2s-.75,2.07-2.19,2.07a2.26,2.26,0,0,1-2.47-2.28l-1.34.16c.06,2,1.54,3.26,3.76,3.26m-7-.23h1.38V629.73h-1.16a2.15,2.15,0,0,1-2.16,1.73h-.34v1.24h.55a2.34,2.34,0,0,0,1.73-.68Zm-7.5-.91c-1.84,0-2.73-1.7-2.73-4.4s.89-4.4,2.73-4.4,2.72,1.69,2.72,4.4-.89,4.4-2.72,4.4m0,1.14c2.69,0,4.1-2.14,4.1-5.54s-1.41-5.55-4.1-5.55-4.1,2.14-4.1,5.55,1.4,5.54,4.1,5.54m-12.3-.23h7v-1.24h-5.13a22,22,0,0,0,2.62-2.09c1.64-1.52,2.39-2.82,2.39-4.32a3,3,0,0,0-3.31-3.21c-2.14,0-3.43,1.21-3.43,3.09a3.33,3.33,0,0,0,.11.86l1.38.13a4.81,4.81,0,0,1-.12-1,2,2,0,1,1,3.93.12c0,1.27-.46,2.16-1.81,3.46a38.64,38.64,0,0,1-3.61,3Z"/><path class="cls-3" d="M859.59,632.7v3.9H856a13.43,13.43,0,0,0,1-1.39l1.82-2.74a6.57,6.57,0,0,0,.77-1.4h0c0,.56,0,.77,0,1.63m3,5V636.6h-1.74v-6.87h-1.53l-4.76,7v.93h5v2.69h1.3v-2.69Zm-11,2.69h1.38V629.73h-1.16a2.15,2.15,0,0,1-2.16,1.73h-.34v1.24h.55a2.34,2.34,0,0,0,1.73-.68Zm-7.5-.91c-1.84,0-2.73-1.7-2.73-4.4s.89-4.4,2.73-4.4,2.72,1.69,2.72,4.4-.89,4.4-2.72,4.4m0,1.14c2.69,0,4.1-2.14,4.1-5.54s-1.41-5.55-4.1-5.55-4.1,2.14-4.1,5.55,1.4,5.54,4.1,5.54m-12.3-.23h7v-1.24h-5.13a22,22,0,0,0,2.62-2.09c1.64-1.52,2.39-2.82,2.39-4.32a3,3,0,0,0-3.31-3.21c-2.14,0-3.43,1.21-3.43,3.09a3.33,3.33,0,0,0,.11.86l1.38.13a4.81,4.81,0,0,1-.12-1,2,2,0,1,1,3.93.12c0,1.27-.46,2.16-1.81,3.46a38.64,38.64,0,0,1-3.61,3Z"/><path class="cls-3" d="M915.25,640.59a3.51,3.51,0,0,0,3.69-3.76c0-2.3-1.22-3.72-3.24-3.72a2.66,2.66,0,0,0-2.51,1.42l.39-3.61h4.84v-1.19h-5.88l-.62,6.17,1.31.13a2.1,2.1,0,0,1,2.13-1.77c1.47,0,2.2,1,2.2,2.65s-.82,2.51-2.23,2.51a2.09,2.09,0,0,1-2.16-1.83l-1.42.17a3.3,3.3,0,0,0,3.5,2.83m-7-.23h1.38V629.73h-1.17a2.14,2.14,0,0,1-2.15,1.73H906v1.24h.55a2.34,2.34,0,0,0,1.73-.68Zm-7.5-.91c-1.84,0-2.73-1.7-2.73-4.4s.89-4.4,2.73-4.4,2.72,1.69,2.72,4.4-.89,4.4-2.72,4.4m0,1.14c2.69,0,4.1-2.14,4.1-5.54s-1.41-5.55-4.1-5.55-4.11,2.14-4.11,5.55,1.41,5.54,4.11,5.54m-12.3-.23h7v-1.24h-5.13a22,22,0,0,0,2.62-2.09c1.64-1.52,2.38-2.82,2.38-4.32a3,3,0,0,0-3.3-3.21c-2.14,0-3.43,1.21-3.43,3.09a3.33,3.33,0,0,0,.11.86l1.38.13a4.91,4.91,0,0,1-.13-1,2,2,0,1,1,3.94.12c0,1.27-.46,2.16-1.81,3.46a38.64,38.64,0,0,1-3.61,3Z"/><path class="cls-3" d="M971.91,639.45c-1.34,0-2.29-1.12-2.45-2.88a2.49,2.49,0,0,1,2.39-2.16c1.33,0,2.17,1,2.17,2.5s-.82,2.54-2.11,2.54m.2-6.19a2.87,2.87,0,0,0-2.69,1.55c.06-2.76.93-4.16,2.6-4.16,1,0,1.64.58,1.88,1.79l1.38-.31A3,3,0,0,0,972,629.5c-2.55,0-4,2.06-4,5.78,0,3.51,1.3,5.31,3.83,5.31a3.42,3.42,0,0,0,3.5-3.7c0-2.2-1.3-3.63-3.29-3.63m-7.54,7.1H966V629.73h-1.17a2.15,2.15,0,0,1-2.16,1.73h-.33v1.24h.55a2.34,2.34,0,0,0,1.73-.68Zm-7.51-.91c-1.83,0-2.72-1.7-2.72-4.4s.89-4.4,2.72-4.4,2.73,1.69,2.73,4.4-.89,4.4-2.73,4.4m0,1.14c2.7,0,4.11-2.14,4.11-5.54s-1.41-5.55-4.11-5.55-4.1,2.14-4.1,5.55,1.41,5.54,4.1,5.54m-12.29-.23h7v-1.24h-5.13a22,22,0,0,0,2.62-2.09c1.63-1.52,2.38-2.82,2.38-4.32a3,3,0,0,0-3.3-3.21c-2.14,0-3.43,1.21-3.43,3.09a3.33,3.33,0,0,0,.11.86l1.37.13a5.65,5.65,0,0,1-.12-1,2,2,0,1,1,3.94.12c0,1.27-.46,2.16-1.81,3.46a38.64,38.64,0,0,1-3.61,3Z"/></g><line class="cls-7" x1="144.24" y1="275.93" x2="204.38" y2="349.49"/><g class="cls-6"><path class="cls-3" d="M144.24,279.68a3.75,3.75,0,1,0-3.74-3.75,3.75,3.75,0,0,0,3.74,3.75"/><path class="cls-3" d="M204.38,353.12a3.75,3.75,0,1,0-3.74-3.75,3.75,3.75,0,0,0,3.74,3.75"/></g></g></svg>