<svg id="Layer_1" data-name="Layer 1" xmlns="http://www.w3.org/2000/svg" xmlns:xlink="http://www.w3.org/1999/xlink" viewBox="0 0 640 250"><defs><style>.cls-1,.cls-10,.cls-11,.cls-12,.cls-13,.cls-14,.cls-15,.cls-16,.cls-17,.cls-18,.cls-19,.cls-2,.cls-20,.cls-3,.cls-4,.cls-5,.cls-6,.cls-7,.cls-8,.cls-9{fill:none;stroke-miterlimit:10;stroke-width:1.17px;}.cls-1{stroke:url(#New_Gradient_Swatch_1);}.cls-2{stroke:url(#New_Gradient_Swatch_1-2);}.cls-3{stroke:url(#New_Gradient_Swatch_1-3);}.cls-4{stroke:url(#New_Gradient_Swatch_1-4);}.cls-5{stroke:url(#New_Gradient_Swatch_1-5);}.cls-6{stroke:url(#linear-gradient);}.cls-7{stroke:url(#linear-gradient-2);}.cls-8{stroke:url(#New_Gradient_Swatch_1-6);}.cls-9{stroke:url(#New_Gradient_Swatch_1-7);}.cls-10{stroke:url(#linear-gradient-3);}.cls-11{stroke:url(#linear-gradient-4);}.cls-12{stroke:url(#New_Gradient_Swatch_1-8);}.cls-13{stroke:url(#linear-gradient-5);}.cls-14{stroke:url(#linear-gradient-6);}.cls-15{stroke:url(#linear-gradient-7);}.cls-16{stroke:url(#linear-gradient-8);}.cls-17{stroke:url(#linear-gradient-9);}.cls-18{stroke:url(#New_Gradient_Swatch_1-9);}.cls-19{stroke:url(#linear-gradient-10);}.cls-20{stroke:url(#linear-gradient-11);}</style><linearGradient id="New_Gradient_Swatch_1" x1="362.87" y1="166.68" x2="408.57" y2="166.68" gradientTransform="translate(771.44 333.37) rotate(-180)" gradientUnits="userSpaceOnUse"><stop offset="0" stop-color="#fff23a"/><stop offset="0.04" stop-color="#fee62d"/><stop offset="0.12" stop-color="#fed41a"/><stop offset="0.2" stop-color="#fdc90f"/><stop offset="0.28" stop-color="#fdc60b"/><stop offset="1" stop-color="#71479b"/></linearGradient><linearGradient id="New_Gradient_Swatch_1-2" x1="29.68" y1="167.51" x2="70.26" y2="167.51" gradientTransform="matrix(1, 0, 0, 1, 0, 0)" xlink:href="#New_Gradient_Swatch_1"/><linearGradient id="New_Gradient_Swatch_1-3" x1="485.31" y1="169.4" x2="528.84" y2="169.4" gradientTransform="translate(1014.16 338.79) rotate(-180)" xlink:href="#New_Gradient_Swatch_1"/><linearGradient id="New_Gradient_Swatch_1-4" x1="580.24" y1="168.29" x2="609.91" y2="168.29" gradientTransform="translate(1190.15 336.58) rotate(-180)" xlink:href="#New_Gradient_Swatch_1"/><linearGradient id="New_Gradient_Swatch_1-5" x1="362.87" y1="81.53" x2="408.57" y2="81.53" gradientTransform="translate(771.44 163.07) rotate(-180)" xlink:href="#New_Gradient_Swatch_1"/><linearGradient id="linear-gradient" x1="407.32" y1="123.99" x2="433.67" y2="123.99" gradientUnits="userSpaceOnUse"><stop offset="0.18" stop-color="#f07ea5"/><stop offset="0.78" stop-color="#45a3db"/></linearGradient><linearGradient id="linear-gradient-2" x1="337.51" y1="124.28" x2="364.33" y2="124.28" xlink:href="#linear-gradient"/><linearGradient id="New_Gradient_Swatch_1-6" x1="244.73" y1="93.09" x2="271.48" y2="93.09" gradientTransform="matrix(1, 0, 0, 1, 0, 0)" xlink:href="#New_Gradient_Swatch_1"/><linearGradient id="New_Gradient_Swatch_1-7" x1="245.03" y1="145.92" x2="271.28" y2="145.92" gradientTransform="matrix(1, 0, 0, 1, 0, 0)" xlink:href="#New_Gradient_Swatch_1"/><linearGradient id="linear-gradient-3" x1="243.59" y1="81.59" x2="313.61" y2="81.59" gradientUnits="userSpaceOnUse"><stop offset="0" stop-color="#94ce9b"/><stop offset="0.03" stop-color="#9ace9e"/><stop offset="0.2" stop-color="#bcceac"/><stop offset="0.38" stop-color="#d7ceb8"/><stop offset="0.56" stop-color="#eacec0"/><stop offset="0.74" stop-color="#f5cec4"/><stop offset="0.94" stop-color="#f9cec6"/></linearGradient><linearGradient id="linear-gradient-4" x1="244.18" y1="125.46" x2="299.53" y2="125.46" xlink:href="#linear-gradient-3"/><linearGradient id="New_Gradient_Swatch_1-8" x1="127.37" y1="123.64" x2="215.48" y2="123.64" gradientTransform="matrix(1, 0, 0, 1, 0, 0)" xlink:href="#New_Gradient_Swatch_1"/><linearGradient id="linear-gradient-5" x1="121.91" y1="123.56" x2="148.25" y2="123.56" xlink:href="#linear-gradient"/><linearGradient id="linear-gradient-6" x1="191.65" y1="123.94" x2="215.7" y2="123.94" xlink:href="#linear-gradient"/><linearGradient id="linear-gradient-7" x1="69.09" y1="124.22" x2="95.44" y2="124.22" xlink:href="#linear-gradient-3"/><linearGradient id="linear-gradient-8" x1="4.5" y1="124.22" x2="30.85" y2="124.22" xlink:href="#linear-gradient-3"/><linearGradient id="linear-gradient-9" x1="460.14" y1="125.78" x2="486.48" y2="125.78" xlink:href="#linear-gradient-3"/><linearGradient id="New_Gradient_Swatch_1-9" x1="580.24" y1="82.95" x2="610.37" y2="82.95" gradientTransform="translate(1190.61 165.89) rotate(-180)" xlink:href="#New_Gradient_Swatch_1"/><linearGradient id="linear-gradient-10" x1="608.68" y1="125.54" x2="635.5" y2="125.54" xlink:href="#linear-gradient"/><linearGradient id="linear-gradient-11" x1="555.32" y1="125.8" x2="581.66" y2="125.8" xlink:href="#linear-gradient"/></defs><title>Artboard 1</title><rect class="cls-1" x="363.45" y="155.36" width="44.53" height="22.65" transform="translate(771.44 333.37) rotate(180)"/><rect class="cls-2" x="30.26" y="157.01" width="39.42" height="21"/><rect class="cls-3" x="485.9" y="158.7" width="42.36" height="21.39" transform="translate(1014.16 338.79) rotate(180)"/><rect class="cls-4" x="580.82" y="158.93" width="28.5" height="18.71" transform="translate(1190.15 336.58) rotate(180)"/><rect class="cls-5" x="363.45" y="69.99" width="44.53" height="23.09" transform="translate(771.44 163.07) rotate(180)"/><polygon class="cls-6" points="433.08 90.16 407.99 69.99 407.9 90.56 407.9 158.11 407.9 178.01 433.08 158.51 432.94 124.33 433.08 90.16"/><polygon class="cls-7" points="338.46 158.57 363.74 177.95 363.63 158.06 363.28 90.51 363.17 70.61 338.1 90.21 338.42 124.39 338.46 158.57"/><path class="cls-8" d="M245.6,114.11h25.29v-42a.07.07,0,0,0-.12-.06L260,80.19,245.31,91.1Z"/><polygon class="cls-9" points="245.9 178.01 270.69 178.01 270.69 114.11 245.62 123.95 245.9 178.01"/><polygon class="cls-10" points="312.73 72.08 313.02 91.1 245.31 91.1 270.13 72.08 312.73 72.08"/><polygon class="cls-11" points="298.94 136.55 298.94 114.11 245.31 114.11 261.49 136.81 298.94 136.55"/><path class="cls-12" d="M147.67,69.89l67.06,96.61a.93.93,0,0,1-.37,1.37l-21.31,9.68L128.14,88.3Z"/><polygon class="cls-13" points="122.77 178.01 147.67 178.01 147.67 69.89 122.49 93.99 122.77 178.01"/><polygon class="cls-14" points="214.86 178.01 192.23 178.01 192.23 69.89 215.12 70.48 214.86 178.01"/><polygon class="cls-15" points="94.57 69.65 69.68 69.65 69.68 178.01 94.85 153.85 94.57 69.65"/><polygon class="cls-16" points="5.37 69.65 30.26 69.65 30.26 178.01 5.08 153.85 5.37 69.65"/><polygon class="cls-17" points="461 70.67 485.9 70.67 485.9 180.09 460.72 155.7 461 70.67"/><rect class="cls-18" x="580.82" y="73.59" width="28.96" height="18.71" transform="translate(1190.61 165.89) rotate(180)"/><polygon class="cls-19" points="634.55 158.53 609.27 177.46 609.38 158.03 609.74 92.06 609.78 73.59 634.91 91.77 634.59 125.15 634.55 158.53"/><polygon class="cls-20" points="580.8 73.59 555.9 73.59 555.9 178.01 581.08 178.01 580.8 73.59"/></svg>