<svg id="Layer_2" data-name="Layer 2" xmlns="http://www.w3.org/2000/svg" xmlns:xlink="http://www.w3.org/1999/xlink" viewBox="0 0 1045 202.49"><defs><style>.cls-1,.cls-10,.cls-11,.cls-12,.cls-13,.cls-14,.cls-15,.cls-16,.cls-17,.cls-18,.cls-19,.cls-2,.cls-20,.cls-21,.cls-22,.cls-23,.cls-24,.cls-25,.cls-26,.cls-27,.cls-28,.cls-29,.cls-3,.cls-30,.cls-31,.cls-32,.cls-33,.cls-34,.cls-35,.cls-36,.cls-37,.cls-38,.cls-39,.cls-4,.cls-40,.cls-41,.cls-42,.cls-43,.cls-44,.cls-45,.cls-46,.cls-47,.cls-48,.cls-49,.cls-5,.cls-50,.cls-51,.cls-52,.cls-53,.cls-54,.cls-55,.cls-56,.cls-57,.cls-58,.cls-59,.cls-6,.cls-60,.cls-61,.cls-62,.cls-63,.cls-64,.cls-65,.cls-66,.cls-67,.cls-68,.cls-69,.cls-7,.cls-70,.cls-71,.cls-72,.cls-73,.cls-74,.cls-75,.cls-76,.cls-77,.cls-78,.cls-79,.cls-8,.cls-80,.cls-81,.cls-82,.cls-83,.cls-84,.cls-85,.cls-86,.cls-87,.cls-88,.cls-89,.cls-9,.cls-90,.cls-91,.cls-92,.cls-93,.cls-94{fill:none;stroke-miterlimit:10;stroke-width:0.88px;}.cls-1{stroke:url(#New_Gradient_Swatch_2);}.cls-2{stroke:url(#New_Gradient_Swatch_2-2);}.cls-3{stroke:url(#linear-gradient);}.cls-4{stroke:url(#linear-gradient-2);}.cls-5{stroke:url(#New_Gradient_Swatch_2-3);}.cls-6{stroke:url(#New_Gradient_Swatch_2-4);}.cls-7{stroke:url(#linear-gradient-3);}.cls-8{stroke:url(#linear-gradient-4);}.cls-9{stroke:url(#linear-gradient-5);}.cls-10{stroke:url(#New_Gradient_Swatch_2-5);}.cls-11{stroke:url(#linear-gradient-6);}.cls-12{stroke:url(#New_Gradient_Swatch_2-6);}.cls-13{stroke:url(#linear-gradient-7);}.cls-14{stroke:url(#New_Gradient_Swatch_2-7);}.cls-15{stroke:url(#linear-gradient-8);}.cls-16{stroke:url(#linear-gradient-9);}.cls-17{stroke:url(#linear-gradient-10);}.cls-18{stroke:url(#New_Gradient_Swatch_2-8);}.cls-19{stroke:url(#New_Gradient_Swatch_2-9);}.cls-20{stroke:url(#linear-gradient-11);}.cls-21{stroke:url(#linear-gradient-12);}.cls-22{stroke:url(#New_Gradient_Swatch_2-10);}.cls-23{stroke:url(#New_Gradient_Swatch_2-11);}.cls-24{stroke:url(#linear-gradient-13);}.cls-25{stroke:url(#linear-gradient-14);}.cls-26{stroke:url(#linear-gradient-15);}.cls-27{stroke:url(#linear-gradient-16);}.cls-28{stroke:url(#linear-gradient-17);}.cls-29{stroke:url(#New_Gradient_Swatch_2-12);}.cls-30{stroke:url(#linear-gradient-18);}.cls-31{stroke:url(#New_Gradient_Swatch_2-13);}.cls-32{stroke:url(#linear-gradient-19);}.cls-33{stroke:url(#linear-gradient-20);}.cls-34{stroke:url(#New_Gradient_Swatch_2-14);}.cls-35{stroke:url(#linear-gradient-21);}.cls-36{stroke:url(#New_Gradient_Swatch_2-15);}.cls-37{stroke:url(#linear-gradient-22);}.cls-38{stroke:url(#linear-gradient-23);}.cls-39{stroke:url(#linear-gradient-24);}.cls-40{stroke:url(#New_Gradient_Swatch_2-16);}.cls-41{stroke:url(#New_Gradient_Swatch_2-17);}.cls-42{stroke:url(#linear-gradient-25);}.cls-43{stroke:url(#linear-gradient-26);}.cls-44{stroke:url(#New_Gradient_Swatch_2-18);}.cls-45{stroke:url(#New_Gradient_Swatch_2-19);}.cls-46{stroke:url(#linear-gradient-27);}.cls-47{stroke:url(#linear-gradient-28);}.cls-48{stroke:url(#New_Gradient_Swatch_2-20);}.cls-49{stroke:url(#linear-gradient-29);}.cls-50{stroke:url(#linear-gradient-30);}.cls-51{stroke:url(#New_Gradient_Swatch_2-21);}.cls-52{stroke:url(#linear-gradient-31);}.cls-53{stroke:url(#linear-gradient-32);}.cls-54{stroke:url(#linear-gradient-33);}.cls-55{stroke:url(#linear-gradient-34);}.cls-56{stroke:url(#linear-gradient-35);}.cls-57{stroke:url(#New_Gradient_Swatch_2-22);}.cls-58{stroke:url(#New_Gradient_Swatch_2-23);}.cls-59{stroke:url(#linear-gradient-36);}.cls-60{stroke:url(#linear-gradient-37);}.cls-61{stroke:url(#New_Gradient_Swatch_2-24);}.cls-62{stroke:url(#New_Gradient_Swatch_2-25);}.cls-63{stroke:url(#linear-gradient-38);}.cls-64{stroke:url(#linear-gradient-39);}.cls-65{stroke:url(#New_Gradient_Swatch_2-26);}.cls-66{stroke:url(#New_Gradient_Swatch_2-27);}.cls-67{stroke:url(#linear-gradient-40);}.cls-68{stroke:url(#linear-gradient-41);}.cls-69{stroke:url(#New_Gradient_Swatch_2-28);}.cls-70{stroke:url(#New_Gradient_Swatch_2-29);}.cls-71{stroke:url(#linear-gradient-42);}.cls-72{stroke:url(#linear-gradient-43);}.cls-73{stroke:url(#linear-gradient-44);}.cls-74{stroke:url(#linear-gradient-45);}.cls-75{stroke:url(#linear-gradient-46);}.cls-76{stroke:url(#New_Gradient_Swatch_2-30);}.cls-77{stroke:url(#linear-gradient-47);}.cls-78{stroke:url(#linear-gradient-48);}.cls-79{stroke:url(#New_Gradient_Swatch_2-31);}.cls-80{stroke:url(#New_Gradient_Swatch_2-32);}.cls-81{stroke:url(#linear-gradient-49);}.cls-82{stroke:url(#linear-gradient-50);}.cls-83{stroke:url(#linear-gradient-51);}.cls-84{stroke:url(#New_Gradient_Swatch_2-33);}.cls-85{stroke:url(#linear-gradient-52);}.cls-86{stroke:url(#New_Gradient_Swatch_2-34);}.cls-87{stroke:url(#New_Gradient_Swatch_2-35);}.cls-88{stroke:url(#New_Gradient_Swatch_2-36);}.cls-89{stroke:url(#linear-gradient-53);}.cls-90{stroke:url(#linear-gradient-54);}.cls-91{stroke:url(#New_Gradient_Swatch_2-37);}.cls-92{stroke:url(#New_Gradient_Swatch_2-38);}.cls-93{stroke:url(#linear-gradient-55);}.cls-94{stroke:url(#linear-gradient-56);}</style><linearGradient id="New_Gradient_Swatch_2" x1="84.06" y1="25.82" x2="142.31" y2="25.82" gradientUnits="userSpaceOnUse"><stop offset="0" stop-color="#f8ed43"/><stop offset="0.04" stop-color="#f9e337"/><stop offset="0.12" stop-color="#fad224"/><stop offset="0.2" stop-color="#fbc819"/><stop offset="0.28" stop-color="#fbc515"/><stop offset="1" stop-color="#70479b"/></linearGradient><linearGradient id="New_Gradient_Swatch_2-2" x1="99.69" y1="56.43" x2="126.24" y2="56.43" xlink:href="#New_Gradient_Swatch_2"/><linearGradient id="linear-gradient" x1="133.79" y1="18.47" x2="133.79" y2="85.88" gradientUnits="userSpaceOnUse"><stop offset="0" stop-color="#92cc9a"/><stop offset="0.02" stop-color="#96cc9c"/><stop offset="0.19" stop-color="#b8ccaa"/><stop offset="0.37" stop-color="#d3ccb6"/><stop offset="0.55" stop-color="#e6ccbe"/><stop offset="0.74" stop-color="#f1ccc2"/><stop offset="0.94" stop-color="#f5ccc4"/></linearGradient><linearGradient id="linear-gradient-2" x1="92.57" y1="18.46" x2="92.57" y2="85.88" xlink:href="#linear-gradient"/><linearGradient id="New_Gradient_Swatch_2-3" x1="203.97" y1="26.4" x2="229.83" y2="26.4" xlink:href="#New_Gradient_Swatch_2"/><linearGradient id="New_Gradient_Swatch_2-4" x1="203.97" y1="78.46" x2="229.83" y2="78.46" xlink:href="#New_Gradient_Swatch_2"/><linearGradient id="linear-gradient-3" x1="236.89" y1="86.3" x2="236.89" y2="18.54" gradientUnits="userSpaceOnUse"><stop offset="0.18" stop-color="#ec7da1"/><stop offset="0.78" stop-color="#47a1d9"/></linearGradient><linearGradient id="linear-gradient-4" x1="197.27" y1="85.8" x2="197.27" y2="19.07" xlink:href="#linear-gradient-3"/><linearGradient id="linear-gradient-5" x1="259.1" y1="18.6" x2="259.1" y2="86.26" xlink:href="#linear-gradient"/><linearGradient id="New_Gradient_Swatch_2-5" x1="294.28" y1="18.42" x2="294.28" y2="86.44" xlink:href="#New_Gradient_Swatch_2"/><linearGradient id="linear-gradient-6" x1="318.65" y1="18.42" x2="318.65" y2="86.44" xlink:href="#linear-gradient-3"/><linearGradient id="New_Gradient_Swatch_2-6" x1="353.81" y1="45.61" x2="353.81" y2="86.37" xlink:href="#New_Gradient_Swatch_2"/><linearGradient id="linear-gradient-7" x1="346.97" y1="77.9" x2="392.15" y2="77.9" xlink:href="#linear-gradient"/><linearGradient id="New_Gradient_Swatch_2-7" x1="353.51" y1="55.12" x2="353.51" y2="18.36" xlink:href="#New_Gradient_Swatch_2"/><linearGradient id="linear-gradient-8" x1="346.37" y1="26.12" x2="392.2" y2="26.12" xlink:href="#linear-gradient"/><linearGradient id="linear-gradient-9" x1="345.93" y1="52.62" x2="388.17" y2="52.62" xlink:href="#linear-gradient"/><linearGradient id="linear-gradient-10" x1="441.62" y1="85.22" x2="441.62" y2="46.25" xlink:href="#linear-gradient-3"/><linearGradient id="New_Gradient_Swatch_2-8" x1="413.05" y1="53.92" x2="434.72" y2="53.92" xlink:href="#New_Gradient_Swatch_2"/><linearGradient id="New_Gradient_Swatch_2-9" x1="413.05" y1="25.22" x2="434.72" y2="25.22" xlink:href="#New_Gradient_Swatch_2"/><linearGradient id="linear-gradient-11" x1="406.46" y1="85.22" x2="406.46" y2="17.41" xlink:href="#linear-gradient-3"/><linearGradient id="linear-gradient-12" x1="441.62" y1="61.39" x2="441.62" y2="17.39" xlink:href="#linear-gradient-3"/><linearGradient id="New_Gradient_Swatch_2-10" x1="502.94" y1="41.23" x2="502.94" y2="18.01" xlink:href="#New_Gradient_Swatch_2"/><linearGradient id="New_Gradient_Swatch_2-11" x1="463.95" y1="62.58" x2="463.95" y2="85.8" xlink:href="#New_Gradient_Swatch_2"/><linearGradient id="linear-gradient-13" x1="463.95" y1="61.04" x2="463.95" y2="18.01" gradientUnits="userSpaceOnUse"><stop offset="0" stop-color="#f8ed43"/><stop offset="0.06" stop-color="#f9e337"/><stop offset="0.17" stop-color="#fad224"/><stop offset="0.29" stop-color="#fbc819"/><stop offset="0.42" stop-color="#fbc515"/><stop offset="1" stop-color="#70479b"/></linearGradient><linearGradient id="linear-gradient-14" x1="511.13" y1="24.52" x2="455.77" y2="24.52" xlink:href="#linear-gradient"/><linearGradient id="linear-gradient-15" x1="455.76" y1="78.61" x2="509.95" y2="78.61" xlink:href="#linear-gradient"/><linearGradient id="linear-gradient-16" x1="496.49" y1="52.58" x2="455.9" y2="52.58" xlink:href="#linear-gradient"/><linearGradient id="linear-gradient-17" x1="502.85" y1="85.8" x2="502.85" y2="44.49" gradientUnits="userSpaceOnUse"><stop offset="0" stop-color="#f8ed43"/><stop offset="0.05" stop-color="#f9e337"/><stop offset="0.15" stop-color="#fad224"/><stop offset="0.26" stop-color="#fbc819"/><stop offset="0.37" stop-color="#fbc515"/><stop offset="1" stop-color="#70479b"/></linearGradient><linearGradient id="New_Gradient_Swatch_2-12" x1="525.81" y1="44.75" x2="525.81" y2="85.51" xlink:href="#New_Gradient_Swatch_2"/><linearGradient id="linear-gradient-18" x1="518.97" y1="77.04" x2="564.15" y2="77.04" xlink:href="#linear-gradient"/><linearGradient id="New_Gradient_Swatch_2-13" x1="525.51" y1="54.26" x2="525.51" y2="17.5" xlink:href="#New_Gradient_Swatch_2"/><linearGradient id="linear-gradient-19" x1="518.37" y1="25.26" x2="564.2" y2="25.26" xlink:href="#linear-gradient"/><linearGradient id="linear-gradient-20" x1="517.93" y1="51.76" x2="560.17" y2="51.76" xlink:href="#linear-gradient"/><linearGradient id="New_Gradient_Swatch_2-14" x1="922.55" y1="45.68" x2="922.55" y2="86.44" xlink:href="#New_Gradient_Swatch_2"/><linearGradient id="linear-gradient-21" x1="915.71" y1="77.97" x2="960.88" y2="77.97" xlink:href="#linear-gradient"/><linearGradient id="New_Gradient_Swatch_2-15" x1="922.25" y1="55.18" x2="922.25" y2="18.42" xlink:href="#New_Gradient_Swatch_2"/><linearGradient id="linear-gradient-22" x1="915.11" y1="26.18" x2="960.94" y2="26.18" xlink:href="#linear-gradient"/><linearGradient id="linear-gradient-23" x1="914.67" y1="52.69" x2="956.91" y2="52.69" xlink:href="#linear-gradient"/><linearGradient id="linear-gradient-24" x1="900.53" y1="83.79" x2="900.53" y2="44.82" xlink:href="#linear-gradient-3"/><linearGradient id="New_Gradient_Swatch_2-16" x1="871.96" y1="52.5" x2="893.63" y2="52.5" xlink:href="#New_Gradient_Swatch_2"/><linearGradient id="New_Gradient_Swatch_2-17" x1="871.95" y1="23.79" x2="893.62" y2="23.79" xlink:href="#New_Gradient_Swatch_2"/><linearGradient id="linear-gradient-25" x1="865.37" y1="83.79" x2="865.37" y2="15.98" xlink:href="#linear-gradient-3"/><linearGradient id="linear-gradient-26" x1="900.53" y1="59.96" x2="900.53" y2="15.96" xlink:href="#linear-gradient-3"/><linearGradient id="New_Gradient_Swatch_2-18" x1="619.49" y1="52.81" x2="619.49" y2="16.05" xlink:href="#New_Gradient_Swatch_2"/><linearGradient id="New_Gradient_Swatch_2-19" x1="619.8" y1="83.94" x2="619.8" y2="43.3" xlink:href="#New_Gradient_Swatch_2"/><linearGradient id="linear-gradient-27" x1="612.35" y1="23.94" x2="657.52" y2="23.94" xlink:href="#linear-gradient"/><linearGradient id="linear-gradient-28" x1="611.57" y1="50" x2="653.81" y2="50" xlink:href="#linear-gradient"/><linearGradient id="New_Gradient_Swatch_2-20" x1="722.59" y1="76.89" x2="664.32" y2="76.89" xlink:href="#New_Gradient_Swatch_2"/><linearGradient id="linear-gradient-29" x1="714.06" y1="83.85" x2="714.06" y2="16.25" xlink:href="#linear-gradient"/><linearGradient id="linear-gradient-30" x1="672.83" y1="84.24" x2="672.83" y2="16.64" xlink:href="#linear-gradient"/><linearGradient id="New_Gradient_Swatch_2-21" x1="851.1" y1="76.89" x2="792.83" y2="76.89" xlink:href="#New_Gradient_Swatch_2"/><linearGradient id="linear-gradient-31" x1="842.57" y1="83.85" x2="842.57" y2="16.25" xlink:href="#linear-gradient"/><linearGradient id="linear-gradient-32" x1="801.35" y1="84.24" x2="801.35" y2="16.64" xlink:href="#linear-gradient"/><linearGradient id="linear-gradient-33" x1="758.24" y1="16.6" x2="758.24" y2="83.08" xlink:href="#linear-gradient-3"/><linearGradient id="linear-gradient-34" x1="729.39" y1="24.43" x2="786.04" y2="24.43" gradientTransform="translate(733.28 782.14) rotate(-90)" xlink:href="#linear-gradient-3"/><linearGradient id="linear-gradient-35" x1="242.46" y1="183.88" x2="242.46" y2="144.91" xlink:href="#linear-gradient-3"/><linearGradient id="New_Gradient_Swatch_2-22" x1="213.89" y1="152.59" x2="235.56" y2="152.59" xlink:href="#New_Gradient_Swatch_2"/><linearGradient id="New_Gradient_Swatch_2-23" x1="213.89" y1="123.89" x2="235.56" y2="123.89" xlink:href="#New_Gradient_Swatch_2"/><linearGradient id="linear-gradient-36" x1="207.3" y1="183.88" x2="207.3" y2="116.07" xlink:href="#linear-gradient-3"/><linearGradient id="linear-gradient-37" x1="242.46" y1="160.06" x2="242.46" y2="116.05" xlink:href="#linear-gradient-3"/><linearGradient id="New_Gradient_Swatch_2-24" x1="91.99" y1="152.9" x2="91.99" y2="116.14" xlink:href="#New_Gradient_Swatch_2"/><linearGradient id="New_Gradient_Swatch_2-25" x1="92.29" y1="184.03" x2="92.29" y2="143.4" xlink:href="#New_Gradient_Swatch_2"/><linearGradient id="linear-gradient-38" x1="84.84" y1="124.03" x2="130.02" y2="124.03" xlink:href="#linear-gradient"/><linearGradient id="linear-gradient-39" x1="84.06" y1="150.09" x2="126.3" y2="150.09" xlink:href="#linear-gradient"/><linearGradient id="New_Gradient_Swatch_2-26" x1="151.05" y1="176.44" x2="178.82" y2="176.44" gradientTransform="translate(330.29 352.48) rotate(179.86)" xlink:href="#New_Gradient_Swatch_2"/><linearGradient id="New_Gradient_Swatch_2-27" x1="151.05" y1="124.27" x2="178.83" y2="124.27" gradientTransform="translate(330.17 248.15) rotate(179.86)" xlink:href="#New_Gradient_Swatch_2"/><linearGradient id="linear-gradient-40" x1="144.22" y1="184.09" x2="144.59" y2="116.29" xlink:href="#linear-gradient-3"/><linearGradient id="linear-gradient-41" x1="185.63" y1="184.09" x2="185.26" y2="116.29" xlink:href="#linear-gradient-3"/><linearGradient id="New_Gradient_Swatch_2-28" x1="769.17" y1="141.58" x2="769.17" y2="118.36" xlink:href="#New_Gradient_Swatch_2"/><linearGradient id="New_Gradient_Swatch_2-29" x1="730.18" y1="162.93" x2="730.18" y2="186.15" xlink:href="#New_Gradient_Swatch_2"/><linearGradient id="linear-gradient-42" x1="730.18" y1="161.39" x2="730.18" y2="118.36" xlink:href="#linear-gradient-13"/><linearGradient id="linear-gradient-43" x1="777.36" y1="124.87" x2="722.01" y2="124.87" xlink:href="#linear-gradient"/><linearGradient id="linear-gradient-44" x1="721.99" y1="178.96" x2="776.19" y2="178.96" xlink:href="#linear-gradient"/><linearGradient id="linear-gradient-45" x1="762.72" y1="152.92" x2="722.14" y2="152.92" xlink:href="#linear-gradient"/><linearGradient id="linear-gradient-46" x1="769.09" y1="186.14" x2="769.09" y2="144.84" xlink:href="#linear-gradient-17"/><linearGradient id="New_Gradient_Swatch_2-30" x1="715.2" y1="179" x2="656.92" y2="179" xlink:href="#New_Gradient_Swatch_2"/><linearGradient id="linear-gradient-47" x1="706.67" y1="185.96" x2="706.67" y2="118.36" xlink:href="#linear-gradient"/><linearGradient id="linear-gradient-48" x1="665.44" y1="186.35" x2="665.44" y2="118.75" xlink:href="#linear-gradient"/><linearGradient id="New_Gradient_Swatch_2-31" x1="297.17" y1="125.85" x2="355.42" y2="125.85" xlink:href="#New_Gradient_Swatch_2"/><linearGradient id="New_Gradient_Swatch_2-32" x1="312.8" y1="156.46" x2="339.35" y2="156.46" xlink:href="#New_Gradient_Swatch_2"/><linearGradient id="linear-gradient-49" x1="346.9" y1="118.5" x2="346.9" y2="185.91" xlink:href="#linear-gradient"/><linearGradient id="linear-gradient-50" x1="305.68" y1="118.49" x2="305.68" y2="185.91" xlink:href="#linear-gradient"/><linearGradient id="linear-gradient-51" x1="370.21" y1="186.53" x2="370.21" y2="118.99" gradientUnits="userSpaceOnUse"><stop offset="0" stop-color="#93cd9a"/><stop offset="0.02" stop-color="#98cd9c"/><stop offset="0.2" stop-color="#bacdab"/><stop offset="0.37" stop-color="#d5cdb6"/><stop offset="0.55" stop-color="#e8cdbf"/><stop offset="0.74" stop-color="#f3cdc3"/><stop offset="0.94" stop-color="#f7cdc5"/></linearGradient><linearGradient id="New_Gradient_Swatch_2-33" x1="377.32" y1="178.35" x2="404.31" y2="178.35" xlink:href="#New_Gradient_Swatch_2"/><linearGradient id="linear-gradient-52" x1="419.1" y1="186.53" x2="419.1" y2="118.99" xlink:href="#linear-gradient-51"/><linearGradient id="New_Gradient_Swatch_2-34" x1="426.21" y1="178.35" x2="453.2" y2="178.35" xlink:href="#New_Gradient_Swatch_2"/><linearGradient id="New_Gradient_Swatch_2-35" x1="571.52" y1="154.92" x2="571.52" y2="118.16" xlink:href="#New_Gradient_Swatch_2"/><linearGradient id="New_Gradient_Swatch_2-36" x1="571.82" y1="186.05" x2="571.82" y2="145.42" xlink:href="#New_Gradient_Swatch_2"/><linearGradient id="linear-gradient-53" x1="564.38" y1="126.05" x2="609.55" y2="126.05" xlink:href="#linear-gradient"/><linearGradient id="linear-gradient-54" x1="563.6" y1="152.11" x2="605.84" y2="152.11" xlink:href="#linear-gradient"/><linearGradient id="New_Gradient_Swatch_2-37" x1="514.82" y1="178.61" x2="542.59" y2="178.61" gradientTransform="translate(1057.83 355.97) rotate(179.86)" xlink:href="#New_Gradient_Swatch_2"/><linearGradient id="New_Gradient_Swatch_2-38" x1="514.82" y1="126.45" x2="542.59" y2="126.45" gradientTransform="translate(1057.71 251.63) rotate(179.86)" xlink:href="#New_Gradient_Swatch_2"/><linearGradient id="linear-gradient-55" x1="507.99" y1="186.26" x2="508.36" y2="118.47" xlink:href="#linear-gradient-3"/><linearGradient id="linear-gradient-56" x1="549.39" y1="186.26" x2="549.03" y2="118.47" xlink:href="#linear-gradient-3"/></defs><title>Artboard 1</title><polygon class="cls-1" points="85.25 32.23 100 19.42 126.36 19.41 141.13 32.2 85.25 32.23"/><polyline class="cls-2" points="126.24 63.64 100.13 63.64 100.13 49.21 126.24 49.21"/><polygon class="cls-3" points="141.12 85.44 126.2 85.44 126.36 19.41 141.38 31.89 141.15 52.81 141.12 85.44"/><polygon class="cls-4" points="85.24 85.44 100.16 85.44 100 19.42 84.98 32.29 85.21 53.2 85.24 85.44"/><polyline class="cls-5" points="229.83 33.3 204.41 33.3 204.41 19.51 229.83 19.51"/><polyline class="cls-6" points="229.83 85.36 204.41 85.36 204.41 71.56 229.83 71.56"/><polygon class="cls-7" points="243.95 31.8 229.88 19.51 229.83 32.05 229.83 73.22 229.83 85.36 243.95 73.47 243.87 52.64 243.95 31.8"/><rect class="cls-8" x="190.12" y="19.51" width="14.29" height="65.85"/><rect class="cls-9" x="251.63" y="19.04" width="14.94" height="66.77"/><polygon class="cls-10" points="274.44 19.11 298.87 85.99 314.14 85.81 291.11 18.87 274.44 19.11"/><polygon class="cls-11" points="338.5 19.11 314.07 85.99 298.8 85.81 321.83 18.87 338.5 19.11"/><polyline class="cls-12" points="360.53 45.97 360.65 85.23 346.97 70.15 347.12 56.02 360.53 45.97"/><polyline class="cls-13" points="360.99 85.72 391.7 85.43 391.7 70.08 346.97 70.08"/><polyline class="cls-14" points="360.52 55.12 360.65 19.4 346.37 33.11 346.52 45.98"/><polyline class="cls-15" points="360.86 19.14 391.76 19.4 391.76 33.1 346.37 33.1"/><polygon class="cls-16" points="387.73 58.82 387.73 46.28 346.88 46.28 357.56 58.97 387.73 58.82"/><polygon class="cls-17" points="448.32 84.78 434.76 84.78 434.76 46.96 448.48 53.78 448.32 84.78"/><polyline class="cls-18" points="434.72 60.6 413.49 60.6 413.49 47.25 434.72 47.25"/><polyline class="cls-19" points="434.72 31.89 413.49 31.89 413.49 18.55 434.72 18.55"/><polygon class="cls-20" points="399.59 84.78 413.49 84.78 413.49 18.36 399.43 30.33 399.59 84.78"/><polygon class="cls-21" points="448.52 48.33 434.72 60.42 434.72 18.36 448.52 30.48 448.52 48.33"/><polygon class="cls-22" points="509.95 31.41 495.97 19 495.92 40.79 509.95 40.79 509.95 31.41"/><polygon class="cls-23" points="456.94 72.4 470.92 84.82 470.96 63.02 456.94 63.02 456.94 72.4"/><polygon class="cls-24" points="456.94 31.41 470.92 19 470.96 59.94 456.94 45.22 456.94 31.41"/><polygon class="cls-25" points="456.94 30.73 509.95 30.68 495.76 18.32 470.92 18.32 456.94 30.73"/><polyline class="cls-26" points="495.97 84.82 471.13 84.82 456.94 72.45 509.95 72.4"/><polygon class="cls-27" points="470.96 59.94 456.94 45.22 496.02 45.37 496.05 59.94 470.96 59.94"/><polygon class="cls-28" points="496.02 45.37 495.76 84.82 509.95 72.45 509.95 55.77 496.02 45.37"/><polyline class="cls-29" points="532.53 45.1 532.65 84.36 518.97 69.29 519.12 55.16 532.53 45.1"/><polyline class="cls-30" points="532.99 84.86 563.7 84.57 563.7 69.22 518.97 69.22"/><polyline class="cls-31" points="532.52 54.26 532.65 18.54 518.37 32.25 518.52 45.11"/><polyline class="cls-32" points="532.86 18.28 563.76 18.54 563.76 32.24 518.37 32.24"/><polygon class="cls-33" points="559.73 57.96 559.73 45.42 518.88 45.42 529.56 58.1 559.73 57.96"/><polyline class="cls-34" points="929.27 46.03 929.39 85.29 915.71 70.22 915.86 56.08 929.27 46.03"/><polyline class="cls-35" points="929.73 85.79 960.44 85.49 960.44 70.15 915.71 70.15"/><polyline class="cls-36" points="929.26 55.18 929.39 19.46 915.11 33.18 915.26 46.04"/><polyline class="cls-37" points="929.6 19.2 960.5 19.46 960.49 33.16 915.11 33.16"/><polygon class="cls-38" points="956.47 58.89 956.47 46.35 915.62 46.35 926.3 59.03 956.47 58.89"/><polygon class="cls-39" points="907.23 83.35 893.67 83.35 893.67 45.53 907.38 52.35 907.23 83.35"/><polyline class="cls-40" points="893.63 59.17 872.4 59.17 872.4 45.82 893.63 45.82"/><polyline class="cls-41" points="893.63 30.47 872.4 30.47 872.4 17.12 893.63 17.12"/><polygon class="cls-42" points="858.5 83.35 872.4 83.35 872.4 16.93 858.34 28.91 858.5 83.35"/><polygon class="cls-43" points="907.43 46.9 893.63 58.99 893.63 16.93 907.43 29.05 907.43 46.9"/><polyline class="cls-44" points="626.5 52.8 626.64 17.09 612.35 30.8 612.51 43.66"/><polyline class="cls-45" points="626.51 43.65 626.64 83.5 612.96 83.5 613.11 53.85 626.51 43.65"/><polyline class="cls-46" points="626.64 17.09 657.08 17.34 657.08 30.79 612.35 30.79"/><polygon class="cls-47" points="653.37 56.2 653.37 43.65 612.52 43.65 623.21 56.34 653.37 56.2"/><polygon class="cls-48" points="721.38 70.48 706.63 82.91 680.26 83.3 665.5 70.51 721.38 70.48"/><polygon class="cls-49" points="721.39 16.69 706.47 16.72 706.63 82.91 721.65 70.42 721.41 49.51 721.39 16.69"/><polygon class="cls-50" points="665.51 17.08 680.43 17.11 680.26 83.3 665.25 70.82 665.48 49.9 665.51 17.08"/><polygon class="cls-51" points="849.89 70.48 835.14 82.91 808.78 83.3 794.01 70.51 849.89 70.48"/><polygon class="cls-52" points="849.9 16.69 834.98 16.72 835.14 82.91 850.16 70.42 849.93 49.51 849.9 16.69"/><polygon class="cls-53" points="794.02 17.08 808.94 17.11 808.78 83.3 793.76 70.82 793.99 49.9 794.02 17.08"/><polygon class="cls-54" points="765.71 17.64 750.77 32.06 750.77 82.64 765.71 82.64 765.71 17.64"/><rect class="cls-55" x="750.24" y="-3.45" width="14.94" height="55.77" transform="translate(782.14 -733.28) rotate(90)"/><polygon class="cls-56" points="249.16 183.44 235.6 183.44 235.6 145.63 249.31 152.44 249.16 183.44"/><polyline class="cls-57" points="235.56 159.27 214.33 159.27 214.33 145.92 235.56 145.92"/><polyline class="cls-58" points="235.56 130.56 214.33 130.56 214.33 117.21 235.56 117.21"/><polygon class="cls-59" points="200.43 183.44 214.33 183.44 214.33 117.03 200.27 129 200.43 183.44"/><polygon class="cls-60" points="249.36 146.99 235.56 159.08 235.56 117.03 249.36 129.14 249.36 146.99"/><polyline class="cls-61" points="99 152.9 99.13 117.18 84.84 130.89 85 143.76"/><polyline class="cls-62" points="99 143.75 99.13 183.59 85.45 183.59 85.6 153.95 99 143.75"/><polyline class="cls-63" points="99.13 117.19 129.57 117.44 129.57 130.88 84.84 130.88"/><polygon class="cls-64" points="125.86 156.29 125.86 143.75 85.01 143.75 95.7 156.43 125.86 156.29"/><rect class="cls-65" x="151.51" y="169.61" width="26.86" height="13.66" transform="translate(329.46 353.26) rotate(-179.86)"/><rect class="cls-66" x="151.51" y="117.31" width="26.86" height="13.92" transform="translate(329.58 248.93) rotate(-179.86)"/><polygon class="cls-67" points="137.25 171.19 151.48 183.18 151.48 170.96 151.49 129.49 151.49 117.28 137.26 129.23 137.34 150.21 137.25 171.19"/><polygon class="cls-68" points="192.59 171.2 178.37 183.18 178.37 170.96 178.36 129.49 178.35 117.28 192.59 129.23 192.51 150.21 192.59 171.2"/><polygon class="cls-69" points="776.19 131.76 762.21 119.34 762.16 141.14 776.19 141.14 776.19 131.76"/><polygon class="cls-70" points="723.17 172.75 737.15 185.16 737.2 163.37 723.17 163.37 723.17 172.75"/><polygon class="cls-71" points="723.17 131.76 737.15 119.34 737.2 160.28 723.17 145.56 723.17 131.76"/><polygon class="cls-72" points="723.17 131.08 776.19 131.03 761.99 118.66 737.15 118.66 723.17 131.08"/><polyline class="cls-73" points="762.21 185.16 737.37 185.16 723.17 172.8 776.19 172.75"/><polygon class="cls-74" points="737.2 160.28 723.17 145.56 762.26 145.71 762.28 160.28 737.2 160.28"/><polygon class="cls-75" points="762.26 145.71 761.99 185.16 776.19 172.8 776.19 156.12 762.26 145.71"/><polygon class="cls-76" points="713.99 172.59 699.24 185.02 672.87 185.41 658.11 172.63 713.99 172.59"/><polygon class="cls-77" points="713.99 118.8 699.08 118.83 699.24 185.02 714.26 172.54 714.02 151.62 713.99 118.8"/><polygon class="cls-78" points="658.12 119.2 673.03 119.23 672.87 185.41 657.85 172.93 658.09 152.01 658.12 119.2"/><polygon class="cls-79" points="298.36 132.26 313.11 119.45 339.48 119.44 354.24 132.23 298.36 132.26"/><polyline class="cls-80" points="339.35 163.67 313.24 163.67 313.24 149.24 339.35 149.24"/><polygon class="cls-81" points="354.23 185.47 339.31 185.47 339.47 119.44 354.49 131.93 354.26 152.84 354.23 185.47"/><polygon class="cls-82" points="298.35 185.47 313.27 185.47 313.11 119.45 298.09 132.32 298.32 153.24 298.35 185.47"/><polygon class="cls-83" points="362.82 119.43 377.76 119.43 377.76 185.49 362.66 170.76 362.82 119.43"/><rect class="cls-84" x="377.76" y="171.21" width="26.11" height="14.27"/><polygon class="cls-85" points="411.72 119.43 426.65 119.43 426.65 185.49 411.55 170.76 411.72 119.43"/><rect class="cls-86" x="426.65" y="171.21" width="26.11" height="14.27"/><polyline class="cls-87" points="578.53 154.92 578.66 119.2 564.38 132.91 564.53 145.77"/><polyline class="cls-88" points="578.54 145.77 578.66 185.61 564.98 185.61 565.13 155.97 578.54 145.77"/><polyline class="cls-89" points="578.66 119.2 609.11 119.46 609.11 132.9 564.38 132.9"/><polygon class="cls-90" points="605.4 158.31 605.4 145.77 564.55 145.77 575.23 158.45 605.4 158.31"/><rect class="cls-91" x="515.28" y="171.78" width="26.86" height="13.66" transform="translate(1056.98 358.48) rotate(-179.86)"/><rect class="cls-92" x="515.28" y="119.48" width="26.86" height="13.92" transform="translate(1057.11 254.15) rotate(-179.86)"/><polygon class="cls-93" points="501.02 173.37 515.25 185.35 515.25 173.14 515.26 131.67 515.26 119.45 501.03 131.4 501.1 152.39 501.02 173.37"/><polygon class="cls-94" points="556.36 173.37 542.13 185.35 542.13 173.14 542.12 131.67 542.12 119.45 556.35 131.4 556.28 152.39 556.36 173.37"/></svg>