<svg id="Layer_2" data-name="Layer 2" xmlns="http://www.w3.org/2000/svg" xmlns:xlink="http://www.w3.org/1999/xlink" viewBox="0 0 1045 372.89"><defs><style>.cls-1,.cls-10,.cls-11,.cls-12,.cls-13,.cls-14,.cls-15,.cls-16,.cls-17,.cls-18,.cls-19,.cls-2,.cls-20,.cls-21,.cls-22,.cls-23,.cls-24,.cls-25,.cls-26,.cls-27,.cls-28,.cls-29,.cls-3,.cls-30,.cls-31,.cls-32,.cls-33,.cls-34,.cls-35,.cls-36,.cls-37,.cls-38,.cls-39,.cls-4,.cls-40,.cls-41,.cls-42,.cls-43,.cls-44,.cls-45,.cls-46,.cls-47,.cls-48,.cls-49,.cls-5,.cls-50,.cls-51,.cls-52,.cls-53,.cls-54,.cls-55,.cls-56,.cls-57,.cls-58,.cls-59,.cls-6,.cls-60,.cls-61,.cls-62,.cls-63,.cls-64,.cls-65,.cls-66,.cls-67,.cls-68,.cls-69,.cls-7,.cls-70,.cls-71,.cls-72,.cls-73,.cls-74,.cls-75,.cls-76,.cls-77,.cls-78,.cls-79,.cls-8,.cls-80,.cls-81,.cls-82,.cls-83,.cls-84,.cls-85,.cls-86,.cls-87,.cls-88,.cls-89,.cls-9,.cls-90,.cls-91,.cls-92,.cls-93,.cls-94{fill:none;stroke-miterlimit:10;stroke-width:0.99px;}.cls-1{stroke:url(#New_Gradient_Swatch_2);}.cls-2{stroke:url(#New_Gradient_Swatch_2-2);}.cls-3{stroke:url(#linear-gradient);}.cls-4{stroke:url(#linear-gradient-2);}.cls-5{stroke:url(#New_Gradient_Swatch_2-3);}.cls-6{stroke:url(#New_Gradient_Swatch_2-4);}.cls-7{stroke:url(#linear-gradient-3);}.cls-8{stroke:url(#linear-gradient-4);}.cls-9{stroke:url(#linear-gradient-5);}.cls-10{stroke:url(#New_Gradient_Swatch_2-5);}.cls-11{stroke:url(#linear-gradient-6);}.cls-12{stroke:url(#New_Gradient_Swatch_2-6);}.cls-13{stroke:url(#linear-gradient-7);}.cls-14{stroke:url(#New_Gradient_Swatch_2-7);}.cls-15{stroke:url(#linear-gradient-8);}.cls-16{stroke:url(#linear-gradient-9);}.cls-17{stroke:url(#linear-gradient-10);}.cls-18{stroke:url(#New_Gradient_Swatch_2-8);}.cls-19{stroke:url(#New_Gradient_Swatch_2-9);}.cls-20{stroke:url(#linear-gradient-11);}.cls-21{stroke:url(#linear-gradient-12);}.cls-22{stroke:url(#New_Gradient_Swatch_2-10);}.cls-23{stroke:url(#New_Gradient_Swatch_2-11);}.cls-24{stroke:url(#linear-gradient-13);}.cls-25{stroke:url(#linear-gradient-14);}.cls-26{stroke:url(#linear-gradient-15);}.cls-27{stroke:url(#linear-gradient-16);}.cls-28{stroke:url(#linear-gradient-17);}.cls-29{stroke:url(#New_Gradient_Swatch_2-12);}.cls-30{stroke:url(#linear-gradient-18);}.cls-31{stroke:url(#New_Gradient_Swatch_2-13);}.cls-32{stroke:url(#linear-gradient-19);}.cls-33{stroke:url(#linear-gradient-20);}.cls-34{stroke:url(#New_Gradient_Swatch_2-14);}.cls-35{stroke:url(#linear-gradient-21);}.cls-36{stroke:url(#New_Gradient_Swatch_2-15);}.cls-37{stroke:url(#linear-gradient-22);}.cls-38{stroke:url(#linear-gradient-23);}.cls-39{stroke:url(#linear-gradient-24);}.cls-40{stroke:url(#New_Gradient_Swatch_2-16);}.cls-41{stroke:url(#New_Gradient_Swatch_2-17);}.cls-42{stroke:url(#linear-gradient-25);}.cls-43{stroke:url(#linear-gradient-26);}.cls-44{stroke:url(#New_Gradient_Swatch_2-18);}.cls-45{stroke:url(#New_Gradient_Swatch_2-19);}.cls-46{stroke:url(#linear-gradient-27);}.cls-47{stroke:url(#linear-gradient-28);}.cls-48{stroke:url(#New_Gradient_Swatch_2-20);}.cls-49{stroke:url(#linear-gradient-29);}.cls-50{stroke:url(#linear-gradient-30);}.cls-51{stroke:url(#New_Gradient_Swatch_2-21);}.cls-52{stroke:url(#linear-gradient-31);}.cls-53{stroke:url(#linear-gradient-32);}.cls-54{stroke:url(#linear-gradient-33);}.cls-55{stroke:url(#linear-gradient-34);}.cls-56{stroke:url(#linear-gradient-35);}.cls-57{stroke:url(#New_Gradient_Swatch_2-22);}.cls-58{stroke:url(#New_Gradient_Swatch_2-23);}.cls-59{stroke:url(#linear-gradient-36);}.cls-60{stroke:url(#linear-gradient-37);}.cls-61{stroke:url(#New_Gradient_Swatch_2-24);}.cls-62{stroke:url(#New_Gradient_Swatch_2-25);}.cls-63{stroke:url(#linear-gradient-38);}.cls-64{stroke:url(#linear-gradient-39);}.cls-65{stroke:url(#New_Gradient_Swatch_2-26);}.cls-66{stroke:url(#New_Gradient_Swatch_2-27);}.cls-67{stroke:url(#linear-gradient-40);}.cls-68{stroke:url(#linear-gradient-41);}.cls-69{stroke:url(#New_Gradient_Swatch_2-28);}.cls-70{stroke:url(#New_Gradient_Swatch_2-29);}.cls-71{stroke:url(#linear-gradient-42);}.cls-72{stroke:url(#linear-gradient-43);}.cls-73{stroke:url(#linear-gradient-44);}.cls-74{stroke:url(#linear-gradient-45);}.cls-75{stroke:url(#linear-gradient-46);}.cls-76{stroke:url(#New_Gradient_Swatch_2-30);}.cls-77{stroke:url(#linear-gradient-47);}.cls-78{stroke:url(#linear-gradient-48);}.cls-79{stroke:url(#New_Gradient_Swatch_2-31);}.cls-80{stroke:url(#New_Gradient_Swatch_2-32);}.cls-81{stroke:url(#linear-gradient-49);}.cls-82{stroke:url(#linear-gradient-50);}.cls-83{stroke:url(#linear-gradient-51);}.cls-84{stroke:url(#New_Gradient_Swatch_2-33);}.cls-85{stroke:url(#linear-gradient-52);}.cls-86{stroke:url(#New_Gradient_Swatch_2-34);}.cls-87{stroke:url(#New_Gradient_Swatch_2-35);}.cls-88{stroke:url(#New_Gradient_Swatch_2-36);}.cls-89{stroke:url(#linear-gradient-53);}.cls-90{stroke:url(#linear-gradient-54);}.cls-91{stroke:url(#New_Gradient_Swatch_2-37);}.cls-92{stroke:url(#New_Gradient_Swatch_2-38);}.cls-93{stroke:url(#linear-gradient-55);}.cls-94{stroke:url(#linear-gradient-56);}</style><linearGradient id="New_Gradient_Swatch_2" x1="206.65" y1="35.89" x2="272.09" y2="35.89" gradientUnits="userSpaceOnUse"><stop offset="0" stop-color="#f8ed43"/><stop offset="0.04" stop-color="#f9e337"/><stop offset="0.12" stop-color="#fad224"/><stop offset="0.2" stop-color="#fbc819"/><stop offset="0.28" stop-color="#fbc515"/><stop offset="1" stop-color="#70479b"/></linearGradient><linearGradient id="New_Gradient_Swatch_2-2" x1="224.21" y1="70.26" x2="254.04" y2="70.26" xlink:href="#New_Gradient_Swatch_2"/><linearGradient id="linear-gradient" x1="262.52" y1="27.63" x2="262.52" y2="103.36" gradientUnits="userSpaceOnUse"><stop offset="0" stop-color="#92cc9a"/><stop offset="0.02" stop-color="#96cc9c"/><stop offset="0.19" stop-color="#b8ccaa"/><stop offset="0.37" stop-color="#d3ccb6"/><stop offset="0.55" stop-color="#e6ccbe"/><stop offset="0.74" stop-color="#f1ccc2"/><stop offset="0.94" stop-color="#f5ccc4"/></linearGradient><linearGradient id="linear-gradient-2" x1="216.21" y1="27.62" x2="216.21" y2="103.36" xlink:href="#linear-gradient"/><linearGradient id="New_Gradient_Swatch_2-3" x1="341.56" y1="36.54" x2="370.61" y2="36.54" xlink:href="#New_Gradient_Swatch_2"/><linearGradient id="New_Gradient_Swatch_2-4" x1="341.56" y1="95.02" x2="370.61" y2="95.02" xlink:href="#New_Gradient_Swatch_2"/><linearGradient id="linear-gradient-3" x1="378.54" y1="103.83" x2="378.54" y2="27.7" gradientUnits="userSpaceOnUse"><stop offset="0.18" stop-color="#ec7da1"/><stop offset="0.78" stop-color="#47a1d9"/></linearGradient><linearGradient id="linear-gradient-4" x1="334.03" y1="103.26" x2="334.03" y2="28.3" xlink:href="#linear-gradient-3"/><linearGradient id="linear-gradient-5" x1="403.49" y1="27.78" x2="403.49" y2="103.78" xlink:href="#linear-gradient"/><linearGradient id="New_Gradient_Swatch_2-5" x1="443.01" y1="27.58" x2="443.01" y2="103.98" xlink:href="#New_Gradient_Swatch_2"/><linearGradient id="linear-gradient-6" x1="470.39" y1="27.58" x2="470.39" y2="103.98" xlink:href="#linear-gradient-3"/><linearGradient id="New_Gradient_Swatch_2-6" x1="509.89" y1="58.12" x2="509.89" y2="103.91" xlink:href="#New_Gradient_Swatch_2"/><linearGradient id="linear-gradient-7" x1="502.2" y1="94.39" x2="552.95" y2="94.39" xlink:href="#linear-gradient"/><linearGradient id="New_Gradient_Swatch_2-7" x1="509.55" y1="68.8" x2="509.55" y2="27.5" xlink:href="#New_Gradient_Swatch_2"/><linearGradient id="linear-gradient-8" x1="501.52" y1="36.22" x2="553.01" y2="36.22" xlink:href="#linear-gradient"/><linearGradient id="linear-gradient-9" x1="501.03" y1="65.99" x2="548.48" y2="65.99" xlink:href="#linear-gradient"/><linearGradient id="linear-gradient-10" x1="608.53" y1="102.61" x2="608.53" y2="58.83" xlink:href="#linear-gradient-3"/><linearGradient id="New_Gradient_Swatch_2-8" x1="576.43" y1="67.46" x2="600.77" y2="67.46" xlink:href="#New_Gradient_Swatch_2"/><linearGradient id="New_Gradient_Swatch_2-9" x1="576.43" y1="35.21" x2="600.77" y2="35.21" xlink:href="#New_Gradient_Swatch_2"/><linearGradient id="linear-gradient-11" x1="569.03" y1="102.61" x2="569.03" y2="26.43" xlink:href="#linear-gradient-3"/><linearGradient id="linear-gradient-12" x1="608.53" y1="75.84" x2="608.53" y2="26.41" xlink:href="#linear-gradient-3"/><linearGradient id="New_Gradient_Swatch_2-10" x1="677.41" y1="53.2" x2="677.41" y2="27.11" xlink:href="#New_Gradient_Swatch_2"/><linearGradient id="New_Gradient_Swatch_2-11" x1="633.61" y1="77.18" x2="633.61" y2="103.26" xlink:href="#New_Gradient_Swatch_2"/><linearGradient id="linear-gradient-13" x1="633.61" y1="75.45" x2="633.61" y2="27.11" gradientUnits="userSpaceOnUse"><stop offset="0" stop-color="#f8ed43"/><stop offset="0.06" stop-color="#f9e337"/><stop offset="0.17" stop-color="#fad224"/><stop offset="0.29" stop-color="#fbc819"/><stop offset="0.42" stop-color="#fbc515"/><stop offset="1" stop-color="#70479b"/></linearGradient><linearGradient id="linear-gradient-14" x1="686.61" y1="34.43" x2="624.42" y2="34.43" xlink:href="#linear-gradient"/><linearGradient id="linear-gradient-15" x1="624.41" y1="95.19" x2="685.29" y2="95.19" xlink:href="#linear-gradient"/><linearGradient id="linear-gradient-16" x1="670.16" y1="65.94" x2="624.57" y2="65.94" xlink:href="#linear-gradient"/><linearGradient id="linear-gradient-17" x1="677.31" y1="103.26" x2="677.31" y2="56.86" gradientUnits="userSpaceOnUse"><stop offset="0" stop-color="#f8ed43"/><stop offset="0.05" stop-color="#f9e337"/><stop offset="0.15" stop-color="#fad224"/><stop offset="0.26" stop-color="#fbc819"/><stop offset="0.37" stop-color="#fbc515"/><stop offset="1" stop-color="#70479b"/></linearGradient><linearGradient id="New_Gradient_Swatch_2-12" x1="703.1" y1="57.15" x2="703.1" y2="102.94" xlink:href="#New_Gradient_Swatch_2"/><linearGradient id="linear-gradient-18" x1="695.42" y1="93.42" x2="746.17" y2="93.42" xlink:href="#linear-gradient"/><linearGradient id="New_Gradient_Swatch_2-13" x1="702.77" y1="67.83" x2="702.77" y2="26.53" xlink:href="#New_Gradient_Swatch_2"/><linearGradient id="linear-gradient-19" x1="694.74" y1="35.25" x2="746.23" y2="35.25" xlink:href="#linear-gradient"/><linearGradient id="linear-gradient-20" x1="694.25" y1="65.02" x2="741.7" y2="65.02" xlink:href="#linear-gradient"/><linearGradient id="New_Gradient_Swatch_2-14" x1="555.81" y1="180.61" x2="555.81" y2="226.4" xlink:href="#New_Gradient_Swatch_2"/><linearGradient id="linear-gradient-21" x1="548.12" y1="216.88" x2="598.87" y2="216.88" xlink:href="#linear-gradient"/><linearGradient id="New_Gradient_Swatch_2-15" x1="555.47" y1="191.29" x2="555.47" y2="149.99" xlink:href="#New_Gradient_Swatch_2"/><linearGradient id="linear-gradient-22" x1="547.44" y1="158.71" x2="598.93" y2="158.71" xlink:href="#linear-gradient"/><linearGradient id="linear-gradient-23" x1="546.95" y1="188.48" x2="594.4" y2="188.48" xlink:href="#linear-gradient"/><linearGradient id="linear-gradient-24" x1="531.07" y1="223.42" x2="531.07" y2="179.64" xlink:href="#linear-gradient-3"/><linearGradient id="New_Gradient_Swatch_2-16" x1="498.97" y1="188.27" x2="523.31" y2="188.27" xlink:href="#New_Gradient_Swatch_2"/><linearGradient id="New_Gradient_Swatch_2-17" x1="498.97" y1="156.02" x2="523.31" y2="156.02" xlink:href="#New_Gradient_Swatch_2"/><linearGradient id="linear-gradient-25" x1="491.57" y1="223.42" x2="491.57" y2="147.24" xlink:href="#linear-gradient-3"/><linearGradient id="linear-gradient-26" x1="531.06" y1="196.65" x2="531.06" y2="147.22" xlink:href="#linear-gradient-3"/><linearGradient id="New_Gradient_Swatch_2-18" x1="215.37" y1="188.62" x2="215.37" y2="147.32" xlink:href="#New_Gradient_Swatch_2"/><linearGradient id="New_Gradient_Swatch_2-19" x1="215.7" y1="223.59" x2="215.7" y2="177.94" xlink:href="#New_Gradient_Swatch_2"/><linearGradient id="linear-gradient-27" x1="207.34" y1="156.19" x2="258.09" y2="156.19" xlink:href="#linear-gradient"/><linearGradient id="linear-gradient-28" x1="206.46" y1="185.46" x2="253.92" y2="185.46" xlink:href="#linear-gradient"/><linearGradient id="New_Gradient_Swatch_2-20" x1="331.18" y1="215.67" x2="265.72" y2="215.67" xlink:href="#New_Gradient_Swatch_2"/><linearGradient id="linear-gradient-29" x1="321.6" y1="223.49" x2="321.6" y2="147.55" xlink:href="#linear-gradient"/><linearGradient id="linear-gradient-30" x1="275.29" y1="223.93" x2="275.29" y2="147.99" xlink:href="#linear-gradient"/><linearGradient id="New_Gradient_Swatch_2-21" x1="475.55" y1="215.67" x2="410.08" y2="215.67" xlink:href="#New_Gradient_Swatch_2"/><linearGradient id="linear-gradient-31" x1="465.96" y1="223.49" x2="465.96" y2="147.55" xlink:href="#linear-gradient"/><linearGradient id="linear-gradient-32" x1="419.65" y1="223.93" x2="419.65" y2="147.99" xlink:href="#linear-gradient"/><linearGradient id="linear-gradient-33" x1="371.23" y1="147.94" x2="371.23" y2="222.63" xlink:href="#linear-gradient-3"/><linearGradient id="linear-gradient-34" x1="338.81" y1="156.74" x2="402.45" y2="156.74" gradientTransform="translate(213.89 527.37) rotate(-90)" xlink:href="#linear-gradient-3"/><linearGradient id="linear-gradient-35" x1="830.29" y1="223.42" x2="830.29" y2="179.64" xlink:href="#linear-gradient-3"/><linearGradient id="New_Gradient_Swatch_2-22" x1="798.19" y1="188.27" x2="822.54" y2="188.27" xlink:href="#New_Gradient_Swatch_2"/><linearGradient id="New_Gradient_Swatch_2-23" x1="798.19" y1="156.02" x2="822.53" y2="156.02" xlink:href="#New_Gradient_Swatch_2"/><linearGradient id="linear-gradient-36" x1="790.79" y1="223.42" x2="790.79" y2="147.24" xlink:href="#linear-gradient-3"/><linearGradient id="linear-gradient-37" x1="830.29" y1="196.65" x2="830.29" y2="147.22" xlink:href="#linear-gradient-3"/><linearGradient id="New_Gradient_Swatch_2-24" x1="661.25" y1="188.62" x2="661.25" y2="147.32" xlink:href="#New_Gradient_Swatch_2"/><linearGradient id="New_Gradient_Swatch_2-25" x1="661.59" y1="223.59" x2="661.59" y2="177.94" xlink:href="#New_Gradient_Swatch_2"/><linearGradient id="linear-gradient-38" x1="653.23" y1="156.19" x2="703.97" y2="156.19" xlink:href="#linear-gradient"/><linearGradient id="linear-gradient-39" x1="652.35" y1="185.46" x2="699.8" y2="185.46" xlink:href="#linear-gradient"/><linearGradient id="New_Gradient_Swatch_2-26" x1="727.6" y1="215.05" x2="758.8" y2="215.05" gradientTransform="translate(1486.91 428.34) rotate(179.86)" xlink:href="#New_Gradient_Swatch_2"/><linearGradient id="New_Gradient_Swatch_2-27" x1="727.6" y1="156.45" x2="758.8" y2="156.45" gradientTransform="translate(1486.78 311.14) rotate(179.86)" xlink:href="#New_Gradient_Swatch_2"/><linearGradient id="linear-gradient-40" x1="719.93" y1="223.65" x2="720.34" y2="147.49" xlink:href="#linear-gradient-3"/><linearGradient id="linear-gradient-41" x1="766.44" y1="223.65" x2="766.03" y2="147.49" xlink:href="#linear-gradient-3"/><linearGradient id="New_Gradient_Swatch_2-28" x1="737.29" y1="295.98" x2="737.29" y2="269.89" xlink:href="#New_Gradient_Swatch_2"/><linearGradient id="New_Gradient_Swatch_2-29" x1="693.49" y1="319.96" x2="693.49" y2="346.04" xlink:href="#New_Gradient_Swatch_2"/><linearGradient id="linear-gradient-42" x1="693.49" y1="318.23" x2="693.49" y2="269.89" xlink:href="#linear-gradient-13"/><linearGradient id="linear-gradient-43" x1="746.49" y1="277.21" x2="684.31" y2="277.21" xlink:href="#linear-gradient"/><linearGradient id="linear-gradient-44" x1="684.29" y1="337.97" x2="745.17" y2="337.97" xlink:href="#linear-gradient"/><linearGradient id="linear-gradient-45" x1="730.04" y1="308.72" x2="684.45" y2="308.72" xlink:href="#linear-gradient"/><linearGradient id="linear-gradient-46" x1="737.19" y1="346.04" x2="737.19" y2="299.64" xlink:href="#linear-gradient-17"/><linearGradient id="New_Gradient_Swatch_2-30" x1="676.66" y1="338.02" x2="611.2" y2="338.02" xlink:href="#New_Gradient_Swatch_2"/><linearGradient id="linear-gradient-47" x1="667.07" y1="345.83" x2="667.07" y2="269.9" xlink:href="#linear-gradient"/><linearGradient id="linear-gradient-48" x1="620.76" y1="346.27" x2="620.76" y2="270.34" xlink:href="#linear-gradient"/><linearGradient id="New_Gradient_Swatch_2-31" x1="206.65" y1="278.31" x2="272.09" y2="278.31" xlink:href="#New_Gradient_Swatch_2"/><linearGradient id="New_Gradient_Swatch_2-32" x1="224.21" y1="312.69" x2="254.04" y2="312.69" xlink:href="#New_Gradient_Swatch_2"/><linearGradient id="linear-gradient-49" x1="262.52" y1="270.06" x2="262.52" y2="345.78" xlink:href="#linear-gradient"/><linearGradient id="linear-gradient-50" x1="216.21" y1="270.05" x2="216.21" y2="345.78" xlink:href="#linear-gradient"/><linearGradient id="linear-gradient-51" x1="288.7" y1="346.48" x2="288.7" y2="270.6" gradientUnits="userSpaceOnUse"><stop offset="0" stop-color="#93cd9a"/><stop offset="0.02" stop-color="#98cd9c"/><stop offset="0.2" stop-color="#bacdab"/><stop offset="0.37" stop-color="#d5cdb6"/><stop offset="0.55" stop-color="#e8cdbf"/><stop offset="0.74" stop-color="#f3cdc3"/><stop offset="0.94" stop-color="#f7cdc5"/></linearGradient><linearGradient id="New_Gradient_Swatch_2-33" x1="296.68" y1="337.28" x2="327.01" y2="337.28" xlink:href="#New_Gradient_Swatch_2"/><linearGradient id="linear-gradient-52" x1="343.62" y1="346.48" x2="343.62" y2="270.6" xlink:href="#linear-gradient-51"/><linearGradient id="New_Gradient_Swatch_2-34" x1="351.61" y1="337.28" x2="381.93" y2="337.28" xlink:href="#New_Gradient_Swatch_2"/><linearGradient id="New_Gradient_Swatch_2-35" x1="515.05" y1="310.96" x2="515.05" y2="269.67" xlink:href="#New_Gradient_Swatch_2"/><linearGradient id="New_Gradient_Swatch_2-36" x1="515.39" y1="345.93" x2="515.39" y2="300.29" xlink:href="#New_Gradient_Swatch_2"/><linearGradient id="linear-gradient-53" x1="507.03" y1="278.53" x2="557.77" y2="278.53" xlink:href="#linear-gradient"/><linearGradient id="linear-gradient-54" x1="506.15" y1="307.81" x2="553.6" y2="307.81" xlink:href="#linear-gradient"/><linearGradient id="New_Gradient_Swatch_2-37" x1="451.35" y1="337.58" x2="482.55" y2="337.58" gradientTransform="translate(934.71 674.05) rotate(179.86)" xlink:href="#New_Gradient_Swatch_2"/><linearGradient id="New_Gradient_Swatch_2-38" x1="451.35" y1="278.98" x2="482.55" y2="278.98" gradientTransform="translate(934.57 556.84) rotate(179.86)" xlink:href="#New_Gradient_Swatch_2"/><linearGradient id="linear-gradient-55" x1="443.68" y1="346.17" x2="444.09" y2="270.01" xlink:href="#linear-gradient-3"/><linearGradient id="linear-gradient-56" x1="490.19" y1="346.17" x2="489.78" y2="270.01" xlink:href="#linear-gradient-3"/></defs><title>Artboard 1</title><polygon class="cls-1" points="207.98 43.09 224.55 28.7 254.17 28.68 270.76 43.05 207.98 43.09"/><polyline class="cls-2" points="254.04 78.37 224.7 78.37 224.7 62.16 254.04 62.16"/><polygon class="cls-3" points="270.75 102.86 253.99 102.86 254.17 28.68 271.05 42.71 270.78 66.21 270.75 102.86"/><polygon class="cls-4" points="207.98 102.86 224.73 102.86 224.55 28.7 207.68 43.15 207.95 66.65 207.98 102.86"/><polyline class="cls-5" points="370.61 44.28 342.05 44.28 342.05 28.79 370.61 28.79"/><polyline class="cls-6" points="370.61 102.76 342.05 102.76 342.05 87.27 370.61 87.27"/><polygon class="cls-7" points="386.47 42.6 370.67 28.79 370.61 42.88 370.61 89.14 370.61 102.76 386.47 89.41 386.38 66.01 386.47 42.6"/><rect class="cls-8" x="326.01" y="28.79" width="16.05" height="73.97"/><rect class="cls-9" x="395.1" y="28.27" width="16.79" height="75.01"/><polygon class="cls-10" points="420.72 28.35 448.17 103.48 465.32 103.27 439.44 28.08 420.72 28.35"/><polygon class="cls-11" points="492.69 28.35 465.24 103.48 448.08 103.27 473.96 28.08 492.69 28.35"/><polyline class="cls-12" points="517.43 58.52 517.57 102.62 502.2 85.69 502.37 69.81 517.43 58.52"/><polyline class="cls-13" points="517.95 103.18 552.45 102.85 552.45 85.61 502.2 85.61"/><polyline class="cls-14" points="517.42 68.8 517.57 28.67 501.52 44.08 501.7 58.52"/><polyline class="cls-15" points="517.81 28.38 552.51 28.67 552.51 44.06 501.52 44.06"/><polygon class="cls-16" points="547.99 72.96 547.99 58.87 502.1 58.87 514.1 73.12 547.99 72.96"/><polygon class="cls-17" points="616.06 102.11 600.83 102.11 600.83 59.63 616.23 67.29 616.06 102.11"/><polyline class="cls-18" points="600.77 74.95 576.93 74.95 576.93 59.96 600.77 59.96"/><polyline class="cls-19" points="600.77 42.71 576.93 42.71 576.93 27.71 600.77 27.71"/><polygon class="cls-20" points="561.31 102.11 576.93 102.11 576.93 27.5 561.14 40.95 561.31 102.11"/><polygon class="cls-21" points="616.28 61.17 600.77 74.75 600.77 27.5 616.28 41.11 616.28 61.17"/><polygon class="cls-22" points="685.29 42.16 669.58 28.22 669.53 52.7 685.29 52.7 685.29 42.16"/><polygon class="cls-23" points="625.73 88.21 641.43 102.16 641.49 77.68 625.73 77.68 625.73 88.21"/><polygon class="cls-24" points="625.73 42.16 641.43 28.22 641.49 74.21 625.73 57.67 625.73 42.16"/><polygon class="cls-25" points="625.73 41.4 685.29 41.34 669.34 27.45 641.43 27.45 625.73 41.4"/><polyline class="cls-26" points="669.58 102.16 641.68 102.16 625.73 88.27 685.29 88.21"/><polygon class="cls-27" points="641.49 74.21 625.73 57.67 669.64 57.84 669.66 74.21 641.49 74.21"/><polygon class="cls-28" points="669.64 57.84 669.34 102.16 685.29 88.27 685.29 69.53 669.64 57.84"/><polyline class="cls-29" points="710.65 57.55 710.79 101.65 695.42 84.72 695.59 68.84 710.65 57.55"/><polyline class="cls-30" points="711.16 102.21 745.67 101.88 745.67 84.64 695.42 84.64"/><polyline class="cls-31" points="710.64 67.83 710.79 27.7 694.74 43.11 694.92 57.55"/><polyline class="cls-32" points="711.02 27.41 745.73 27.7 745.73 43.09 694.74 43.09"/><polygon class="cls-33" points="741.2 71.99 741.2 57.9 695.32 57.9 707.32 72.15 741.2 71.99"/><polyline class="cls-34" points="563.35 181.01 563.49 225.11 548.12 208.18 548.29 192.3 563.35 181.01"/><polyline class="cls-35" points="563.87 225.66 598.37 225.34 598.37 208.1 548.12 208.1"/><polyline class="cls-36" points="563.34 191.29 563.49 151.16 547.44 166.56 547.62 181.01"/><polyline class="cls-37" points="563.73 150.87 598.43 151.16 598.43 166.55 547.44 166.55"/><polygon class="cls-38" points="593.91 195.45 593.91 181.36 548.02 181.36 560.02 195.61 593.91 195.45"/><polygon class="cls-39" points="538.59 222.92 523.36 222.92 523.36 180.44 538.76 188.1 538.59 222.92"/><polyline class="cls-40" points="523.31 195.76 499.47 195.76 499.47 180.77 523.31 180.77"/><polyline class="cls-41" points="523.31 163.52 499.47 163.52 499.47 148.52 523.31 148.52"/><polygon class="cls-42" points="483.85 222.92 499.47 222.92 499.47 148.32 483.67 161.77 483.85 222.92"/><polygon class="cls-43" points="538.82 181.98 523.31 195.56 523.31 148.32 538.82 161.92 538.82 181.98"/><polyline class="cls-44" points="223.24 188.61 223.39 148.49 207.34 163.89 207.52 178.34"/><polyline class="cls-45" points="223.25 178.33 223.39 223.09 208.02 223.09 208.19 189.79 223.25 178.33"/><polyline class="cls-46" points="223.39 148.49 257.59 148.78 257.59 163.88 207.34 163.88"/><polygon class="cls-47" points="253.42 192.42 253.42 178.33 207.53 178.33 219.53 192.58 253.42 192.42"/><polygon class="cls-48" points="329.82 208.47 313.25 222.43 283.63 222.87 267.05 208.51 329.82 208.47"/><polygon class="cls-49" points="329.83 148.04 313.07 148.08 313.25 222.43 330.12 208.41 329.86 184.91 329.83 148.04"/><polygon class="cls-50" points="267.06 148.49 283.81 148.52 283.63 222.87 266.76 208.85 267.02 185.35 267.06 148.49"/><polygon class="cls-51" points="474.19 208.47 457.62 222.43 428 222.87 411.41 208.51 474.19 208.47"/><polygon class="cls-52" points="474.19 148.04 457.44 148.08 457.62 222.43 474.49 208.41 474.22 184.91 474.19 148.04"/><polygon class="cls-53" points="411.42 148.49 428.18 148.52 428 222.87 411.13 208.85 411.39 185.35 411.42 148.49"/><polygon class="cls-54" points="379.62 149.11 362.83 165.31 362.83 222.13 379.62 222.13 379.62 149.11"/><rect class="cls-55" x="362.24" y="125.42" width="16.79" height="62.65" transform="translate(527.37 -213.89) rotate(90)"/><polygon class="cls-56" points="837.82 222.92 822.59 222.92 822.59 180.44 837.99 188.1 837.82 222.92"/><polyline class="cls-57" points="822.54 195.76 798.69 195.76 798.69 180.77 822.54 180.77"/><polyline class="cls-58" points="822.53 163.52 798.69 163.52 798.69 148.52 822.53 148.52"/><polygon class="cls-59" points="783.07 222.92 798.69 222.92 798.69 148.32 782.9 161.77 783.07 222.92"/><polygon class="cls-60" points="838.04 181.98 822.53 195.56 822.53 148.32 838.04 161.92 838.04 181.98"/><polyline class="cls-61" points="669.13 188.61 669.27 148.49 653.23 163.89 653.4 178.34"/><polyline class="cls-62" points="669.13 178.33 669.27 223.09 653.9 223.09 654.08 189.79 669.13 178.33"/><polyline class="cls-63" points="669.27 148.49 703.48 148.78 703.48 163.88 653.23 163.88"/><polygon class="cls-64" points="699.31 192.42 699.31 178.33 653.42 178.33 665.42 192.58 699.31 192.42"/><rect class="cls-65" x="728.12" y="207.38" width="30.17" height="15.34" transform="translate(1485.89 431.87) rotate(-179.86)"/><rect class="cls-66" x="728.12" y="148.63" width="30.17" height="15.64" transform="translate(1486.03 314.67) rotate(-179.86)"/><polygon class="cls-67" points="712.1 209.16 728.09 222.63 728.09 208.91 728.1 162.32 728.1 148.6 712.11 162.02 712.2 185.59 712.1 209.16"/><polygon class="cls-68" points="774.27 209.17 758.29 222.63 758.28 208.91 758.28 162.32 758.27 148.6 774.26 162.02 774.18 185.59 774.27 209.17"/><polygon class="cls-69" points="745.17 284.94 729.47 271 729.41 295.48 745.17 295.48 745.17 284.94"/><polygon class="cls-70" points="685.61 330.99 701.32 344.94 701.37 320.45 685.61 320.45 685.61 330.99"/><polygon class="cls-71" points="685.61 284.94 701.32 271 701.37 316.99 685.61 300.45 685.61 284.94"/><polygon class="cls-72" points="685.61 284.18 745.17 284.12 729.22 270.23 701.32 270.23 685.61 284.18"/><polyline class="cls-73" points="729.47 344.94 701.56 344.94 685.61 331.05 745.17 330.99"/><polygon class="cls-74" points="701.37 316.99 685.61 300.45 729.52 300.62 729.55 316.99 701.37 316.99"/><polygon class="cls-75" points="729.52 300.62 729.22 344.94 745.17 331.05 745.17 312.31 729.52 300.62"/><polygon class="cls-76" points="675.3 330.82 658.73 344.78 629.11 345.22 612.52 330.85 675.3 330.82"/><polygon class="cls-77" points="675.3 270.39 658.55 270.43 658.73 344.78 675.6 330.76 675.34 307.26 675.3 270.39"/><polygon class="cls-78" points="612.53 270.83 629.29 270.87 629.11 345.22 612.24 331.2 612.5 307.7 612.53 270.83"/><polygon class="cls-79" points="207.98 285.51 224.55 271.12 254.17 271.11 270.76 285.48 207.98 285.51"/><polyline class="cls-80" points="254.04 320.79 224.7 320.79 224.7 304.59 254.04 304.59"/><polygon class="cls-81" points="270.75 345.29 253.99 345.29 254.17 271.11 271.05 285.13 270.78 308.63 270.75 345.29"/><polygon class="cls-82" points="207.98 345.29 224.73 345.29 224.55 271.12 207.68 285.57 207.95 309.07 207.98 345.29"/><polygon class="cls-83" points="280.4 271.1 297.18 271.1 297.18 345.3 280.21 328.76 280.4 271.1"/><rect class="cls-84" x="297.18" y="329.27" width="29.33" height="16.04"/><polygon class="cls-85" points="335.33 271.1 352.1 271.1 352.1 345.3 335.14 328.76 335.33 271.1"/><rect class="cls-86" x="352.1" y="329.27" width="29.33" height="16.04"/><polyline class="cls-87" points="522.93 310.96 523.07 270.84 507.03 286.24 507.2 300.69"/><polyline class="cls-88" points="522.93 300.68 523.07 345.44 507.7 345.44 507.87 312.14 522.93 300.68"/><polyline class="cls-89" points="523.07 270.84 557.28 271.13 557.28 286.23 507.03 286.23"/><polygon class="cls-90" points="553.11 314.77 553.11 300.68 507.22 300.68 519.22 314.93 553.11 314.77"/><rect class="cls-91" x="451.87" y="329.91" width="30.17" height="15.34" transform="translate(933.1 676.27) rotate(-179.86)"/><rect class="cls-92" x="451.87" y="271.16" width="30.17" height="15.64" transform="translate(933.24 559.06) rotate(-179.86)"/><polygon class="cls-93" points="435.85 331.69 451.84 345.15 451.84 331.43 451.85 284.85 451.85 271.12 435.86 284.55 435.95 308.12 435.85 331.69"/><polygon class="cls-94" points="498.02 331.69 482.04 345.15 482.04 331.43 482.03 284.85 482.02 271.12 498.01 284.55 497.93 308.12 498.02 331.69"/></svg>