<?xml version="1.0" encoding="utf-8"?>
<!-- Generator: Adobe Illustrator 22.1.0, SVG Export Plug-In . SVG Version: 6.00 Build 0)  -->
<!DOCTYPE svg PUBLIC "-//W3C//DTD SVG 1.1//EN" "http://www.w3.org/Graphics/SVG/1.1/DTD/svg11.dtd">
<svg version="1.1" id="Layer_1" xmlns="http://www.w3.org/2000/svg" xmlns:xlink="http://www.w3.org/1999/xlink" x="0px" y="0px"
	 viewBox="0 0 640 250" style="enable-background:new 0 0 640 250;" xml:space="preserve">
<style type="text/css">
	.st0{fill:#465EE8;}
</style>
<title>Artboard 1 copy</title>
<path class="st0" d="M83.3,121.3h68v22.7h-13.5c-5.2,29.8-27.5,50-65,50c-44,0-68.7-32.2-68.7-68.9c0-35.8,25.9-68.9,68.8-68.9
	c34.4,0,58.2,21,60.5,45.9h-32.4c-1.9-10.3-12.4-19.7-28.1-19.7c-24.2,0-37.6,20.8-37.6,42.9c0,23.2,12.9,43.1,40.1,43.1
	c18.3,0,29.2-11.2,31.3-24.3H83.3V121.3z"/>
<path class="st0" d="M163.5,145.4c0-25.8,18.9-47.6,50-47.6c31.4,0,50.2,21.7,50.2,47.6S244.9,193,213.5,193
	C182.4,193,163.5,171.2,163.5,145.4z M235.2,145.4c0-12.6-8.6-23-21.7-23c-12.9,0-21.4,10.5-21.4,23c0,12.7,8.4,23,21.4,23
	C226.6,168.4,235.2,158.1,235.2,145.4z"/>
<path class="st0" d="M275.6,145.4c0-25.8,18.9-47.6,50-47.6c31.5,0,50.2,21.7,50.2,47.6S357.1,193,325.6,193
	C294.5,193,275.6,171.2,275.6,145.4z M347.3,145.4c0-12.6-8.6-23-21.7-23c-12.9,0-21.3,10.5-21.3,23c0,12.7,8.4,23,21.3,23
	C338.7,168.4,347.3,158.1,347.3,145.4z"/>
<path class="st0" d="M459.9,59.5h28.6v131.1h-28.6v-12.7c-4.3,8.2-15.9,15-27.5,15c-26,0-44-20.4-44-47.4s18-47.4,44-47.4
	c11.7-0.1,23.2,6.9,27.5,15.1V59.5z M459.9,145.4c0-12.4-8.6-23-21.5-23s-21.5,10.7-21.5,23c0,12.5,8.6,23,21.5,23
	S459.9,158,459.9,145.4z"/>
<path class="st0" d="M534.9,160.4c0,9.6,6,13.3,14.4,13.3c6.9,0,11.8-2.4,11.8-8.4c0-6.9-7.1-7.7-24.2-13.5
	c-14.8-5.1-27.9-9-27.9-26.4c0-18.7,15.5-27.5,39.9-27.5c26.2,0,38.9,13.3,38.9,30.5h-28.3c0-7.5-3.9-11.8-11.8-11.8
	c-5.8,0-10.7,2.6-10.7,8.1c0,6.6,7.7,8.1,23,12.7c15.9,4.9,29,9,29,26.6c0,21.3-18.3,29-40.8,29c-25.7,0-41.6-11.8-41.6-32.8
	L534.9,160.4z"/>
<path class="st0" d="M620,154.8c10.3,0.1,18.6,8.7,18.5,19c-0.1,10.3-8.7,18.6-19,18.5c-10.2-0.1-18.5-8.5-18.5-18.7
	c0-10.3,8.3-18.7,18.7-18.7C619.8,154.8,619.9,154.8,620,154.8z"/>
</svg>
