<svg id="Layer_1" data-name="Layer 1" xmlns="http://www.w3.org/2000/svg" viewBox="0 0 640 250"><defs><style>.cls-1{fill:#465ee8;}</style></defs><title>Artboard 1 copy</title><path class="cls-1" d="M83.34,121.26h68v22.65H137.83c-5.25,29.77-27.53,50-65,50-44,0-68.72-32.2-68.72-68.9C4.14,89.24,30,56.1,72.86,56.1c34.45,0,58.23,21,60.47,45.87H100.94c-1.87-10.3-12.36-19.66-28.08-19.66-24.16,0-37.64,20.78-37.64,42.88,0,23.21,12.92,43.06,40.07,43.06,18.35,0,29.21-11.23,31.27-24.34H83.34Z"/><path class="cls-1" d="M160.48,145.41c0-25.84,18.91-47.56,50-47.56,31.45,0,50.18,21.72,50.18,47.56S241.92,193,210.47,193C179.39,193,160.48,171.25,160.48,145.41Zm71.71,0c0-12.55-8.62-23-21.72-23-12.92,0-21.35,10.48-21.35,23,0,12.73,8.43,23,21.35,23C223.57,168.44,232.19,158.14,232.19,145.41Z"/><path class="cls-1" d="M272.63,145.41c0-25.84,18.91-47.56,50-47.56,31.46,0,50.18,21.72,50.18,47.56S354.08,193,322.62,193C291.54,193,272.63,171.25,272.63,145.41Zm71.71,0c0-12.55-8.61-23-21.72-23-12.92,0-21.34,10.48-21.34,23,0,12.73,8.42,23,21.34,23C335.73,168.44,344.34,158.14,344.34,145.41Z"/><path class="cls-1" d="M456.87,59.47h28.64V190.53H456.87V177.8c-4.31,8.24-15.92,15-27.53,15-26,0-44-20.41-44-47.37s18-47.37,44-47.37C441,98,452.56,105,456.87,113.2Zm0,85.94c0-12.36-8.62-23-21.54-23s-21.53,10.67-21.53,23c0,12.54,8.62,23,21.53,23S456.87,158,456.87,145.41Z"/><path class="cls-1" d="M531.94,160.39c0,9.55,6,13.29,14.42,13.29,6.93,0,11.8-2.43,11.8-8.42,0-6.93-7.12-7.68-24.16-13.49-14.79-5.05-27.89-9-27.89-26.4,0-18.72,15.54-27.52,39.88-27.52,26.21,0,38.94,13.29,38.94,30.52H556.66c0-7.49-3.93-11.8-11.8-11.8-5.8,0-10.67,2.63-10.67,8.06,0,6.55,7.68,8.05,23,12.73,15.92,4.87,29,9,29,26.59,0,21.34-18.35,29-40.81,29-25.66,0-41.57-11.8-41.57-32.77Z"/><path class="cls-1" d="M617,154.77A18.73,18.73,0,1,1,598,173.49,18.7,18.7,0,0,1,617,154.77Z"/></svg>