<svg xmlns="http://www.w3.org/2000/svg" xmlns:xlink="http://www.w3.org/1999/xlink" viewBox="0 0 2233.11 1564.69"><defs><style>.cls-1,.cls-39,.cls-40,.cls-43{fill:none;}.cls-2{font-size:46px;font-family:GTAmerica-ExtendedBold, GT America;font-weight:700;}.cls-19,.cls-2,.cls-28,.cls-42{fill:#231f20;}.cls-3{letter-spacing:-0.01em;}.cls-4{letter-spacing:-0.02em;}.cls-5{letter-spacing:0em;}.cls-6{letter-spacing:-0.03em;}.cls-7{letter-spacing:-0.04em;}.cls-8{letter-spacing:-0.02em;}.cls-9{letter-spacing:-0.02em;}.cls-10{letter-spacing:-0.03em;}.cls-11{letter-spacing:0.01em;}.cls-12{letter-spacing:0em;}.cls-13{letter-spacing:-0.02em;}.cls-14{letter-spacing:-0.01em;}.cls-15{letter-spacing:0em;}.cls-16{letter-spacing:-0.01em;}.cls-17{letter-spacing:0.01em;}.cls-18{letter-spacing:-0.06em;}.cls-19{font-size:38px;}.cls-19,.cls-28{font-family:GTAmerica-ExtendedMedium, GT America;}.cls-20{letter-spacing:0.01em;}.cls-21{letter-spacing:-0.04em;}.cls-22{letter-spacing:-0.01em;}.cls-23{letter-spacing:-0.02em;}.cls-24{letter-spacing:-0.02em;}.cls-25{letter-spacing:-0.02em;}.cls-26{letter-spacing:0.01em;}.cls-27{letter-spacing:0em;}.cls-28{font-size:22px;}.cls-29{letter-spacing:-0.01em;}.cls-30{letter-spacing:-0.02em;}.cls-31{letter-spacing:-0.02em;}.cls-32{letter-spacing:0em;}.cls-33{letter-spacing:0em;}.cls-34{letter-spacing:-0.01em;}.cls-35{letter-spacing:-0.02em;}.cls-36{letter-spacing:-0.02em;}.cls-37{letter-spacing:-0.1em;}.cls-38{letter-spacing:0em;}.cls-39,.cls-40,.cls-43{stroke:#231f20;}.cls-39{stroke-width:5.23px;}.cls-40{stroke-width:5.32px;}.cls-41{clip-path:url(#clip-path);}.cls-43{stroke-width:5px;}</style><clipPath id="clip-path" transform="translate(-135.69 -80.47)"><rect class="cls-1" width="2592" height="1728"/></clipPath></defs><title>Asset 3</title><g id="Layer_2" data-name="Layer 2"><g id="Layer_1-2" data-name="Layer 1"><text class="cls-2" transform="translate(708.78 39.33)">H<tspan class="cls-3" x="39.93" y="0">o</tspan><tspan class="cls-4" x="70.47" y="0">w</tspan><tspan class="cls-5" x="112.38" y="0" xml:space="preserve"> Ma</tspan><tspan class="cls-6" x="205.71" y="0">n</tspan><tspan class="cls-7" x="237.82" y="0">y</tspan><tspan class="cls-5" x="265.28" y="0"> </tspan><tspan class="cls-8" x="279.63" y="0">R</tspan><tspan class="cls-9" x="315.01" y="0">e</tspan><tspan x="344.63" y="0">fu</tspan><tspan class="cls-10" x="399.41" y="0">g</tspan><tspan class="cls-11" x="429.5" y="0">e</tspan><tspan class="cls-12" x="460.59" y="0">e</tspan><tspan x="490.86" y="0">s E</tspan><tspan class="cls-13" x="566.76" y="0">n</tspan><tspan class="cls-14" x="599.33" y="0">t</tspan><tspan class="cls-15" x="621.04" y="0">e</tspan><tspan class="cls-16" x="651.45" y="0">r</tspan><tspan class="cls-17" x="672.84" y="0">e</tspan><tspan x="703.89" y="0">d N</tspan><tspan class="cls-18" x="791.65" y="0">Y</tspan><tspan x="823.07" y="0">C ?</tspan></text><text class="cls-19" transform="translate(32.49 999.71) rotate(-90)">Num<tspan class="cls-20" x="98.38" y="0">b</tspan><tspan x="126.01" y="0">e</tspan><tspan class="cls-21" x="150.67" y="0">r</tspan><tspan x="165.91" y="0" xml:space="preserve"> O</tspan><tspan class="cls-22" x="210.37" y="0">f</tspan><tspan x="227.16" y="0"> </tspan><tspan class="cls-23" x="239.32" y="0">R</tspan><tspan class="cls-24" x="268.05" y="0">e</tspan><tspan x="292.03" y="0">fu</tspan><tspan class="cls-25" x="335.69" y="0">g</tspan><tspan class="cls-26" x="359.7" y="0">e</tspan><tspan class="cls-27" x="384.9" y="0">e</tspan><tspan x="409.52" y="0">s</tspan></text><text class="cls-28" transform="translate(254 795.81)">D<tspan class="cls-29" x="18.35" y="0">r</tspan><tspan class="cls-30" x="27.81" y="0">a</tspan><tspan class="cls-31" x="42.04" y="0">w</tspan><tspan class="cls-32" x="61.62" y="0"> </tspan><tspan class="cls-33" x="68.66" y="0">F</tspan><tspan class="cls-34" x="83.86" y="0">r</tspan><tspan x="93.34" y="0">om </tspan></text><text class="cls-28" transform="translate(259.38 822.21)">This <tspan class="cls-35" x="57.46" y="0">P</tspan><tspan x="73.17" y="0">oi</tspan><tspan class="cls-36" x="94.47" y="0">n</tspan><tspan x="109.67" y="0">t</tspan></text><text class="cls-19" transform="translate(1116.04 1555.53)"><tspan class="cls-37">Y</tspan><tspan class="cls-38" x="23.29" y="0">e</tspan><tspan x="48.03" y="0">ar</tspan></text><line class="cls-39" x1="188.47" y1="110.28" x2="188.47" y2="1413.02"/><line class="cls-40" x1="2233.11" y1="1412.87" x2="185.81" y2="1412.87"/><g class="cls-41"><path class="cls-42" d="M292,1181.23c-4.41,0-6.54-4.08-6.54-10.54s2.13-10.58,6.54-10.58,6.54,4.08,6.54,10.58-2.13,10.54-6.54,10.54m0,2.76c6.47,0,9.85-5.15,9.85-13.3s-3.38-13.34-9.85-13.34-9.85,5.15-9.85,13.34,3.38,13.3,9.85,13.3m-23.37-2.76c-4.4,0-6.54-4.08-6.54-10.54s2.14-10.58,6.54-10.58,6.54,4.08,6.54,10.58-2.13,10.54-6.54,10.54m0,2.76c6.47,0,9.85-5.15,9.85-13.3s-3.38-13.34-9.85-13.34-9.84,5.15-9.84,13.34,3.38,13.3,9.84,13.3m-22.19,0c5.41,0,8.86-3.68,8.86-9,0-5.51-2.94-8.93-7.79-8.93a6.42,6.42,0,0,0-6,3.42l1-8.67h11.61v-2.87H239.94l-1.5,14.81,3.15.33c.7-2.68,2.39-4.26,5.11-4.26,3.53,0,5.29,2.53,5.29,6.35s-2,6-5.36,6a5,5,0,0,1-5.18-4.37l-3.42.4c.66,4.15,3.9,6.8,8.41,6.8" transform="translate(-135.69 -80.47)"/><path class="cls-42" d="M292,1117.7c-4.41,0-6.54-4.08-6.54-10.55s2.13-10.58,6.54-10.58,6.54,4.08,6.54,10.58-2.13,10.55-6.54,10.55m0,2.75c6.47,0,9.85-5.14,9.85-13.3s-3.38-13.33-9.85-13.33-9.85,5.14-9.85,13.33,3.38,13.3,9.85,13.3m-23.37-2.75c-4.4,0-6.53-4.08-6.53-10.55s2.13-10.58,6.53-10.58,6.54,4.08,6.54,10.58-2.13,10.55-6.54,10.55m0,2.75c6.47,0,9.85-5.14,9.85-13.3s-3.38-13.33-9.85-13.33-9.84,5.14-9.84,13.33,3.38,13.3,9.84,13.3m-21.52-2.75c-3.24,0-5.51-2.69-5.88-6.91.88-3.31,2.9-5.18,5.73-5.18,3.2,0,5.22,2.31,5.22,6s-2,6.1-5.07,6.1m.47-14.85a6.88,6.88,0,0,0-6.46,3.71c.14-6.61,2.24-10,6.24-10,2.46,0,3.93,1.4,4.52,4.3l3.31-.74c-.77-4.07-3.53-6.31-7.79-6.31-6.1,0-9.52,5-9.52,13.88,0,8.42,3.13,12.75,9.19,12.75,5,0,8.41-3.6,8.41-8.89s-3.12-8.71-7.9-8.71" transform="translate(-135.69 -80.47)"/><path class="cls-42" d="M292,1054.16c-4.41,0-6.54-4.08-6.54-10.54S287.59,1033,292,1033s6.54,4.07,6.54,10.58-2.13,10.54-6.54,10.54m0,2.76c6.47,0,9.85-5.15,9.85-13.3s-3.38-13.34-9.85-13.34-9.85,5.14-9.85,13.34,3.38,13.3,9.85,13.3m-23.37-2.76c-4.4,0-6.53-4.08-6.53-10.54s2.13-10.58,6.53-10.58,6.54,4.07,6.54,10.58-2.13,10.54-6.54,10.54m0,2.76c6.47,0,9.85-5.15,9.85-13.3s-3.38-13.34-9.85-13.34-9.84,5.14-9.84,13.34,3.38,13.3,9.84,13.3m-23.43-.56h3.63v-.62a33.74,33.74,0,0,1,9-22.34v-2.57H241.34v3.05h12.78c-5.65,7-8.92,14.51-8.92,22.12Z" transform="translate(-135.69 -80.47)"/><path class="cls-42" d="M292,990.62c-4.41,0-6.54-4.07-6.54-10.54s2.13-10.58,6.54-10.58,6.54,4.08,6.54,10.58-2.13,10.54-6.54,10.54m0,2.76c6.47,0,9.85-5.14,9.85-13.3s-3.38-13.34-9.85-13.34-9.85,5.15-9.85,13.34,3.38,13.3,9.85,13.3m-23.37-2.76c-4.4,0-6.54-4.07-6.54-10.54s2.14-10.58,6.54-10.58,6.54,4.08,6.54,10.58-2.13,10.54-6.54,10.54m0,2.76c6.47,0,9.85-5.14,9.85-13.3s-3.38-13.34-9.85-13.34-9.84,5.15-9.84,13.34,3.38,13.3,9.84,13.3m-22.19-2.64c-3.56,0-5.91-2-5.91-5,0-2.61,1.32-4.15,4.7-5.33l2.43.77c3.16,1,4.52,2.46,4.52,4.82,0,3-2.13,4.74-5.74,4.74m-.18-21.5c3.12,0,5,1.55,5,4.15,0,2.32-1.06,3.6-4.15,4.78l-1.29-.4c-3.05-.92-4.33-2.24-4.33-4.45,0-2.53,1.84-4.08,4.81-4.08m3.86,9.89a5.8,5.8,0,0,0,4.41-5.88c0-4-3.2-6.51-8.16-6.51s-8.23,2.65-8.23,6.58c0,2.9,1.29,4.78,4.23,6.1-3.38,1-5.18,3.31-5.18,6.8,0,4.33,3.67,7.16,9.25,7.16s9-2.94,9-7.38c0-3.42-1.58-5.48-5.36-6.87" transform="translate(-135.69 -80.47)"/><path class="cls-42" d="M292,927.09c-4.41,0-6.54-4.08-6.54-10.55S287.59,906,292,906s6.54,4.08,6.54,10.58-2.13,10.55-6.54,10.55m0,2.75c6.47,0,9.85-5.14,9.85-13.3s-3.38-13.33-9.85-13.33-9.85,5.14-9.85,13.33,3.38,13.3,9.85,13.3m-23.37-2.75c-4.4,0-6.53-4.08-6.53-10.55S264.23,906,268.63,906s6.54,4.08,6.54,10.58-2.13,10.55-6.54,10.55m0,2.75c6.47,0,9.85-5.14,9.85-13.3s-3.38-13.33-9.85-13.33-9.84,5.14-9.84,13.33,3.38,13.3,9.84,13.3M246.15,917c-3.05,0-5.22-2-5.22-5.47S243,906,246.11,906c4.08,0,5.48,3.2,5.81,6.25a6.06,6.06,0,0,1-5.77,4.81m0-13.81c-5.18,0-8.52,3.56-8.52,8.38,0,5.36,3.52,8.19,8.19,8.19a6.74,6.74,0,0,0,6.17-3.27c-.07,6.39-1.61,10.58-5.73,10.58-3.16,0-4.52-1.87-5-4.67l-3.31.74c.81,4.3,3.64,6.68,8.3,6.68,6.54,0,9.08-6,9.08-13.81,0-8.41-2.94-12.82-9.15-12.82" transform="translate(-135.69 -80.47)"/><path class="cls-42" d="M292,863.55c-4.41,0-6.54-4.07-6.54-10.54s2.13-10.58,6.54-10.58,6.54,4.08,6.54,10.58-2.13,10.54-6.54,10.54m0,2.76c6.47,0,9.85-5.14,9.85-13.3s-3.38-13.34-9.85-13.34-9.85,5.15-9.85,13.34,3.38,13.3,9.85,13.3m-23.37-2.76c-4.4,0-6.54-4.07-6.54-10.54s2.14-10.58,6.54-10.58,6.54,4.08,6.54,10.58-2.13,10.54-6.54,10.54m0,2.76c6.47,0,9.85-5.14,9.85-13.3s-3.38-13.34-9.85-13.34-9.84,5.15-9.84,13.34,3.38,13.3,9.84,13.3m-23.36-2.76c-4.41,0-6.54-4.07-6.54-10.54s2.13-10.58,6.54-10.58,6.54,4.08,6.54,10.58-2.13,10.54-6.54,10.54m0,2.76c6.46,0,9.84-5.14,9.84-13.3s-3.38-13.34-9.84-13.34-9.85,5.15-9.85,13.34,3.38,13.3,9.85,13.3m-19.4-.55h3.31V840.22h-2.8a5.13,5.13,0,0,1-5.18,4.16h-.8v3h1.32c1.4,0,3.38-.55,4.15-1.62Z" transform="translate(-135.69 -80.47)"/><path class="cls-42" d="M292,800c-4.41,0-6.54-4.08-6.54-10.55s2.13-10.58,6.54-10.58,6.54,4.08,6.54,10.58S296.41,800,292,800m0,2.75c6.47,0,9.85-5.14,9.85-13.3s-3.38-13.33-9.85-13.33-9.85,5.14-9.85,13.33,3.38,13.3,9.85,13.3M268.63,800c-4.4,0-6.53-4.08-6.53-10.55s2.13-10.58,6.53-10.58,6.54,4.08,6.54,10.58S273,800,268.63,800m0,2.75c6.47,0,9.85-5.14,9.85-13.3s-3.38-13.33-9.85-13.33-9.84,5.14-9.84,13.33,3.38,13.3,9.84,13.3m-19.39-.55h3.3V776.69h-2.79a5.13,5.13,0,0,1-5.18,4.15h-.81v3h1.33c1.39,0,3.38-.56,4.15-1.62Zm-14.48,0h3.31V776.69h-2.79a5.14,5.14,0,0,1-5.18,4.15h-.81v3h1.32c1.4,0,3.38-.56,4.15-1.62Z" transform="translate(-135.69 -80.47)"/><path class="cls-42" d="M292,736.48c-4.41,0-6.54-4.08-6.54-10.54s2.13-10.58,6.54-10.58,6.54,4.07,6.54,10.58-2.13,10.54-6.54,10.54m0,2.76c6.47,0,9.85-5.15,9.85-13.3S298.47,712.6,292,712.6s-9.85,5.14-9.85,13.34,3.38,13.3,9.85,13.3m-23.37-2.76c-4.4,0-6.53-4.08-6.53-10.54s2.13-10.58,6.53-10.58,6.54,4.07,6.54,10.58-2.13,10.54-6.54,10.54m0,2.76c6.47,0,9.85-5.15,9.85-13.3s-3.38-13.34-9.85-13.34-9.84,5.14-9.84,13.34,3.38,13.3,9.84,13.3m-29.17-.55h16.76v-3H243.91a53.55,53.55,0,0,0,6.28-5c3.93-3.64,5.73-6.76,5.73-10.36,0-5-3-7.72-7.93-7.72-5.15,0-8.23,2.9-8.23,7.42a8.07,8.07,0,0,0,.26,2.06l3.3.33a12.66,12.66,0,0,1-.29-2.35c0-2.79,1.8-4.59,4.77-4.59s4.67,1.76,4.67,4.88-1.1,5.18-4.34,8.31a93.32,93.32,0,0,1-8.67,7.31Zm-9,0h3.31V713.15H231a5.14,5.14,0,0,1-5.18,4.15H225v3h1.32c1.4,0,3.38-.55,4.15-1.62Z" transform="translate(-135.69 -80.47)"/><path class="cls-42" d="M292,673c-4.41,0-6.54-4.08-6.54-10.55s2.13-10.58,6.54-10.58,6.54,4.08,6.54,10.58S296.41,673,292,673m0,2.75c6.47,0,9.85-5.14,9.85-13.3s-3.38-13.33-9.85-13.33-9.85,5.14-9.85,13.33,3.38,13.3,9.85,13.3M268.63,673c-4.4,0-6.54-4.08-6.54-10.55s2.14-10.58,6.54-10.58,6.54,4.08,6.54,10.58S273,673,268.63,673m0,2.75c6.47,0,9.85-5.14,9.85-13.3s-3.38-13.33-9.85-13.33-9.84,5.14-9.84,13.33,3.38,13.3,9.84,13.3m-22.19,0c5.33,0,8.67-2.9,8.67-7.79,0-3.63-1.94-5.65-5.51-6.28a5.81,5.81,0,0,0,4.63-5.88c0-4.15-2.9-6.68-7.9-6.68-5.21,0-8.45,3-8.45,7.93l3.09.66c0-3.78,1.87-5.84,5.18-5.84,3,0,4.78,1.58,4.78,4.3s-1.58,4.41-5,4.41h-1.29v2.72h1.44c3.82,0,5.73,1.69,5.73,4.74,0,3.23-1.8,5-5.26,5s-5.76-2-5.91-5.48l-3.23.41c.14,4.77,3.71,7.82,9,7.82m-18-.55h3.3V649.62h-2.79a5.13,5.13,0,0,1-5.18,4.15h-.81v3h1.32c1.4,0,3.38-.55,4.16-1.61Z" transform="translate(-135.69 -80.47)"/><path class="cls-42" d="M292,609.41c-4.41,0-6.54-4.08-6.54-10.54s2.13-10.58,6.54-10.58,6.54,4.07,6.54,10.58-2.13,10.54-6.54,10.54m0,2.76c6.47,0,9.85-5.15,9.85-13.3s-3.38-13.34-9.85-13.34-9.85,5.14-9.85,13.34,3.38,13.3,9.85,13.3m-23.37-2.76c-4.4,0-6.53-4.08-6.53-10.54s2.13-10.58,6.53-10.58,6.54,4.07,6.54,10.58-2.13,10.54-6.54,10.54m0,2.76c6.47,0,9.85-5.15,9.85-13.3s-3.38-13.34-9.85-13.34-9.84,5.14-9.84,13.34,3.38,13.3,9.84,13.3m-19.54-19v9.37h-8.63a33.56,33.56,0,0,0,2.42-3.35l4.37-6.57a16.36,16.36,0,0,0,1.84-3.35h.07c-.07,1.33-.07,1.84-.07,3.9m7.31,11.94v-2.57h-4.19v-16.5h-3.67l-11.43,16.83v2.24h12v6.46h3.12v-6.46ZM229,611.61h3.31V586.08h-2.8a5.13,5.13,0,0,1-5.18,4.15h-.8v3h1.32c1.4,0,3.38-.55,4.15-1.62Z" transform="translate(-135.69 -80.47)"/><path class="cls-42" d="M292,545.87c-4.41,0-6.54-4.07-6.54-10.54s2.13-10.58,6.54-10.58,6.54,4.08,6.54,10.58-2.13,10.54-6.54,10.54m0,2.76c6.47,0,9.85-5.14,9.85-13.3S298.47,522,292,522s-9.85,5.15-9.85,13.34,3.38,13.3,9.85,13.3m-23.37-2.76c-4.4,0-6.53-4.07-6.53-10.54s2.13-10.58,6.53-10.58,6.54,4.08,6.54,10.58-2.13,10.54-6.54,10.54m0,2.76c6.47,0,9.85-5.14,9.85-13.3S275.1,522,268.63,522s-9.84,5.15-9.84,13.34,3.38,13.3,9.84,13.3m-22.19,0c5.41,0,8.86-3.67,8.86-9s-2.94-8.93-7.79-8.93a6.42,6.42,0,0,0-6,3.42l1-8.67h11.61v-2.87H239.94l-1.5,14.81,3.16.33c.69-2.68,2.38-4.26,5.1-4.26,3.53,0,5.29,2.53,5.29,6.36s-2,6-5.36,6a5,5,0,0,1-5.18-4.37l-3.42.4c.66,4.15,3.9,6.8,8.41,6.8m-18-.55h3.31V522.54H229a5.13,5.13,0,0,1-5.18,4.16H223v3h1.32c1.39,0,3.38-.55,4.15-1.61Z" transform="translate(-135.69 -80.47)"/><path class="cls-42" d="M292,484.8c-4.41,0-6.54-4.08-6.54-10.54s2.13-10.58,6.54-10.58,6.54,4.08,6.54,10.58S296.41,484.8,292,484.8m0,2.76c6.47,0,9.85-5.14,9.85-13.3s-3.38-13.34-9.85-13.34-9.85,5.15-9.85,13.34,3.38,13.3,9.85,13.3m-23.37-2.76c-4.4,0-6.54-4.08-6.54-10.54s2.14-10.58,6.54-10.58,6.54,4.08,6.54,10.58S273,484.8,268.63,484.8m0,2.76c6.47,0,9.85-5.14,9.85-13.3s-3.38-13.34-9.85-13.34-9.84,5.15-9.84,13.34,3.38,13.3,9.84,13.3m-21.52-2.76c-3.24,0-5.52-2.68-5.88-6.9.88-3.31,2.9-5.19,5.73-5.19,3.19,0,5.22,2.32,5.22,6s-2,6.1-5.07,6.1m.47-14.84a6.88,6.88,0,0,0-6.46,3.71c.14-6.61,2.24-10,6.24-10,2.46,0,3.93,1.39,4.52,4.3l3.31-.74c-.77-4.08-3.53-6.32-7.79-6.32-6.1,0-9.52,5-9.52,13.89,0,8.41,3.13,12.75,9.19,12.75,5,0,8.41-3.6,8.41-8.89s-3.12-8.71-7.9-8.71M228.52,487h3.3V461.47H229a5.13,5.13,0,0,1-5.18,4.15H223v3h1.32c1.4,0,3.38-.55,4.16-1.62Z" transform="translate(-135.69 -80.47)"/><path class="cls-42" d="M292,421.27c-4.41,0-6.54-4.08-6.54-10.55s2.13-10.58,6.54-10.58,6.54,4.08,6.54,10.58-2.13,10.55-6.54,10.55m0,2.75c6.47,0,9.85-5.14,9.85-13.3s-3.38-13.33-9.85-13.33-9.85,5.14-9.85,13.33S285.53,424,292,424m-23.37-2.75c-4.4,0-6.54-4.08-6.54-10.55s2.14-10.58,6.54-10.58,6.54,4.08,6.54,10.58-2.13,10.55-6.54,10.55m0,2.75c6.47,0,9.85-5.14,9.85-13.3s-3.38-13.33-9.85-13.33-9.84,5.14-9.84,13.33,3.38,13.3,9.84,13.3m-23.44-.55h3.64v-.62a33.74,33.74,0,0,1,9-22.34v-2.57H241.34V401h12.78c-5.66,7.05-8.93,14.51-8.93,22.11Zm-12.49,0H236V397.94h-2.79a5.14,5.14,0,0,1-5.18,4.15h-.81v3h1.32c1.4,0,3.38-.56,4.15-1.62Z" transform="translate(-135.69 -80.47)"/><path class="cls-42" d="M292,357.73c-4.41,0-6.54-4.08-6.54-10.54s2.13-10.58,6.54-10.58,6.54,4.07,6.54,10.58-2.13,10.54-6.54,10.54m0,2.76c6.47,0,9.85-5.15,9.85-13.3s-3.38-13.34-9.85-13.34-9.85,5.14-9.85,13.34,3.38,13.3,9.85,13.3m-23.37-2.76c-4.4,0-6.54-4.08-6.54-10.54s2.14-10.58,6.54-10.58,6.54,4.07,6.54,10.58-2.13,10.54-6.54,10.54m0,2.76c6.47,0,9.85-5.15,9.85-13.3s-3.38-13.34-9.85-13.34-9.84,5.14-9.84,13.34,3.38,13.3,9.84,13.3m-22.19-2.65c-3.56,0-5.91-2-5.91-5,0-2.6,1.32-4.15,4.7-5.32l2.43.77c3.16,1,4.52,2.46,4.52,4.81,0,3-2.14,4.74-5.74,4.74m-.18-21.49c3.12,0,5,1.54,5,4.15,0,2.32-1.06,3.6-4.15,4.78l-1.29-.41c-3.05-.92-4.33-2.24-4.33-4.44,0-2.54,1.83-4.08,4.81-4.08m3.86,9.88a5.8,5.8,0,0,0,4.41-5.88c0-4-3.2-6.5-8.16-6.5s-8.23,2.65-8.23,6.58c0,2.9,1.29,4.77,4.23,6.1-3.38,1-5.18,3.3-5.18,6.79,0,4.34,3.67,7.17,9.25,7.17s9-2.94,9-7.39c0-3.41-1.58-5.47-5.36-6.87M228,359.94h3.31V334.4h-2.79a5.14,5.14,0,0,1-5.18,4.15h-.81v3h1.32c1.4,0,3.38-.55,4.15-1.62Z" transform="translate(-135.69 -80.47)"/><path class="cls-42" d="M292,294.2c-4.41,0-6.54-4.08-6.54-10.55s2.13-10.58,6.54-10.58,6.54,4.08,6.54,10.58S296.41,294.2,292,294.2m0,2.75c6.47,0,9.85-5.14,9.85-13.3s-3.38-13.34-9.85-13.34-9.85,5.15-9.85,13.34S285.53,297,292,297m-23.37-2.75c-4.4,0-6.53-4.08-6.53-10.55s2.13-10.58,6.53-10.58,6.54,4.08,6.54,10.58S273,294.2,268.63,294.2m0,2.75c6.47,0,9.85-5.14,9.85-13.3s-3.38-13.34-9.85-13.34-9.84,5.15-9.84,13.34,3.38,13.3,9.84,13.3m-22.48-12.82c-3.05,0-5.22-2.06-5.22-5.48s2.06-5.58,5.18-5.58c4.08,0,5.48,3.2,5.81,6.25a6.07,6.07,0,0,1-5.77,4.81m0-13.82c-5.18,0-8.52,3.57-8.52,8.38,0,5.37,3.52,8.19,8.19,8.19a6.72,6.72,0,0,0,6.17-3.27c-.07,6.4-1.61,10.59-5.73,10.59-3.16,0-4.52-1.88-5-4.67l-3.31.73c.81,4.3,3.64,6.69,8.3,6.69,6.54,0,9.08-6,9.08-13.81,0-8.42-2.94-12.83-9.15-12.83M228.44,296.4h3.31V270.87H229a5.14,5.14,0,0,1-5.18,4.15H223v3h1.32c1.4,0,3.38-.55,4.15-1.61Z" transform="translate(-135.69 -80.47)"/><path class="cls-42" d="M292,230.66c-4.41,0-6.54-4.08-6.54-10.54s2.13-10.59,6.54-10.59,6.54,4.08,6.54,10.59-2.13,10.54-6.54,10.54m0,2.75c6.47,0,9.85-5.14,9.85-13.29s-3.38-13.34-9.85-13.34-9.85,5.14-9.85,13.34,3.38,13.29,9.85,13.29m-23.37-2.75c-4.4,0-6.54-4.08-6.54-10.54s2.14-10.59,6.54-10.59,6.54,4.08,6.54,10.59-2.13,10.54-6.54,10.54m0,2.75c6.47,0,9.85-5.14,9.85-13.29s-3.38-13.34-9.85-13.34-9.84,5.14-9.84,13.34,3.38,13.29,9.84,13.29m-23.36-2.75c-4.41,0-6.54-4.08-6.54-10.54s2.13-10.59,6.54-10.59,6.54,4.08,6.54,10.59-2.13,10.54-6.54,10.54m0,2.75c6.46,0,9.84-5.14,9.84-13.29s-3.38-13.34-9.84-13.34-9.85,5.14-9.85,13.34,3.38,13.29,9.85,13.29m-29.17-.55h16.75v-3H220.54a53.53,53.53,0,0,0,6.29-5c3.93-3.63,5.73-6.76,5.73-10.36,0-5-3-7.71-7.94-7.71-5.14,0-8.23,2.9-8.23,7.42a8.55,8.55,0,0,0,.26,2.06l3.31.33a12,12,0,0,1-.3-2.35c0-2.8,1.8-4.6,4.78-4.6s4.66,1.77,4.66,4.89-1.1,5.18-4.33,8.3a92.78,92.78,0,0,1-8.67,7.31Z" transform="translate(-135.69 -80.47)"/><path class="cls-42" d="M292,1244.77c-4.41,0-6.54-4.08-6.54-10.55s2.13-10.58,6.54-10.58,6.54,4.08,6.54,10.58-2.13,10.55-6.54,10.55m0,2.75c6.47,0,9.85-5.14,9.85-13.3s-3.38-13.33-9.85-13.33-9.85,5.14-9.85,13.33,3.38,13.3,9.85,13.3m-23.37-2.75c-4.4,0-6.54-4.08-6.54-10.55s2.14-10.58,6.54-10.58,6.54,4.08,6.54,10.58-2.13,10.55-6.54,10.55m0,2.75c6.47,0,9.85-5.14,9.85-13.3s-3.38-13.33-9.85-13.33-9.84,5.14-9.84,13.33,3.38,13.3,9.84,13.3m-19.54-19v9.36h-8.63a32.15,32.15,0,0,0,2.42-3.34l4.37-6.58a16.31,16.31,0,0,0,1.84-3.34h.07c-.07,1.32-.07,1.84-.07,3.9m7.31,11.94v-2.58h-4.19v-16.49h-3.67l-11.43,16.82v2.25h12V1247h3.12v-6.46Z" transform="translate(-135.69 -80.47)"/><path class="cls-42" d="M292,1308.3c-4.41,0-6.54-4.07-6.54-10.54s2.13-10.58,6.54-10.58,6.54,4.08,6.54,10.58-2.13,10.54-6.54,10.54m0,2.76c6.47,0,9.85-5.14,9.85-13.3s-3.38-13.34-9.85-13.34-9.85,5.15-9.85,13.34,3.38,13.3,9.85,13.3m-23.37-2.76c-4.4,0-6.54-4.07-6.54-10.54s2.14-10.58,6.54-10.58,6.54,4.08,6.54,10.58-2.13,10.54-6.54,10.54m0,2.76c6.47,0,9.85-5.14,9.85-13.3s-3.38-13.34-9.85-13.34-9.84,5.15-9.84,13.34,3.38,13.3,9.84,13.3m-22.19,0c5.33,0,8.67-2.9,8.67-7.79,0-3.64-1.94-5.66-5.51-6.28a5.81,5.81,0,0,0,4.63-5.88c0-4.15-2.9-6.69-7.9-6.69-5.21,0-8.45,3-8.45,7.94l3.09.66c0-3.78,1.87-5.84,5.18-5.84,3,0,4.78,1.58,4.78,4.3s-1.58,4.41-5,4.41h-1.29v2.71h1.44c3.82,0,5.73,1.69,5.73,4.74,0,3.24-1.8,5-5.26,5s-5.76-2-5.91-5.47l-3.23.4c.14,4.78,3.71,7.83,9,7.83" transform="translate(-135.69 -80.47)"/><path class="cls-42" d="M292,1371.84c-4.41,0-6.54-4.08-6.54-10.54s2.13-10.59,6.54-10.59,6.54,4.08,6.54,10.59-2.13,10.54-6.54,10.54m0,2.75c6.47,0,9.85-5.14,9.85-13.29S298.47,1348,292,1348s-9.85,5.14-9.85,13.34,3.38,13.29,9.85,13.29m-23.37-2.75c-4.4,0-6.53-4.08-6.53-10.54s2.13-10.59,6.53-10.59,6.54,4.08,6.54,10.59-2.13,10.54-6.54,10.54m0,2.75c6.47,0,9.85-5.14,9.85-13.29S275.1,1348,268.63,1348s-9.84,5.14-9.84,13.34,3.38,13.29,9.84,13.29m-29.17-.55h16.76v-3H243.91a52.58,52.58,0,0,0,6.28-5c3.93-3.63,5.73-6.76,5.73-10.36,0-5-3-7.71-7.93-7.71-5.15,0-8.23,2.9-8.23,7.42a8.07,8.07,0,0,0,.26,2.06l3.3.33a12.66,12.66,0,0,1-.29-2.35c0-2.8,1.8-4.6,4.77-4.6s4.67,1.77,4.67,4.89-1.1,5.18-4.34,8.3a90.25,90.25,0,0,1-8.67,7.31Z" transform="translate(-135.69 -80.47)"/><path class="cls-42" d="M292,1435.38c-4.41,0-6.54-4.08-6.54-10.55s2.13-10.58,6.54-10.58,6.54,4.08,6.54,10.58-2.13,10.55-6.54,10.55m0,2.75c6.47,0,9.85-5.14,9.85-13.3s-3.38-13.34-9.85-13.34-9.85,5.15-9.85,13.34,3.38,13.3,9.85,13.3m-23.37-2.75c-4.4,0-6.53-4.08-6.53-10.55s2.13-10.58,6.53-10.58,6.54,4.08,6.54,10.58-2.13,10.55-6.54,10.55m0,2.75c6.47,0,9.85-5.14,9.85-13.3s-3.38-13.34-9.85-13.34-9.84,5.15-9.84,13.34,3.38,13.3,9.84,13.3m-19.39-.55h3.3v-25.53h-2.79a5.13,5.13,0,0,1-5.18,4.15h-.81v3h1.32c1.4,0,3.38-.55,4.16-1.61Z" transform="translate(-135.69 -80.47)"/><path class="cls-42" d="M292,1498.91c-4.41,0-6.54-4.08-6.54-10.54s2.13-10.58,6.54-10.58,6.54,4.07,6.54,10.58-2.13,10.54-6.54,10.54m0,2.76c6.47,0,9.85-5.15,9.85-13.3S298.47,1475,292,1475s-9.85,5.14-9.85,13.34,3.38,13.3,9.85,13.3" transform="translate(-135.69 -80.47)"/><path class="cls-42" d="M438.55,1543.71h16.26v-2.89H442.87a52,52,0,0,0,6.09-4.88c3.82-3.53,5.56-6.56,5.56-10.06,0-4.81-2.88-7.48-7.7-7.48-5,0-8,2.82-8,7.2a8,8,0,0,0,.25,2l3.21.32a11.91,11.91,0,0,1-.29-2.28c0-2.71,1.75-4.46,4.64-4.46s4.52,1.71,4.52,4.74-1.07,5-4.2,8.06a92.86,92.86,0,0,1-8.42,7.09Zm-12.08-2.14c-4.28,0-6.35-4-6.35-10.23s2.07-10.27,6.35-10.27,6.34,4,6.34,10.27-2.07,10.23-6.34,10.23m0,2.67c6.27,0,9.55-5,9.55-12.9s-3.28-12.94-9.55-12.94-9.56,5-9.56,12.94,3.28,12.9,9.56,12.9M404,1541.57c-4.28,0-6.35-4-6.35-10.23s2.07-10.27,6.35-10.27,6.34,4,6.34,10.27-2.07,10.23-6.34,10.23m0,2.67c6.27,0,9.55-5,9.55-12.9s-3.28-12.94-9.55-12.94-9.55,5-9.55,12.94,3.27,12.9,9.55,12.9m-28.64-.53h16.25v-2.89H379.71a52.12,52.12,0,0,0,6.1-4.88c3.81-3.53,5.56-6.56,5.56-10.06,0-4.81-2.89-7.48-7.7-7.48-5,0-8,2.82-8,7.2a8.55,8.55,0,0,0,.25,2l3.21.32a11.81,11.81,0,0,1-.28-2.28c0-2.71,1.74-4.46,4.63-4.46s4.53,1.71,4.53,4.74-1.07,5-4.21,8.06a93,93,0,0,1-8.41,7.09Z" transform="translate(-135.69 -80.47)"/><path class="cls-42" d="M587,1544.24c5.17,0,8.41-2.82,8.41-7.56,0-3.52-1.89-5.48-5.34-6.09a5.64,5.64,0,0,0,4.49-5.7c0-4-2.82-6.49-7.67-6.49-5.06,0-8.19,2.92-8.19,7.7l3,.64c0-3.67,1.82-5.67,5-5.67,2.92,0,4.63,1.54,4.63,4.17s-1.53,4.28-4.85,4.28h-1.24v2.64h1.39c3.7,0,5.56,1.64,5.56,4.6,0,3.13-1.75,4.81-5.1,4.81s-5.6-2-5.74-5.31l-3.14.39c.15,4.63,3.6,7.59,8.77,7.59M566,1541.57c-4.28,0-6.34-4-6.34-10.23s2.06-10.27,6.34-10.27,6.34,4,6.34,10.27-2.06,10.23-6.34,10.23m0,2.67c6.27,0,9.55-5,9.55-12.9s-3.28-12.94-9.55-12.94-9.55,5-9.55,12.94,3.28,12.9,9.55,12.9m-22.43-2.67c-4.28,0-6.34-4-6.34-10.23s2.06-10.27,6.34-10.27,6.35,4,6.35,10.27-2.07,10.23-6.35,10.23m0,2.67c6.27,0,9.55-5,9.55-12.9s-3.28-12.94-9.55-12.94-9.55,5-9.55,12.94,3.28,12.9,9.55,12.9m-28.64-.53h16.26v-2.89H519.27a52,52,0,0,0,6.09-4.88c3.81-3.53,5.56-6.56,5.56-10.06,0-4.81-2.89-7.48-7.7-7.48-5,0-8,2.82-8,7.2a8,8,0,0,0,.25,2l3.21.32a11.91,11.91,0,0,1-.29-2.28c0-2.71,1.75-4.46,4.63-4.46s4.53,1.71,4.53,4.74-1.07,5-4.21,8.06a91.59,91.59,0,0,1-8.41,7.09Z" transform="translate(-135.69 -80.47)"/><path class="cls-42" d="M730.09,1525.85v9.09h-8.37a31.15,31.15,0,0,0,2.35-3.25l4.24-6.38a15.07,15.07,0,0,0,1.78-3.24h.07c-.07,1.28-.07,1.78-.07,3.78m7.1,11.58v-2.49h-4.07v-16h-3.56l-11.09,16.33v2.17h11.62v6.28h3v-6.28Zm-30.62,4.14c-4.27,0-6.34-4-6.34-10.23s2.07-10.27,6.34-10.27,6.35,4,6.35,10.27-2.07,10.23-6.35,10.23m0,2.67c6.28,0,9.56-5,9.56-12.9s-3.28-12.94-9.56-12.94-9.55,5-9.55,12.94,3.28,12.9,9.55,12.9m-22.43-2.67c-4.27,0-6.34-4-6.34-10.23s2.07-10.27,6.34-10.27,6.35,4,6.35,10.27-2.07,10.23-6.35,10.23m0,2.67c6.28,0,9.56-5,9.56-12.9s-3.28-12.94-9.56-12.94-9.55,5-9.55,12.94,3.28,12.9,9.55,12.9m-28.63-.53h16.25v-2.89H659.82a52,52,0,0,0,6.09-4.88c3.82-3.53,5.56-6.56,5.56-10.06,0-4.81-2.88-7.48-7.69-7.48-5,0-8,2.82-8,7.2a8,8,0,0,0,.25,2l3.21.32a11.91,11.91,0,0,1-.29-2.28c0-2.71,1.75-4.46,4.64-4.46s4.52,1.71,4.52,4.74-1.06,5-4.2,8.06a93,93,0,0,1-8.41,7.09Z" transform="translate(-135.69 -80.47)"/><path class="cls-42" d="M869.26,1544.24c5.24,0,8.59-3.56,8.59-8.77s-2.85-8.66-7.56-8.66a6.2,6.2,0,0,0-5.84,3.32l.92-8.42h11.27v-2.78H863l-1.46,14.37,3.06.32c.68-2.6,2.32-4.14,5-4.14,3.42,0,5.13,2.46,5.13,6.17s-1.92,5.85-5.2,5.85a4.86,4.86,0,0,1-5-4.25l-3.31.4c.64,4,3.77,6.59,8.16,6.59m-20.86-2.67c-4.28,0-6.35-4-6.35-10.23s2.07-10.27,6.35-10.27,6.34,4,6.34,10.27-2.07,10.23-6.34,10.23m0,2.67c6.27,0,9.55-5,9.55-12.9s-3.28-12.94-9.55-12.94-9.55,5-9.55,12.94,3.27,12.9,9.55,12.9M826,1541.57c-4.28,0-6.35-4-6.35-10.23s2.07-10.27,6.35-10.27,6.34,4,6.34,10.27-2.06,10.23-6.34,10.23m0,2.67c6.27,0,9.55-5,9.55-12.9s-3.28-12.94-9.55-12.94-9.55,5-9.55,12.94,3.28,12.9,9.55,12.9m-28.64-.53h16.25v-2.89H801.64a52.12,52.12,0,0,0,6.1-4.88c3.81-3.53,5.56-6.56,5.56-10.06,0-4.81-2.89-7.48-7.7-7.48-5,0-8,2.82-8,7.2a8,8,0,0,0,.25,2l3.2.32a12.65,12.65,0,0,1-.28-2.28c0-2.71,1.75-4.46,4.63-4.46s4.53,1.71,4.53,4.74-1.07,5-4.21,8.06a93,93,0,0,1-8.41,7.09Z" transform="translate(-135.69 -80.47)"/><path class="cls-42" d="M1010.8,1541.57c-3.14,0-5.35-2.6-5.71-6.7.86-3.21,2.82-5,5.56-5,3.11,0,5.07,2.25,5.07,5.81s-1.93,5.92-4.92,5.92m.46-14.4a6.68,6.68,0,0,0-6.27,3.6c.14-6.42,2.17-9.7,6.06-9.7,2.38,0,3.81,1.36,4.38,4.17l3.21-.71c-.75-4-3.42-6.13-7.56-6.13-5.91,0-9.23,4.81-9.23,13.47,0,8.16,3,12.37,8.91,12.37,4.88,0,8.16-3.49,8.16-8.63s-3-8.44-7.66-8.44m-22.2,14.4c-4.28,0-6.34-4-6.34-10.23s2.06-10.27,6.34-10.27,6.34,4,6.34,10.27-2.06,10.23-6.34,10.23m0,2.67c6.27,0,9.55-5,9.55-12.9s-3.28-12.94-9.55-12.94-9.55,5-9.55,12.94,3.28,12.9,9.55,12.9m-22.43-2.67c-4.28,0-6.34-4-6.34-10.23s2.06-10.27,6.34-10.27,6.35,4,6.35,10.27-2.07,10.23-6.35,10.23m0,2.67c6.27,0,9.55-5,9.55-12.9s-3.28-12.94-9.55-12.94-9.55,5-9.55,12.94,3.28,12.9,9.55,12.9m-28.64-.53h16.26v-2.89H942.31a52,52,0,0,0,6.09-4.88c3.81-3.53,5.56-6.56,5.56-10.06,0-4.81-2.89-7.48-7.7-7.48-5,0-8,2.82-8,7.2a8,8,0,0,0,.25,2l3.21.32a11.91,11.91,0,0,1-.29-2.28c0-2.71,1.75-4.46,4.63-4.46s4.53,1.71,4.53,4.74-1.07,5-4.21,8.06a91.59,91.59,0,0,1-8.41,7.09Z" transform="translate(-135.69 -80.47)"/><path class="cls-42" d="M1145.08,1543.71h3.52v-.61a32.73,32.73,0,0,1,8.77-21.67v-2.5h-16v3h12.41c-5.49,6.85-8.66,14.08-8.66,21.46Zm-14.95-2.14c-4.27,0-6.34-4-6.34-10.23s2.07-10.27,6.34-10.27,6.35,4,6.35,10.27-2.07,10.23-6.35,10.23m0,2.67c6.28,0,9.56-5,9.56-12.9s-3.28-12.94-9.56-12.94-9.55,5-9.55,12.94,3.28,12.9,9.55,12.9m-22.42-2.67c-4.28,0-6.35-4-6.35-10.23s2.07-10.27,6.35-10.27,6.34,4,6.34,10.27-2.07,10.23-6.34,10.23m0,2.67c6.27,0,9.55-5,9.55-12.9s-3.28-12.94-9.55-12.94-9.56,5-9.56,12.94,3.28,12.9,9.56,12.9m-28.64-.53h16.25v-2.89h-11.94a53,53,0,0,0,6.1-4.88c3.81-3.53,5.56-6.56,5.56-10.06,0-4.81-2.89-7.48-7.7-7.48-5,0-8,2.82-8,7.2a8,8,0,0,0,.25,2l3.21.32a11.81,11.81,0,0,1-.28-2.28c0-2.71,1.74-4.46,4.63-4.46s4.53,1.71,4.53,4.74-1.07,5-4.21,8.06a93,93,0,0,1-8.41,7.09Z" transform="translate(-135.69 -80.47)"/><path class="cls-42" d="M1290,1541.67c-3.46,0-5.74-1.92-5.74-4.84,0-2.53,1.28-4,4.56-5.17l2.35.75c3.07,1,4.39,2.39,4.39,4.67,0,2.88-2.07,4.59-5.56,4.59m-.18-20.85c3,0,4.81,1.5,4.81,4,0,2.25-1,3.49-4,4.63l-1.25-.39c-2.95-.89-4.2-2.17-4.2-4.31,0-2.46,1.78-4,4.67-4m3.74,9.59a5.62,5.62,0,0,0,4.28-5.7c0-3.85-3.1-6.31-7.92-6.31s-8,2.57-8,6.38c0,2.82,1.25,4.63,4.1,5.92-3.28,1-5,3.2-5,6.59,0,4.21,3.57,7,9,7s8.76-2.85,8.76-7.16c0-3.32-1.53-5.31-5.2-6.67m-25,11.16c-4.27,0-6.34-4-6.34-10.23s2.07-10.27,6.34-10.27,6.35,4,6.35,10.27-2.07,10.23-6.35,10.23m0,2.67c6.28,0,9.55-5,9.55-12.9s-3.27-12.94-9.55-12.94-9.55,5-9.55,12.94,3.28,12.9,9.55,12.9m-22.43-2.67c-4.27,0-6.34-4-6.34-10.23s2.07-10.27,6.34-10.27,6.35,4,6.35,10.27-2.07,10.23-6.35,10.23m0,2.67c6.28,0,9.56-5,9.56-12.9s-3.28-12.94-9.56-12.94-9.55,5-9.55,12.94,3.28,12.9,9.55,12.9m-28.63-.53h16.25v-2.89h-11.94a52,52,0,0,0,6.09-4.88c3.82-3.53,5.56-6.56,5.56-10.06,0-4.81-2.88-7.48-7.69-7.48-5,0-8,2.82-8,7.2a8,8,0,0,0,.25,2l3.21.32a11.91,11.91,0,0,1-.29-2.28c0-2.71,1.75-4.46,4.64-4.46s4.52,1.71,4.52,4.74-1.07,5-4.2,8.06a93,93,0,0,1-8.41,7.09Z" transform="translate(-135.69 -80.47)"/><path class="cls-42" d="M1430.77,1531.8c-3,0-5.06-2-5.06-5.31s2-5.42,5-5.42c4,0,5.31,3.1,5.63,6.06a5.89,5.89,0,0,1-5.6,4.67m0-13.4c-5,0-8.27,3.46-8.27,8.13,0,5.2,3.42,7.94,8,7.94a6.54,6.54,0,0,0,6-3.17c-.07,6.2-1.57,10.27-5.56,10.27-3.07,0-4.39-1.82-4.88-4.53l-3.21.71c.78,4.17,3.53,6.49,8,6.49,6.35,0,8.81-5.85,8.81-13.4,0-8.16-2.86-12.44-8.88-12.44m-20.8,23.17c-4.27,0-6.34-4-6.34-10.23s2.07-10.27,6.34-10.27,6.35,4,6.35,10.27-2.07,10.23-6.35,10.23m0,2.67c6.28,0,9.56-5,9.56-12.9s-3.28-12.94-9.56-12.94-9.55,5-9.55,12.94,3.28,12.9,9.55,12.9m-22.42-2.67c-4.28,0-6.35-4-6.35-10.23s2.07-10.27,6.35-10.27,6.34,4,6.34,10.27-2.07,10.23-6.34,10.23m0,2.67c6.27,0,9.55-5,9.55-12.9s-3.28-12.94-9.55-12.94-9.56,5-9.56,12.94,3.28,12.9,9.56,12.9m-28.64-.53h16.25v-2.89h-11.94a53,53,0,0,0,6.1-4.88c3.81-3.53,5.56-6.56,5.56-10.06,0-4.81-2.89-7.48-7.7-7.48-5,0-8,2.82-8,7.2a8,8,0,0,0,.25,2l3.21.32a11.81,11.81,0,0,1-.28-2.28c0-2.71,1.74-4.46,4.63-4.46s4.53,1.71,4.53,4.74-1.07,5-4.21,8.06a93,93,0,0,1-8.41,7.09Z" transform="translate(-135.69 -80.47)"/><path class="cls-42" d="M1563.64,1541.57c-4.27,0-6.34-4-6.34-10.23s2.07-10.27,6.34-10.27,6.35,4,6.35,10.27-2.07,10.23-6.35,10.23m0,2.67c6.28,0,9.55-5,9.55-12.9s-3.27-12.94-9.55-12.94-9.55,5-9.55,12.94,3.28,12.9,9.55,12.9m-17.74-.53h3.21v-24.78h-2.71a5,5,0,0,1-5,4h-.79v2.89h1.29c1.35,0,3.28-.54,4-1.57Zm-17.47-2.14c-4.28,0-6.35-4-6.35-10.23s2.07-10.27,6.35-10.27,6.34,4,6.34,10.27-2.06,10.23-6.34,10.23m0,2.67c6.27,0,9.55-5,9.55-12.9s-3.28-12.94-9.55-12.94-9.55,5-9.55,12.94,3.28,12.9,9.55,12.9m-28.64-.53H1516v-2.89H1504.1a52.12,52.12,0,0,0,6.1-4.88c3.81-3.53,5.56-6.56,5.56-10.06,0-4.81-2.89-7.48-7.7-7.48-5,0-8,2.82-8,7.2a8,8,0,0,0,.25,2l3.2.32a12.65,12.65,0,0,1-.28-2.28c0-2.71,1.75-4.46,4.63-4.46s4.53,1.71,4.53,4.74-1.07,5-4.21,8.06a93,93,0,0,1-8.41,7.09Z" transform="translate(-135.69 -80.47)"/><path class="cls-42" d="M1692,1543.71h3.21v-24.78h-2.71a5,5,0,0,1-5,4h-.78v2.89H1688c1.35,0,3.28-.54,4-1.57Zm-12.56,0h3.21v-24.78H1680a5,5,0,0,1-5,4h-.79v2.89h1.28c1.36,0,3.28-.54,4-1.57Zm-17.47-2.14c-4.28,0-6.35-4-6.35-10.23s2.07-10.27,6.35-10.27,6.34,4,6.34,10.27-2.07,10.23-6.34,10.23m0,2.67c6.27,0,9.55-5,9.55-12.9s-3.28-12.94-9.55-12.94-9.56,5-9.56,12.94,3.28,12.9,9.56,12.9m-28.64-.53h16.25v-2.89h-11.94a52.12,52.12,0,0,0,6.1-4.88c3.81-3.53,5.56-6.56,5.56-10.06,0-4.81-2.89-7.48-7.7-7.48-5,0-8,2.82-8,7.2a8.55,8.55,0,0,0,.25,2l3.21.32a11.81,11.81,0,0,1-.28-2.28c0-2.71,1.74-4.46,4.63-4.46s4.53,1.71,4.53,4.74-1.07,5-4.21,8.06a93,93,0,0,1-8.41,7.09Z" transform="translate(-135.69 -80.47)"/><path class="cls-42" d="M1809.06,1543.71h16.25v-2.89h-11.94a52,52,0,0,0,6.09-4.88c3.82-3.53,5.56-6.56,5.56-10.06,0-4.81-2.88-7.48-7.69-7.48-5,0-8,2.82-8,7.2a8,8,0,0,0,.25,2l3.21.32a11.91,11.91,0,0,1-.29-2.28c0-2.71,1.75-4.46,4.64-4.46s4.52,1.71,4.52,4.74-1.07,5-4.2,8.06a93,93,0,0,1-8.41,7.09Zm-7.59,0h3.21v-24.78H1802a5,5,0,0,1-5,4h-.79v2.89h1.29c1.35,0,3.27-.54,4-1.57Zm-17.47-2.14c-4.28,0-6.35-4-6.35-10.23s2.07-10.27,6.35-10.27,6.34,4,6.34,10.27-2.06,10.23-6.34,10.23m0,2.67c6.27,0,9.55-5,9.55-12.9s-3.28-12.94-9.55-12.94-9.55,5-9.55,12.94,3.28,12.9,9.55,12.9m-28.64-.53h16.25v-2.89h-11.94a52.12,52.12,0,0,0,6.1-4.88c3.81-3.53,5.56-6.56,5.56-10.06,0-4.81-2.89-7.48-7.7-7.48-5,0-8,2.82-8,7.2a8,8,0,0,0,.25,2l3.2.32a11.81,11.81,0,0,1-.28-2.28c0-2.71,1.74-4.46,4.63-4.46s4.53,1.71,4.53,4.74-1.07,5-4.21,8.06a93,93,0,0,1-8.41,7.09Z" transform="translate(-135.69 -80.47)"/><path class="cls-42" d="M1947.92,1544.24c5.17,0,8.41-2.82,8.41-7.56,0-3.52-1.89-5.48-5.35-6.09a5.63,5.63,0,0,0,4.49-5.7c0-4-2.81-6.49-7.66-6.49-5.06,0-8.2,2.92-8.2,7.7l3,.64c0-3.67,1.82-5.67,5-5.67,2.93,0,4.64,1.54,4.64,4.17s-1.54,4.28-4.85,4.28h-1.25v2.64h1.39c3.71,0,5.56,1.64,5.56,4.6,0,3.13-1.74,4.81-5.09,4.81s-5.6-2-5.74-5.31l-3.14.39c.14,4.63,3.6,7.59,8.77,7.59m-16.35-.53h3.21v-24.78h-2.71a5,5,0,0,1-5,4h-.78v2.89h1.28c1.35,0,3.28-.54,4-1.57Zm-17.48-2.14c-4.27,0-6.34-4-6.34-10.23s2.07-10.27,6.34-10.27,6.35,4,6.35,10.27-2.07,10.23-6.35,10.23m0,2.67c6.28,0,9.55-5,9.55-12.9s-3.27-12.94-9.55-12.94-9.55,5-9.55,12.94,3.28,12.9,9.55,12.9m-28.63-.53h16.25v-2.89h-11.94a52,52,0,0,0,6.09-4.88c3.82-3.53,5.56-6.56,5.56-10.06,0-4.81-2.88-7.48-7.7-7.48-5,0-8,2.82-8,7.2a8,8,0,0,0,.25,2l3.21.32a11.91,11.91,0,0,1-.29-2.28c0-2.71,1.75-4.46,4.64-4.46s4.52,1.71,4.52,4.74-1.07,5-4.2,8.06a94.37,94.37,0,0,1-8.41,7.09Z" transform="translate(-135.69 -80.47)"/><path class="cls-42" d="M2081,1525.85v9.09h-8.37a31.15,31.15,0,0,0,2.35-3.25l4.24-6.38a15.52,15.52,0,0,0,1.78-3.24h.07c-.07,1.28-.07,1.78-.07,3.78m7.09,11.58v-2.49h-4.06v-16h-3.56l-11.09,16.33v2.17H2081v6.28h3v-6.28Zm-25.52,6.28h3.21v-24.78h-2.71a5,5,0,0,1-5,4h-.78v2.89h1.28c1.36,0,3.28-.54,4-1.57Zm-17.48-2.14c-4.27,0-6.34-4-6.34-10.23s2.07-10.27,6.34-10.27,6.35,4,6.35,10.27-2.07,10.23-6.35,10.23m0,2.67c6.28,0,9.56-5,9.56-12.9s-3.28-12.94-9.56-12.94-9.55,5-9.55,12.94,3.28,12.9,9.55,12.9m-28.63-.53h16.25v-2.89h-11.94a52,52,0,0,0,6.09-4.88c3.82-3.53,5.56-6.56,5.56-10.06,0-4.81-2.88-7.48-7.7-7.48-5,0-8,2.82-8,7.2a8,8,0,0,0,.25,2l3.21.32a11.91,11.91,0,0,1-.29-2.28c0-2.71,1.75-4.46,4.64-4.46s4.52,1.71,4.52,4.74-1.07,5-4.2,8.06a94.37,94.37,0,0,1-8.41,7.09Z" transform="translate(-135.69 -80.47)"/><path class="cls-42" d="M2210.66,1544.24c5.24,0,8.59-3.56,8.59-8.77s-2.85-8.66-7.56-8.66a6.2,6.2,0,0,0-5.84,3.32l.92-8.42H2218v-2.78h-13.69l-1.46,14.37,3.06.32c.68-2.6,2.32-4.14,5-4.14,3.42,0,5.13,2.46,5.13,6.17s-1.92,5.85-5.2,5.85a4.86,4.86,0,0,1-5-4.25l-3.31.4c.64,4,3.78,6.59,8.16,6.59m-16.29-.53h3.21v-24.78h-2.71a5,5,0,0,1-5,4h-.78v2.89h1.28c1.36,0,3.28-.54,4-1.57Zm-17.47-2.14c-4.28,0-6.35-4-6.35-10.23s2.07-10.27,6.35-10.27,6.34,4,6.34,10.27-2.07,10.23-6.34,10.23m0,2.67c6.27,0,9.55-5,9.55-12.9s-3.28-12.94-9.55-12.94-9.56,5-9.56,12.94,3.28,12.9,9.56,12.9m-28.64-.53h16.25v-2.89h-11.94a52.12,52.12,0,0,0,6.1-4.88c3.81-3.53,5.56-6.56,5.56-10.06,0-4.81-2.89-7.48-7.7-7.48-5,0-8,2.82-8,7.2a8.55,8.55,0,0,0,.25,2l3.21.32a11.81,11.81,0,0,1-.28-2.28c0-2.71,1.74-4.46,4.63-4.46s4.53,1.71,4.53,4.74-1.07,5-4.21,8.06a93,93,0,0,1-8.41,7.09Z" transform="translate(-135.69 -80.47)"/><path class="cls-42" d="M2342.61,1541.57c-3.14,0-5.35-2.6-5.7-6.7.85-3.21,2.81-5,5.56-5,3.1,0,5.06,2.25,5.06,5.81s-1.93,5.92-4.92,5.92m.46-14.4a6.68,6.68,0,0,0-6.27,3.6c.14-6.42,2.18-9.7,6.06-9.7,2.39,0,3.81,1.36,4.38,4.17l3.21-.71c-.75-4-3.42-6.13-7.55-6.13-5.92,0-9.23,4.81-9.23,13.47,0,8.16,3,12.37,8.91,12.37,4.88,0,8.16-3.49,8.16-8.63s-3-8.44-7.67-8.44m-17.56,16.54h3.2v-24.78H2326a5,5,0,0,1-5,4h-.78v2.89h1.28c1.35,0,3.28-.54,4-1.57Zm-17.48-2.14c-4.27,0-6.34-4-6.34-10.23s2.07-10.27,6.34-10.27,6.35,4,6.35,10.27-2.07,10.23-6.35,10.23m0,2.67c6.27,0,9.55-5,9.55-12.9s-3.28-12.94-9.55-12.94-9.55,5-9.55,12.94,3.28,12.9,9.55,12.9m-28.64-.53h16.26v-2.89h-11.94a52,52,0,0,0,6.09-4.88c3.82-3.53,5.56-6.56,5.56-10.06,0-4.81-2.88-7.48-7.7-7.48-5,0-8,2.82-8,7.2a8,8,0,0,0,.25,2l3.21.32a11.91,11.91,0,0,1-.29-2.28c0-2.71,1.75-4.46,4.64-4.46s4.52,1.71,4.52,4.74-1.07,5-4.2,8.06a92.86,92.86,0,0,1-8.42,7.09Z" transform="translate(-135.69 -80.47)"/></g><line class="cls-43" x1="279.42" y1="614.53" x2="419.47" y2="785.84"/><g class="cls-41"><path class="cls-42" d="M415.1,703.72a8.72,8.72,0,1,0-8.72-8.72,8.72,8.72,0,0,0,8.72,8.72" transform="translate(-135.69 -80.47)"/><path class="cls-42" d="M555.16,874.75a8.72,8.72,0,1,0-8.72-8.72,8.72,8.72,0,0,0,8.72,8.72" transform="translate(-135.69 -80.47)"/></g></g></g></svg>