<?xml version="1.0" encoding="UTF-8"?>
<svg width="258px" height="245px" viewBox="0 0 258 245" version="1.1" xmlns="http://www.w3.org/2000/svg" xmlns:xlink="http://www.w3.org/1999/xlink">
    <!-- Generator: Sketch 46.2 (44496) - http://www.bohemiancoding.com/sketch -->
    <title>Group</title>
    <desc>Created with Sketch.</desc>
    <defs>
        <polygon id="path-1" points="0.773 0.3542 0.773 33.3772 28.1345 33.3772 28.1345 0.3542 0.773 0.3542"></polygon>
    </defs>
    <g id="Page-1" stroke="none" stroke-width="1" fill="none" fill-rule="evenodd">
        <g id="Desktop-HD-Copy-3" transform="translate(-591.000000, -270.000000)">
            <g id="Group" transform="translate(591.000000, 274.000000)">
                <path d="M221.7686,91.3059 C221.7686,141.6799 180.9326,182.5159 130.5576,182.5159 C80.1836,182.5159 39.3476,141.6799 39.3476,91.3059 C39.3476,40.9309 80.1836,0.0949 130.5576,0.0949 C180.9326,0.0949 221.7686,40.9309 221.7686,91.3059 Z" id="Stroke-3" stroke="#FFFFFF" stroke-width="8.191"></path>
                <path d="M141.5664,92.092 C141.5664,97.738 136.9904,102.314 131.3444,102.314 C125.6994,102.314 121.1224,97.738 121.1224,92.092 C121.1224,86.446 125.6994,81.869 131.3444,81.869 C136.9904,81.869 141.5664,86.446 141.5664,92.092" id="Fill-5" fill="#FFFFFF"></path>
                <g id="Group-9" transform="translate(0.000000, 198.000000)">
                    <mask id="mask-2" fill="white">
                        <use xlink:href="#path-1"></use>
                    </mask>
                    <g id="Clip-8"></g>
                    <path d="M0.7725,33.3772 L0.7725,0.3542 L15.7755,0.3542 C23.3705,0.3542 28.1345,4.3152 28.1345,11.1582 C28.1345,17.9502 23.3705,21.8642 15.7755,21.8642 L7.0015,21.8642 L7.0015,33.3772 L0.7725,33.3772 Z M7.0015,5.9212 L7.0015,16.2992 L15.5855,16.2992 C19.7855,16.2992 21.9075,14.3642 21.9075,11.1582 C21.9075,7.9012 19.7855,5.9212 15.5855,5.9212 L7.0015,5.9212 Z" id="Fill-7" fill="#FFFFFF" mask="url(#mask-2)"></path>
                </g>
                <path d="M53.2803,221.094 L35.2593,221.094 C35.6373,224.678 38.1373,226.942 41.6763,226.942 C44.5523,226.942 46.6763,225.527 48.1383,222.649 L52.5733,225.198 C50.3553,229.774 46.7233,232.037 41.5813,232.037 C38.2313,232.037 35.4013,230.906 33.0423,228.594 C30.7303,226.281 29.5513,223.31 29.5513,219.677 C29.5513,216.044 30.7303,213.119 33.0893,210.807 C35.4953,208.497 38.4213,207.318 41.8643,207.318 C45.2143,207.318 47.9503,208.402 50.0733,210.62 C52.1953,212.837 53.2803,215.62 53.2803,219.017 L53.2803,221.094 Z M35.2593,216.752 L47.8083,216.752 C47.2423,213.733 45.0253,211.846 41.6763,211.846 C38.6093,211.846 36.1563,213.969 35.2593,216.752 L35.2593,216.752 Z" id="Fill-10" fill="#FFFFFF"></path>
                <path d="M71.4912,213.2151 C70.8782,212.9791 70.2642,212.8831 69.5562,212.8831 C66.0182,212.8831 63.8962,215.7161 63.8962,219.8191 L63.8962,231.3771 L57.9522,231.3771 L57.9522,207.9791 L63.8962,207.9791 L63.8962,211.7031 C65.3582,208.7801 67.5282,207.3181 70.4062,207.3181 C71.2082,207.3181 71.8692,207.4111 72.4342,207.6011 L71.4912,213.2151 Z" id="Fill-12" fill="#FFFFFF"></path>
                <path d="M86.0693,217.0364 C91.5423,218.2164 93.9013,220.2904 93.9013,224.2544 C93.9013,226.4704 93.0513,228.3574 91.3523,229.8194 C89.7023,231.2814 87.4373,232.0374 84.6543,232.0374 C79.2293,232.0374 75.6913,229.1594 73.9443,225.0084 L78.7103,221.9894 C79.7953,225.0564 81.8703,227.0374 84.7483,227.0374 C86.6823,227.0374 88.4273,225.9994 88.4273,224.4414 C88.4273,222.8844 87.0123,222.1304 83.4263,221.4234 C78.5213,220.4794 75.2653,218.0744 75.2653,214.1104 C75.2653,211.9864 76.1153,210.3374 77.8133,209.1574 C79.5113,207.9314 81.5883,207.3174 83.9933,207.3174 C88.9473,207.3174 91.7293,209.2034 93.6643,213.2154 L89.3723,215.7614 C88.2873,213.0244 86.4943,211.6584 84.0883,211.6584 C81.7293,211.6584 80.5493,212.3644 80.5493,213.7334 C80.5493,215.1964 82.3893,216.3264 86.0693,217.0364" id="Fill-14" fill="#FFFFFF"></path>
                <path d="M98.6191,241.0002 L98.6191,207.9792 L104.5631,207.9792 L104.5631,211.3262 C106.2611,209.0172 109.2801,207.3172 112.6781,207.3172 C115.7431,207.3172 118.2921,208.4482 120.3201,210.6652 C122.3951,212.8842 123.4331,215.9022 123.4331,219.6782 C123.4331,223.3572 122.3481,226.3292 120.1781,228.6402 C118.0081,230.9052 115.3191,232.0372 112.1581,232.0372 C108.9971,232.0372 106.4501,230.8572 104.5631,228.4992 L104.5631,241.0002 L98.6191,241.0002 Z M110.7901,212.8842 C108.9031,212.8842 107.3471,213.5442 106.0721,214.8182 C104.7991,216.0912 104.1851,217.7422 104.1851,219.6782 C104.1851,221.6112 104.7991,223.2162 106.0721,224.5362 C107.3471,225.8102 108.9031,226.4712 110.7901,226.4712 C112.7241,226.4712 114.2811,225.8102 115.5081,224.5362 C116.7811,223.2162 117.3951,221.6112 117.3951,219.6782 C117.3951,217.7422 116.7811,216.0912 115.5081,214.8182 C114.2811,213.5442 112.7241,212.8842 110.7901,212.8842 L110.7901,212.8842 Z" id="Fill-16" fill="#FFFFFF"></path>
                <path d="M150.418,221.094 L132.398,221.094 C132.775,224.678 135.276,226.942 138.814,226.942 C141.69,226.942 143.814,225.527 145.276,222.649 L149.712,225.198 C147.494,229.774 143.86,232.037 138.719,232.037 C135.37,232.037 132.539,230.906 130.18,228.594 C127.868,226.281 126.689,223.31 126.689,219.677 C126.689,216.044 127.868,213.119 130.227,210.807 C132.633,208.497 135.559,207.318 139.001,207.318 C142.353,207.318 145.088,208.402 147.211,210.62 C149.334,212.837 150.418,215.62 150.418,219.017 L150.418,221.094 Z M132.398,216.752 L144.946,216.752 C144.38,213.733 142.162,211.846 138.814,211.846 C135.746,211.846 133.295,213.969 132.398,216.752 L132.398,216.752 Z" id="Fill-18" fill="#FFFFFF"></path>
                <path d="M177.0264,225.2922 C174.8084,229.7732 171.1294,232.0372 166.0814,232.0372 C162.5454,232.0372 159.6194,230.9052 157.2594,228.6402 C154.9494,226.3282 153.7694,223.3562 153.7694,219.6782 C153.7694,216.0442 154.9494,213.0722 157.3534,210.7612 C159.7594,208.4482 162.6384,207.3182 166.0814,207.3182 C171.2244,207.3182 175.1384,209.6772 176.7894,213.6862 L171.9304,216.8952 C170.7054,214.2042 168.7234,212.8832 166.0334,212.8832 C162.4494,212.8832 159.8074,215.6662 159.8074,219.6782 C159.8074,223.7812 162.4014,226.4702 166.0334,226.4702 C169.0524,226.4702 170.7514,225.0562 172.2134,222.1782 L177.0264,225.2922 Z" id="Fill-20" fill="#FFFFFF"></path>
                <path d="M179.1982,212.7903 L179.1982,207.9783 L182.8302,207.9783 L182.8302,201.6553 L188.7742,201.6553 L188.7742,207.9783 L193.8702,207.9783 L193.8702,212.7903 L188.7742,212.7903 L188.7742,223.4513 C188.7742,225.6683 189.7652,226.7543 191.7462,226.7543 C192.4552,226.7543 193.1142,226.6583 193.7272,226.4703 L194.2942,231.3763 C193.0662,231.8013 191.7462,232.0373 190.3322,232.0373 C185.3302,232.0373 182.8302,229.5373 182.8302,224.5833 L182.8302,212.7903 L179.1982,212.7903 Z" id="Fill-22" fill="#FFFFFF"></path>
                <path d="M198.304,204.582 L204.815,204.582 L204.815,198.354 L198.304,198.354 L198.304,204.582 Z M198.586,231.376 L204.531,231.376 L204.531,207.979 L198.586,207.979 L198.586,231.376 Z" id="Fill-25" fill="#FFFFFF"></path>
                <polygon id="Fill-26" fill="#FFFFFF" points="232.3193 207.9788 222.8363 231.3758 217.2683 231.3758 207.7873 207.9788 214.1083 207.9788 220.0513 223.8288 225.9963 207.9788"></polygon>
                <path d="M257.2275,221.094 L239.2055,221.094 C239.5825,224.678 242.0825,226.942 245.6225,226.942 C248.4995,226.942 250.6225,225.527 252.0855,222.649 L256.5185,225.198 C254.3015,229.774 250.6705,232.037 245.5285,232.037 C242.1775,232.037 239.3475,230.906 236.9895,228.594 C234.6775,226.281 233.4985,223.31 233.4985,219.677 C233.4985,216.044 234.6775,213.119 237.0365,210.807 C239.4415,208.497 242.3675,207.318 245.8105,207.318 C249.1605,207.318 251.8965,208.402 254.0185,210.62 C256.1415,212.837 257.2275,215.62 257.2275,219.017 L257.2275,221.094 Z M239.2055,216.752 L251.7545,216.752 C251.1885,213.733 248.9725,211.846 245.6225,211.846 C242.5565,211.846 240.1025,213.969 239.2055,216.752 L239.2055,216.752 Z" id="Fill-27" fill="#FFFFFF"></path>
            </g>
        </g>
    </g>
</svg>